<?xml version="1.0" encoding="UTF-8" standalone="no"?><svg xmlns="http://www.w3.org/2000/svg" xmlns:xlink="http://www.w3.org/1999/xlink" contentScriptType="application/ecmascript" contentStyleType="text/css" height="383px" preserveAspectRatio="none" style="width:502px;height:383px;" version="1.1" viewBox="0 0 502 383" width="502px" zoomAndPan="magnify"><defs><filter height="300%" id="f7x59jqc7r9x8" width="300%" x="-1" y="-1"><feGaussianBlur result="blurOut" stdDeviation="2.0"/><feColorMatrix in="blurOut" result="blurOut2" type="matrix" values="0 0 0 0 0 0 0 0 0 0 0 0 0 0 0 0 0 0 .4 0"/><feOffset dx="4.0" dy="4.0" in="blurOut2" result="blurOut3"/><feBlend in="SourceGraphic" in2="blurOut3" mode="normal"/></filter></defs><g><rect fill="#FFFFFF" filter="url(#f7x59jqc7r9x8)" height="59.2656" style="stroke: #000000; stroke-width: 2.0;" width="218" x="273" y="190.6953"/><line style="stroke: #A80036; stroke-width: 1.0; stroke-dasharray: 5.0,5.0;" x1="29" x2="29" y1="86.2969" y2="296.0938"/><line style="stroke: #A80036; stroke-width: 1.0; stroke-dasharray: 5.0,5.0;" x1="125" x2="125" y1="86.2969" y2="296.0938"/><line style="stroke: #A80036; stroke-width: 1.0; stroke-dasharray: 5.0,5.0;" x1="308" x2="308" y1="86.2969" y2="296.0938"/><text fill="#000000" font-family="sans-serif" font-size="14" lengthAdjust="spacingAndGlyphs" textLength="36" x="8" y="82.9951">Actor</text><ellipse cx="29" cy="13" fill="#FEFECE" filter="url(#f7x59jqc7r9x8)" rx="8" ry="8" style="stroke: #A80036; stroke-width: 2.0;"/><path d="M29,21 L29,48 M16,29 L42,29 M29,48 L16,63 M29,48 L42,63 " fill="none" filter="url(#f7x59jqc7r9x8)" style="stroke: #A80036; stroke-width: 2.0;"/><text fill="#000000" font-family="sans-serif" font-size="14" lengthAdjust="spacingAndGlyphs" textLength="36" x="8" y="308.0889">Actor</text><ellipse cx="29" cy="321.3906" fill="#FEFECE" filter="url(#f7x59jqc7r9x8)" rx="8" ry="8" style="stroke: #A80036; stroke-width: 2.0;"/><path d="M29,329.3906 L29,356.3906 M16,337.3906 L42,337.3906 M29,356.3906 L16,371.3906 M29,356.3906 L42,371.3906 " fill="none" filter="url(#f7x59jqc7r9x8)" style="stroke: #A80036; stroke-width: 2.0;"/><rect fill="#FEFECE" filter="url(#f7x59jqc7r9x8)" height="30.2969" style="stroke: #A80036; stroke-width: 1.5;" width="126" x="60" y="51"/><text fill="#000000" font-family="sans-serif" font-size="14" lengthAdjust="spacingAndGlyphs" textLength="112" x="67" y="70.9951">mqtt_door_topic</text><rect fill="#FEFECE" filter="url(#f7x59jqc7r9x8)" height="30.2969" style="stroke: #A80036; stroke-width: 1.5;" width="126" x="60" y="295.0938"/><text fill="#000000" font-family="sans-serif" font-size="14" lengthAdjust="spacingAndGlyphs" textLength="112" x="67" y="315.0889">mqtt_door_topic</text><rect fill="#FEFECE" filter="url(#f7x59jqc7r9x8)" height="30.2969" style="stroke: #A80036; stroke-width: 1.5;" width="46" x="283" y="51"/><text fill="#000000" font-family="sans-serif" font-size="14" lengthAdjust="spacingAndGlyphs" textLength="32" x="290" y="70.9951">door</text><rect fill="#FEFECE" filter="url(#f7x59jqc7r9x8)" height="30.2969" style="stroke: #A80036; stroke-width: 1.5;" width="46" x="283" y="295.0938"/><text fill="#000000" font-family="sans-serif" font-size="14" lengthAdjust="spacingAndGlyphs" textLength="32" x="290" y="315.0889">door</text><polygon fill="#A80036" points="113,113.4297,123,117.4297,113,121.4297,117,117.4297" style="stroke: #A80036; stroke-width: 1.0;"/><line style="stroke: #A80036; stroke-width: 1.0;" x1="29" x2="119" y1="117.4297" y2="117.4297"/><text fill="#000000" font-family="sans-serif" font-size="13" lengthAdjust="spacingAndGlyphs" textLength="66" x="36" y="112.3638">trigger: on</text><polygon fill="#A80036" points="296,142.5625,306,146.5625,296,150.5625,300,146.5625" style="stroke: #A80036; stroke-width: 1.0;"/><line style="stroke: #A80036; stroke-width: 1.0;" x1="125" x2="302" y1="146.5625" y2="146.5625"/><text fill="#000000" font-family="sans-serif" font-size="13" lengthAdjust="spacingAndGlyphs" textLength="66" x="132" y="141.4966">trigger: on</text><polygon fill="#A80036" points="136,171.6953,126,175.6953,136,179.6953,132,175.6953" style="stroke: #A80036; stroke-width: 1.0;"/><line style="stroke: #A80036; stroke-width: 1.0;" x1="130" x2="307" y1="175.6953" y2="175.6953"/><text fill="#000000" font-family="sans-serif" font-size="13" lengthAdjust="spacingAndGlyphs" textLength="151" x="142" y="170.6294">status: active [opening]</text><path d="M273,190.6953 L350,190.6953 L350,197.6953 L340,207.6953 L273,207.6953 L273,190.6953 " fill="#EEEEEE" style="stroke: #000000; stroke-width: 1.0;"/><rect fill="none" height="59.2656" style="stroke: #000000; stroke-width: 2.0;" width="218" x="273" y="190.6953"/><text fill="#000000" font-family="sans-serif" font-size="13" font-weight="bold" lengthAdjust="spacingAndGlyphs" textLength="32" x="288" y="203.7622">loop</text><a href="on" target="_top" xlink:actuate="onRequest" xlink:show="new" xlink:title="on" xlink:type="simple"><text fill="#0000FF" font-family="sans-serif" font-size="11" font-weight="bold" lengthAdjust="spacingAndGlyphs" text-decoration="underline" textLength="121" x="365" y="202.9058">door is not opened</text></a><line style="stroke: #A80036; stroke-width: 1.0;" x1="308" x2="350" y1="228.9609" y2="228.9609"/><line style="stroke: #A80036; stroke-width: 1.0;" x1="350" x2="350" y1="228.9609" y2="241.9609"/><line style="stroke: #A80036; stroke-width: 1.0;" x1="309" x2="350" y1="241.9609" y2="241.9609"/><polygon fill="#A80036" points="319,237.9609,309,241.9609,319,245.9609,315,241.9609" style="stroke: #A80036; stroke-width: 1.0;"/><text fill="#000000" font-family="sans-serif" font-size="13" lengthAdjust="spacingAndGlyphs" textLength="51" x="315" y="223.895">opening</text><polygon fill="#A80036" points="136,274.0938,126,278.0938,136,282.0938,132,278.0938" style="stroke: #A80036; stroke-width: 1.0;"/><line style="stroke: #A80036; stroke-width: 1.0;" x1="130" x2="307" y1="278.0938" y2="278.0938"/><text fill="#000000" font-family="sans-serif" font-size="13" lengthAdjust="spacingAndGlyphs" textLength="159" x="142" y="273.0278">status: inactive [opened]</text><!--
@startuml communication_format_example
actor Actor
participant mqtt_door_topic
participant door

Actor -> mqtt_door_topic: trigger: on
mqtt_door_topic -> door: trigger: on
door -> mqtt_door_topic: status: active [opening]
loop [on door is not opened]
    door -> door: opening
end

door -> mqtt_door_topic: status: inactive [opened]
@enduml

PlantUML version 1.2019.09(Mon Aug 26 18:19:51 CEST 2019)
(GPL source distribution)
Java Runtime: OpenJDK Runtime Environment
JVM: OpenJDK 64-Bit Server VM
Java Version: 11.0.5+10-post-Ubuntu-0ubuntu1.118.04
Operating System: Linux
OS Version: 5.0.0-37-generic
Default Encoding: UTF-8
Language: en
Country: US
--></g></svg>