<?xml version="1.0" encoding="UTF-8" standalone="no"?><svg xmlns="http://www.w3.org/2000/svg" xmlns:xlink="http://www.w3.org/1999/xlink" contentScriptType="application/ecmascript" contentStyleType="text/css" height="898px" preserveAspectRatio="none" style="width:988px;height:898px;" version="1.1" viewBox="0 0 988 898" width="988px" zoomAndPan="magnify"><defs><filter height="300%" id="fal80rtjj1tls" width="300%" x="-1" y="-1"><feGaussianBlur result="blurOut" stdDeviation="2.0"/><feColorMatrix in="blurOut" result="blurOut2" type="matrix" values="0 0 0 0 0 0 0 0 0 0 0 0 0 0 0 0 0 0 .4 0"/><feOffset dx="4.0" dy="4.0" in="blurOut2" result="blurOut3"/><feBlend in="SourceGraphic" in2="blurOut3" mode="normal"/></filter></defs><g><!--cluster Operator room--><polygon fill="#FFFFFF" filter="url(#fal80rtjj1tls)" points="561.5,16,684.5,16,691.5,38.2969,694.5,38.2969,694.5,87,561.5,87,561.5,16" style="stroke: #000000; stroke-width: 1.5;"/><line style="stroke: #000000; stroke-width: 1.5;" x1="561.5" x2="691.5" y1="38.2969" y2="38.2969"/><text fill="#000000" font-family="sans-serif" font-size="14" font-weight="bold" lengthAdjust="spacingAndGlyphs" textLength="117" x="565.5" y="30.9951">Operator room</text><!--cluster MC [1 .. M]--><polygon fill="#FFFFFF" filter="url(#fal80rtjj1tls)" points="708.5,16,798.5,16,805.5,38.2969,966.5,38.2969,966.5,87,708.5,87,708.5,16" style="stroke: #000000; stroke-width: 1.5;"/><line style="stroke: #000000; stroke-width: 1.5;" x1="708.5" x2="805.5" y1="38.2969" y2="38.2969"/><text fill="#000000" font-family="sans-serif" font-size="14" font-weight="bold" lengthAdjust="spacingAndGlyphs" textLength="84" x="712.5" y="30.9951">MC [1 .. M]</text><!--cluster Operator System--><polygon fill="#FFFFFF" filter="url(#fal80rtjj1tls)" points="587.5,157,727.5,157,734.5,179.2969,920.5,179.2969,920.5,881,587.5,881,587.5,157" style="stroke: #000000; stroke-width: 1.5;"/><line style="stroke: #000000; stroke-width: 1.5;" x1="587.5" x2="734.5" y1="179.2969" y2="179.2969"/><text fill="#000000" font-family="sans-serif" font-size="14" font-weight="bold" lengthAdjust="spacingAndGlyphs" textLength="134" x="591.5" y="171.9951">Operator System</text><!--cluster ESP cams [1 .. N]--><polygon fill="#FFFFFF" filter="url(#fal80rtjj1tls)" points="210.5,325,349.5,325,356.5,347.2969,579.5,347.2969,579.5,784,210.5,784,210.5,325" style="stroke: #000000; stroke-width: 1.5;"/><line style="stroke: #000000; stroke-width: 1.5;" x1="210.5" x2="356.5" y1="347.2969" y2="347.2969"/><text fill="#000000" font-family="sans-serif" font-size="14" font-weight="bold" lengthAdjust="spacingAndGlyphs" textLength="133" x="214.5" y="339.9951">ESP cams [1 .. N]</text><!--entity Browser--><rect fill="#FEFECE" filter="url(#fal80rtjj1tls)" height="36.2969" style="stroke: #A80036; stroke-width: 1.5;" width="77" x="604" y="43"/><rect fill="#FEFECE" height="5" style="stroke: #A80036; stroke-width: 1.5;" width="10" x="599" y="48"/><rect fill="#FEFECE" height="5" style="stroke: #A80036; stroke-width: 1.5;" width="10" x="599" y="69.2969"/><text fill="#000000" font-family="sans-serif" font-size="14" lengthAdjust="spacingAndGlyphs" textLength="57" x="614" y="65.9951">Browser</text><!--entity MC 1--><rect fill="#FEFECE" filter="url(#fal80rtjj1tls)" height="36.2969" style="stroke: #A80036; stroke-width: 1.5;" width="55" x="717" y="43"/><rect fill="#FEFECE" height="5" style="stroke: #A80036; stroke-width: 1.5;" width="10" x="712" y="48"/><rect fill="#FEFECE" height="5" style="stroke: #A80036; stroke-width: 1.5;" width="10" x="712" y="69.2969"/><text fill="#000000" font-family="sans-serif" font-size="14" lengthAdjust="spacingAndGlyphs" textLength="35" x="727" y="65.9951">MC 1</text><!--entity MC ...--><rect fill="#FEFECE" filter="url(#fal80rtjj1tls)" height="36.2969" style="stroke: #A80036; stroke-width: 1.5;" width="58" x="807.5" y="43"/><rect fill="#FEFECE" height="5" style="stroke: #A80036; stroke-width: 1.5;" width="10" x="802.5" y="48"/><rect fill="#FEFECE" height="5" style="stroke: #A80036; stroke-width: 1.5;" width="10" x="802.5" y="69.2969"/><text fill="#000000" font-family="sans-serif" font-size="14" lengthAdjust="spacingAndGlyphs" textLength="38" x="817.5" y="65.9951">MC ...</text><!--entity MC M--><rect fill="#FEFECE" filter="url(#fal80rtjj1tls)" height="36.2969" style="stroke: #A80036; stroke-width: 1.5;" width="58" x="900.5" y="43"/><rect fill="#FEFECE" height="5" style="stroke: #A80036; stroke-width: 1.5;" width="10" x="895.5" y="48"/><rect fill="#FEFECE" height="5" style="stroke: #A80036; stroke-width: 1.5;" width="10" x="895.5" y="69.2969"/><text fill="#000000" font-family="sans-serif" font-size="14" lengthAdjust="spacingAndGlyphs" textLength="38" x="910.5" y="65.9951">MC M</text><!--entity MQTT1--><ellipse cx="772.5" cy="855" fill="#FEFECE" filter="url(#fal80rtjj1tls)" rx="8" ry="8" style="stroke: #A80036; stroke-width: 2.0;"/><text fill="#000000" font-family="sans-serif" font-size="14" lengthAdjust="spacingAndGlyphs" textLength="41" x="752" y="884.9951">MQTT</text><!--entity Game workflow--><rect fill="#FEFECE" filter="url(#fal80rtjj1tls)" height="36.2969" style="stroke: #A80036; stroke-width: 1.5;" width="125" x="603" y="837"/><rect fill="#FEFECE" height="5" style="stroke: #A80036; stroke-width: 1.5;" width="10" x="598" y="842"/><rect fill="#FEFECE" height="5" style="stroke: #A80036; stroke-width: 1.5;" width="10" x="598" y="863.2969"/><text fill="#000000" font-family="sans-serif" font-size="14" lengthAdjust="spacingAndGlyphs" textLength="105" x="613" y="859.9951">Game workflow</text><!--entity MQTT--><ellipse cx="836.5" cy="213" fill="#FEFECE" filter="url(#fal80rtjj1tls)" rx="8" ry="8" style="stroke: #A80036; stroke-width: 2.0;"/><text fill="#000000" font-family="sans-serif" font-size="14" lengthAdjust="spacingAndGlyphs" textLength="41" x="816" y="242.9951">MQTT</text><!--entity MC communication--><rect fill="#FEFECE" filter="url(#fal80rtjj1tls)" height="36.2969" style="stroke: #A80036; stroke-width: 1.5;" width="152" x="760.5" y="605"/><rect fill="#FEFECE" height="5" style="stroke: #A80036; stroke-width: 1.5;" width="10" x="755.5" y="610"/><rect fill="#FEFECE" height="5" style="stroke: #A80036; stroke-width: 1.5;" width="10" x="755.5" y="631.2969"/><text fill="#000000" font-family="sans-serif" font-size="14" lengthAdjust="spacingAndGlyphs" textLength="132" x="770.5" y="627.9951">MC communication</text><!--entity HTTP--><ellipse cx="642.5" cy="213" fill="#FEFECE" filter="url(#fal80rtjj1tls)" rx="8" ry="8" style="stroke: #A80036; stroke-width: 2.0;"/><text fill="#000000" font-family="sans-serif" font-size="14" lengthAdjust="spacingAndGlyphs" textLength="37" x="624" y="242.9951">HTTP</text><!--entity UI control board--><rect fill="#FEFECE" filter="url(#fal80rtjj1tls)" height="36.2969" style="stroke: #A80036; stroke-width: 1.5;" width="129" x="596" y="605"/><rect fill="#FEFECE" height="5" style="stroke: #A80036; stroke-width: 1.5;" width="10" x="591" y="610"/><rect fill="#FEFECE" height="5" style="stroke: #A80036; stroke-width: 1.5;" width="10" x="591" y="631.2969"/><text fill="#000000" font-family="sans-serif" font-size="14" lengthAdjust="spacingAndGlyphs" textLength="109" x="606" y="627.9951">UI control board</text><!--entity HTTP1--><ellipse cx="452.5" cy="747" fill="#FEFECE" filter="url(#fal80rtjj1tls)" rx="8" ry="8" style="stroke: #A80036; stroke-width: 2.0;"/><text fill="#000000" font-family="sans-serif" font-size="14" lengthAdjust="spacingAndGlyphs" textLength="37" x="434" y="776.9951">HTTP</text><!--entity ESP cam N--><rect fill="#FEFECE" filter="url(#fal80rtjj1tls)" height="36.2969" style="stroke: #A80036; stroke-width: 1.5;" width="94" x="477.5" y="352"/><rect fill="#FEFECE" height="5" style="stroke: #A80036; stroke-width: 1.5;" width="10" x="472.5" y="357"/><rect fill="#FEFECE" height="5" style="stroke: #A80036; stroke-width: 1.5;" width="10" x="472.5" y="378.2969"/><text fill="#000000" font-family="sans-serif" font-size="14" lengthAdjust="spacingAndGlyphs" textLength="74" x="487.5" y="374.9951">ESP cam N</text><!--entity ESP cam ...--><rect fill="#FEFECE" filter="url(#fal80rtjj1tls)" height="36.2969" style="stroke: #A80036; stroke-width: 1.5;" width="96" x="346.5" y="352"/><rect fill="#FEFECE" height="5" style="stroke: #A80036; stroke-width: 1.5;" width="10" x="341.5" y="357"/><rect fill="#FEFECE" height="5" style="stroke: #A80036; stroke-width: 1.5;" width="10" x="341.5" y="378.2969"/><text fill="#000000" font-family="sans-serif" font-size="14" lengthAdjust="spacingAndGlyphs" textLength="76" x="356.5" y="374.9951">ESP cam ...</text><!--entity ESP cam 1--><rect fill="#FEFECE" filter="url(#fal80rtjj1tls)" height="36.2969" style="stroke: #A80036; stroke-width: 1.5;" width="93" x="218" y="352"/><rect fill="#FEFECE" height="5" style="stroke: #A80036; stroke-width: 1.5;" width="10" x="213" y="357"/><rect fill="#FEFECE" height="5" style="stroke: #A80036; stroke-width: 1.5;" width="10" x="213" y="378.2969"/><text fill="#000000" font-family="sans-serif" font-size="14" lengthAdjust="spacingAndGlyphs" textLength="73" x="228" y="374.9951">ESP cam 1</text><path d="M6,140 L6,286.1953 L579,286.1953 L579,150 L569,140 L6,140 " fill="#FBFB77" filter="url(#fal80rtjj1tls)" style="stroke: #A80036; stroke-width: 1.0;"/><path d="M569,140 L569,150 L579,150 L569,140 " fill="#FBFB77" style="stroke: #A80036; stroke-width: 1.0;"/><text fill="#000000" font-family="sans-serif" font-size="13" lengthAdjust="spacingAndGlyphs" textLength="138" x="12" y="157.0669">Project requirements:</text><text fill="#000000" font-family="sans-serif" font-size="13" lengthAdjust="spacingAndGlyphs" textLength="119" x="12" y="172.1997">1) UI control board</text><text fill="#000000" font-family="sans-serif" font-size="13" lengthAdjust="spacingAndGlyphs" textLength="146" x="20" y="187.3325">(a) Camera integration</text><text fill="#000000" font-family="sans-serif" font-size="13" lengthAdjust="spacingAndGlyphs" textLength="165" x="20" y="202.4653">(b) Game state displaying</text><text fill="#000000" font-family="sans-serif" font-size="13" lengthAdjust="spacingAndGlyphs" textLength="353" x="20" y="217.5981">(c) UI for state controlling (ex. reset, start, step back…)</text><text fill="#000000" font-family="sans-serif" font-size="13" lengthAdjust="spacingAndGlyphs" textLength="250" x="12" y="232.731">2) Microcomputer (MC) communication</text><text fill="#000000" font-family="sans-serif" font-size="13" lengthAdjust="spacingAndGlyphs" textLength="544" x="20" y="247.8638">(a) Interface for inter mc communication (simple way to send message to other mcs)</text><text fill="#000000" font-family="sans-serif" font-size="13" lengthAdjust="spacingAndGlyphs" textLength="341" x="20" y="262.9966">(b) Interface for workflow feedback (ex. puzzle solved)</text><text fill="#000000" font-family="sans-serif" font-size="13" lengthAdjust="spacingAndGlyphs" textLength="232" x="12" y="278.1294">3) Implementation of game workflow</text><!--link GMN8 to Operator System--><path d="M408.3684,139.9708 C485.8655,101.0968 588.229,69.5075 670,113.5 C679.8216,118.784 686.9214,127.1992 692.0389,136.9535 C694.5977,141.8306 696.6609,147.0425 698.3209,152.365 C698.7359,153.6957 699.1257,155.0333 699.4918,156.3742 C699.5375,156.5419 699.5829,156.7095 699.6279,156.8773 " fill="none" id="GMN8-Operator System" style="stroke: #A80036; stroke-width: 1.0; stroke-dasharray: 7.0,7.0;"/><!--link Game workflow to MQTT1--><path d="M728.1953,855 C739.8484,855 751.5014,855 763.1545,855 " fill="none" id="Game workflow-MQTT1" style="stroke: #A80036; stroke-width: 1.0;"/><!--link MQTT to MC communication--><path d="M836.5,222.202 C836.5,246.4057 836.5,313.8507 836.5,370 C836.5,370 836.5,370 836.5,535.5 C836.5,559.5017 836.5,587.2069 836.5,604.9013 " fill="none" id="MQTT-MC communication" style="stroke: #A80036; stroke-width: 1.0;"/><text fill="#000000" font-family="sans-serif" font-size="13" lengthAdjust="spacingAndGlyphs" textLength="54" x="837.5" y="462.0669">provides</text><!--link HTTP to UI control board--><path d="M643.3959,222.1914 C645.6723,246.3697 651.5,313.7585 651.5,370 C651.5,370 651.5,370 651.5,535.5 C651.5,559.6284 654.9283,587.3038 657.5531,604.9569 " fill="none" id="HTTP-UI control board" style="stroke: #A80036; stroke-width: 1.0;"/><text fill="#000000" font-family="sans-serif" font-size="13" lengthAdjust="spacingAndGlyphs" textLength="54" x="652.5" y="462.0669">provides</text><!--link UI control board to MQTT1--><path d="M671.5116,645.8098 C694.5179,693.4656 747.0924,802.3699 765.7662,841.0513 " fill="none" id="UI control board-MQTT1" style="stroke: #A80036; stroke-width: 1.0; stroke-dasharray: 7.0,7.0;"/><polygon fill="#A80036" points="768.0707,845.8249,767.7599,835.9809,765.8968,841.3222,760.5556,839.4591,768.0707,845.8249" style="stroke: #A80036; stroke-width: 1.0;"/><polygon fill="#A80036" points="669.2885,641.2047,669.599,651.0487,671.4622,645.7075,676.8034,647.5707,669.2885,641.2047" style="stroke: #A80036; stroke-width: 1.0;"/><!--link MC communication to MQTT1--><path d="M830.1243,646.1118 C816.9874,693.7333 787.2349,801.5861 776.4763,840.5858 " fill="none" id="MC communication-MQTT1" style="stroke: #A80036; stroke-width: 1.0; stroke-dasharray: 7.0,7.0;"/><polygon fill="#A80036" points="775.0311,845.8249,781.2805,838.2128,776.3608,841.005,773.5686,836.0852,775.0311,845.8249" style="stroke: #A80036; stroke-width: 1.0;"/><polygon fill="#A80036" points="831.478,641.2047,825.2286,648.8168,830.1483,646.0246,832.9405,650.9444,831.478,641.2047" style="stroke: #A80036; stroke-width: 1.0;"/><text fill="#000000" font-family="sans-serif" font-size="13" lengthAdjust="spacingAndGlyphs" textLength="130" x="810.5" y="751.5669">standardized format</text><!--link ESP cam N to HTTP1--><path d="M521.5531,388.0431 C518.9283,405.6962 515.5,433.3716 515.5,457.5 C515.5,457.5 515.5,457.5 515.5,623 C515.5,670.5694 478.1928,718.3567 460.9965,737.8569 " fill="none" id="ESP cam N-HTTP1" style="stroke: #A80036; stroke-width: 1.0;"/><text fill="#000000" font-family="sans-serif" font-size="13" lengthAdjust="spacingAndGlyphs" textLength="54" x="516.5" y="540.0669">provides</text><!--link ESP cam ... to HTTP1--><path d="M392.8628,388.0815 C391.4046,405.7632 389.5,433.4591 389.5,457.5 C389.5,457.5 389.5,457.5 389.5,623 C389.5,670.5694 426.8072,718.3567 444.0035,737.8569 " fill="none" id="ESP cam ...-HTTP1" style="stroke: #A80036; stroke-width: 1.0;"/><text fill="#000000" font-family="sans-serif" font-size="13" lengthAdjust="spacingAndGlyphs" textLength="54" x="390.5" y="540.0669">provides</text><!--link ESP cam 1 to HTTP1--><path d="M264.1726,388.0981 C263.8809,405.7919 263.5,433.4967 263.5,457.5 C263.5,457.5 263.5,457.5 263.5,623 C263.5,710.1221 405.6307,739.3916 443.3841,745.6295 " fill="none" id="ESP cam 1-HTTP1" style="stroke: #A80036; stroke-width: 1.0;"/><text fill="#000000" font-family="sans-serif" font-size="13" lengthAdjust="spacingAndGlyphs" textLength="54" x="264.5" y="540.0669">provides</text><!--reverse link UI control board to HTTP1--><path d="M625.9278,643.6103 C576.967,672.7985 490.2173,724.5147 461.7979,741.457 " fill="none" id="UI control board&lt;-HTTP1" style="stroke: #A80036; stroke-width: 1.0; stroke-dasharray: 7.0,7.0;"/><polygon fill="#A80036" points="630.255,641.0307,620.4762,642.2037,625.9603,643.5911,624.5729,649.0752,630.255,641.0307" style="stroke: #A80036; stroke-width: 1.0;"/><text fill="#000000" font-family="sans-serif" font-size="13" lengthAdjust="spacingAndGlyphs" textLength="41" x="575.5" y="684.0669">iframe</text><!--link Browser to HTTP--><path d="M642.5,84.2532 C642.5,116.0713 642.5,172.2268 642.5,198.5811 " fill="none" id="Browser-HTTP" style="stroke: #A80036; stroke-width: 1.0; stroke-dasharray: 7.0,7.0;"/><polygon fill="#A80036" points="642.5,203.733,646.5,194.733,642.5,198.733,638.5,194.733,642.5,203.733" style="stroke: #A80036; stroke-width: 1.0;"/><polygon fill="#A80036" points="642.5,79.0333,638.5,88.0333,642.5,84.0333,646.5,88.0333,642.5,79.0333" style="stroke: #A80036; stroke-width: 1.0;"/><!--link MC 1 to MQTT--><path d="M758.0684,83.4174 C777.3811,115.3253 812.218,172.8819 828.1451,199.1963 " fill="none" id="MC 1-MQTT" style="stroke: #A80036; stroke-width: 1.0; stroke-dasharray: 7.0,7.0;"/><polygon fill="#A80036" points="830.891,203.733,829.6529,193.9623,828.302,199.4555,822.8088,198.1046,830.891,203.733" style="stroke: #A80036; stroke-width: 1.0;"/><polygon fill="#A80036" points="755.4149,79.0333,756.6533,88.804,758.004,83.3108,763.4972,84.6615,755.4149,79.0333" style="stroke: #A80036; stroke-width: 1.0;"/><!--link MC ... to MQTT--><path d="M836.5,84.2532 C836.5,116.0713 836.5,172.2268 836.5,198.5811 " fill="none" id="MC ...-MQTT" style="stroke: #A80036; stroke-width: 1.0; stroke-dasharray: 7.0,7.0;"/><polygon fill="#A80036" points="836.5,203.733,840.5,194.733,836.5,198.733,832.5,194.733,836.5,203.733" style="stroke: #A80036; stroke-width: 1.0;"/><polygon fill="#A80036" points="836.5,79.0333,832.5,88.0333,836.5,84.0333,840.5,88.0333,836.5,79.0333" style="stroke: #A80036; stroke-width: 1.0;"/><!--link MC M to MQTT--><path d="M915.7841,83.4174 C896.2615,115.3253 861.0459,172.8819 844.9457,199.1963 " fill="none" id="MC M-MQTT" style="stroke: #A80036; stroke-width: 1.0; stroke-dasharray: 7.0,7.0;"/><polygon fill="#A80036" points="842.17,203.733,850.2792,198.1437,844.7796,199.468,843.4552,193.9684,842.17,203.733" style="stroke: #A80036; stroke-width: 1.0;"/><polygon fill="#A80036" points="918.4665,79.0333,910.3574,84.6228,915.857,83.2983,917.1814,88.798,918.4665,79.0333" style="stroke: #A80036; stroke-width: 1.0;"/><!--
@startuml general_architecture
note left of "Operator System"
Project requirements:
1) UI control board
  (a) Camera integration
  (b) Game state displaying
  (c) UI for state controlling (ex. reset, start, step back…)
2) Microcomputer (MC) communication
  (a) Interface for inter mc communication (simple way to send message to other mcs)
  (b) Interface for workflow feedback (ex. puzzle solved)
3) Implementation of game workflow
end note

package "Operator room" {
    [Browser]
}

package "MC [1 .. M]" {
    [MC 1]
    [MC ...]
    [MC M]
}

package "Operator System" {
    interface MQTT as MQTT1
    [Game workflow] - MQTT1

    interface MQTT as MQTT
    [MC communication] -up- - MQTT: provides

    interface HTTP as HTTP
    [UI control board] -up- - HTTP: provides

    [UI control board] <..> MQTT1
    [MC communication] <..> MQTT1: standardized format
}

package "ESP cams [1 .. N]" {
    interface HTTP as HTTP1
    
    [ESP cam N] -down- - HTTP1: provides
    [ESP cam ...] -down- - HTTP1: provides
    [ESP cam 1] -down- - HTTP1: provides
}

[UI control board] <.. HTTP1: iframe
[Browser] <..> HTTP

[MC 1] <..> MQTT
[MC ...] <..> MQTT
[MC M] <..> MQTT

@enduml

PlantUML version 1.2019.09(Mon Aug 26 18:19:51 CEST 2019)
(GPL source distribution)
Java Runtime: OpenJDK Runtime Environment
JVM: OpenJDK 64-Bit Server VM
Java Version: 11.0.6+10-post-Ubuntu-1ubuntu118.04.1
Operating System: Linux
OS Version: 5.3.0-28-generic
Default Encoding: UTF-8
Language: en
Country: US
--></g></svg>