<?xml version="1.0" encoding="UTF-8" standalone="no"?><svg xmlns="http://www.w3.org/2000/svg" xmlns:xlink="http://www.w3.org/1999/xlink" contentScriptType="application/ecmascript" contentStyleType="text/css" height="1159px" preserveAspectRatio="none" style="width:603px;height:1159px;" version="1.1" viewBox="0 0 603 1159" width="603px" zoomAndPan="magnify"><defs><filter height="300%" id="farprltme7k7c" width="300%" x="-1" y="-1"><feGaussianBlur result="blurOut" stdDeviation="2.0"/><feColorMatrix in="blurOut" result="blurOut2" type="matrix" values="0 0 0 0 0 0 0 0 0 0 0 0 0 0 0 0 0 0 .4 0"/><feOffset dx="4.0" dy="4.0" in="blurOut2" result="blurOut3"/><feBlend in="SourceGraphic" in2="blurOut3" mode="normal"/></filter></defs><g><rect fill="#FFFFFF" filter="url(#farprltme7k7c)" height="446.2031" style="stroke: #000000; stroke-width: 2.0;" width="438" x="143" y="304.9609"/><rect fill="#FFFFFF" filter="url(#farprltme7k7c)" height="90.2031" style="stroke: #000000; stroke-width: 2.0;" width="297.5" x="163" y="371.2266"/><rect fill="#FFFFFF" height="43.9375" style="stroke: none; stroke-width: 1.0;" width="297.5" x="163" y="417.4922"/><rect fill="#FFFFFF" height="282.7344" style="stroke: none; stroke-width: 1.0;" width="438" x="143" y="468.4297"/><rect fill="#FFFFFF" filter="url(#farprltme7k7c)" height="133.3984" style="stroke: #000000; stroke-width: 2.0;" width="317.5" x="153" y="506.5625"/><rect fill="#FFFFFF" filter="url(#farprltme7k7c)" height="46.2656" style="stroke: #000000; stroke-width: 2.0;" width="297.5" x="163" y="558.6953"/><rect fill="#FFFFFF" filter="url(#farprltme7k7c)" height="90.2031" style="stroke: #000000; stroke-width: 2.0;" width="341" x="163" y="653.9609"/><rect fill="#FFFFFF" height="43.9375" style="stroke: none; stroke-width: 1.0;" width="341" x="163" y="700.2266"/><rect fill="#FFFFFF" filter="url(#farprltme7k7c)" height="90.2031" style="stroke: #000000; stroke-width: 2.0;" width="297.5" x="163" y="964.6953"/><rect fill="#FFFFFF" height="43.9375" style="stroke: none; stroke-width: 1.0;" width="297.5" x="163" y="1010.9609"/><line style="stroke: #A80036; stroke-width: 1.0;" x1="29" x2="29" y1="86.2969" y2="168.5625"/><line style="stroke: #A80036; stroke-width: 1.0; stroke-dasharray: 1.0,4.0;" x1="29" x2="29" y1="168.5625" y2="196.5625"/><line style="stroke: #A80036; stroke-width: 1.0;" x1="29" x2="29" y1="196.5625" y2="523.6953"/><line style="stroke: #A80036; stroke-width: 1.0; stroke-dasharray: 1.0,4.0;" x1="29" x2="29" y1="523.6953" y2="551.6953"/><line style="stroke: #A80036; stroke-width: 1.0;" x1="29" x2="29" y1="551.6953" y2="611.9609"/><line style="stroke: #A80036; stroke-width: 1.0; stroke-dasharray: 1.0,4.0;" x1="29" x2="29" y1="611.9609" y2="639.9609"/><line style="stroke: #A80036; stroke-width: 1.0;" x1="29" x2="29" y1="639.9609" y2="859.5625"/><line style="stroke: #A80036; stroke-width: 1.0; stroke-dasharray: 1.0,4.0;" x1="29" x2="29" y1="859.5625" y2="887.5625"/><line style="stroke: #A80036; stroke-width: 1.0;" x1="29" x2="29" y1="887.5625" y2="929.6953"/><line style="stroke: #A80036; stroke-width: 1.0; stroke-dasharray: 1.0,4.0;" x1="29" x2="29" y1="929.6953" y2="957.6953"/><line style="stroke: #A80036; stroke-width: 1.0;" x1="29" x2="29" y1="957.6953" y2="1071.8984"/><line style="stroke: #A80036; stroke-width: 1.0;" x1="198" x2="198" y1="86.2969" y2="168.5625"/><line style="stroke: #A80036; stroke-width: 1.0; stroke-dasharray: 1.0,4.0;" x1="198" x2="198" y1="168.5625" y2="196.5625"/><line style="stroke: #A80036; stroke-width: 1.0;" x1="198" x2="198" y1="196.5625" y2="523.6953"/><line style="stroke: #A80036; stroke-width: 1.0; stroke-dasharray: 1.0,4.0;" x1="198" x2="198" y1="523.6953" y2="551.6953"/><line style="stroke: #A80036; stroke-width: 1.0;" x1="198" x2="198" y1="551.6953" y2="611.9609"/><line style="stroke: #A80036; stroke-width: 1.0; stroke-dasharray: 1.0,4.0;" x1="198" x2="198" y1="611.9609" y2="639.9609"/><line style="stroke: #A80036; stroke-width: 1.0;" x1="198" x2="198" y1="639.9609" y2="859.5625"/><line style="stroke: #A80036; stroke-width: 1.0; stroke-dasharray: 1.0,4.0;" x1="198" x2="198" y1="859.5625" y2="887.5625"/><line style="stroke: #A80036; stroke-width: 1.0;" x1="198" x2="198" y1="887.5625" y2="929.6953"/><line style="stroke: #A80036; stroke-width: 1.0; stroke-dasharray: 1.0,4.0;" x1="198" x2="198" y1="929.6953" y2="957.6953"/><line style="stroke: #A80036; stroke-width: 1.0;" x1="198" x2="198" y1="957.6953" y2="1071.8984"/><line style="stroke: #A80036; stroke-width: 1.0;" x1="431.5" x2="431.5" y1="86.2969" y2="168.5625"/><line style="stroke: #A80036; stroke-width: 1.0; stroke-dasharray: 1.0,4.0;" x1="431.5" x2="431.5" y1="168.5625" y2="196.5625"/><line style="stroke: #A80036; stroke-width: 1.0;" x1="431.5" x2="431.5" y1="196.5625" y2="523.6953"/><line style="stroke: #A80036; stroke-width: 1.0; stroke-dasharray: 1.0,4.0;" x1="431.5" x2="431.5" y1="523.6953" y2="551.6953"/><line style="stroke: #A80036; stroke-width: 1.0;" x1="431.5" x2="431.5" y1="551.6953" y2="611.9609"/><line style="stroke: #A80036; stroke-width: 1.0; stroke-dasharray: 1.0,4.0;" x1="431.5" x2="431.5" y1="611.9609" y2="639.9609"/><line style="stroke: #A80036; stroke-width: 1.0;" x1="431.5" x2="431.5" y1="639.9609" y2="859.5625"/><line style="stroke: #A80036; stroke-width: 1.0; stroke-dasharray: 1.0,4.0;" x1="431.5" x2="431.5" y1="859.5625" y2="887.5625"/><line style="stroke: #A80036; stroke-width: 1.0;" x1="431.5" x2="431.5" y1="887.5625" y2="929.6953"/><line style="stroke: #A80036; stroke-width: 1.0; stroke-dasharray: 1.0,4.0;" x1="431.5" x2="431.5" y1="929.6953" y2="957.6953"/><line style="stroke: #A80036; stroke-width: 1.0;" x1="431.5" x2="431.5" y1="957.6953" y2="1071.8984"/><text fill="#000000" font-family="sans-serif" font-size="14" lengthAdjust="spacingAndGlyphs" textLength="36" x="8" y="82.9951">Actor</text><ellipse cx="29" cy="13" fill="#FEFECE" filter="url(#farprltme7k7c)" rx="8" ry="8" style="stroke: #A80036; stroke-width: 2.0;"/><path d="M29,21 L29,48 M16,29 L42,29 M29,48 L16,63 M29,48 L42,63 " fill="none" filter="url(#farprltme7k7c)" style="stroke: #A80036; stroke-width: 2.0;"/><text fill="#000000" font-family="sans-serif" font-size="14" lengthAdjust="spacingAndGlyphs" textLength="36" x="8" y="1083.8936">Actor</text><ellipse cx="29" cy="1097.1953" fill="#FEFECE" filter="url(#farprltme7k7c)" rx="8" ry="8" style="stroke: #A80036; stroke-width: 2.0;"/><path d="M29,1105.1953 L29,1132.1953 M16,1113.1953 L42,1113.1953 M29,1132.1953 L16,1147.1953 M29,1132.1953 L42,1147.1953 " fill="none" filter="url(#farprltme7k7c)" style="stroke: #A80036; stroke-width: 2.0;"/><rect fill="#FEFECE" filter="url(#farprltme7k7c)" height="30.2969" style="stroke: #A80036; stroke-width: 1.5;" width="46" x="173" y="51"/><text fill="#000000" font-family="sans-serif" font-size="14" lengthAdjust="spacingAndGlyphs" textLength="32" x="180" y="70.9951">mqtt</text><rect fill="#FEFECE" filter="url(#farprltme7k7c)" height="30.2969" style="stroke: #A80036; stroke-width: 1.5;" width="46" x="173" y="1070.8984"/><text fill="#000000" font-family="sans-serif" font-size="14" lengthAdjust="spacingAndGlyphs" textLength="32" x="180" y="1090.8936">mqtt</text><rect fill="#FEFECE" filter="url(#farprltme7k7c)" height="30.2969" style="stroke: #A80036; stroke-width: 1.5;" width="33" x="413.5" y="51"/><text fill="#000000" font-family="sans-serif" font-size="14" lengthAdjust="spacingAndGlyphs" textLength="19" x="420.5" y="70.9951">μC</text><rect fill="#FEFECE" filter="url(#farprltme7k7c)" height="30.2969" style="stroke: #A80036; stroke-width: 1.5;" width="33" x="413.5" y="1070.8984"/><text fill="#000000" font-family="sans-serif" font-size="14" lengthAdjust="spacingAndGlyphs" textLength="19" x="420.5" y="1090.8936">μC</text><rect fill="#EEEEEE" filter="url(#farprltme7k7c)" height="3" style="stroke: #EEEEEE; stroke-width: 1.0;" width="588" x="3" y="116.8633"/><line style="stroke: #000000; stroke-width: 1.0;" x1="3" x2="591" y1="116.8633" y2="116.8633"/><line style="stroke: #000000; stroke-width: 1.0;" x1="3" x2="591" y1="119.8633" y2="119.8633"/><rect fill="#EEEEEE" filter="url(#farprltme7k7c)" height="23.1328" style="stroke: #000000; stroke-width: 2.0;" width="42" x="276" y="106.2969"/><text fill="#000000" font-family="sans-serif" font-size="13" font-weight="bold" lengthAdjust="spacingAndGlyphs" textLength="23" x="282" y="122.3638">Init</text><polygon fill="#A80036" points="209,156.5625,199,160.5625,209,164.5625,205,160.5625" style="stroke: #A80036; stroke-width: 1.0;"/><line style="stroke: #A80036; stroke-width: 1.0;" x1="203" x2="431" y1="160.5625" y2="160.5625"/><text fill="#000000" font-family="sans-serif" font-size="13" lengthAdjust="spacingAndGlyphs" textLength="49" x="215" y="155.4966">register</text><rect fill="#EEEEEE" filter="url(#farprltme7k7c)" height="3" style="stroke: #EEEEEE; stroke-width: 1.0;" width="588" x="3" y="217.1289"/><line style="stroke: #000000; stroke-width: 1.0;" x1="3" x2="591" y1="217.1289" y2="217.1289"/><line style="stroke: #000000; stroke-width: 1.0;" x1="3" x2="591" y1="220.1289" y2="220.1289"/><rect fill="#EEEEEE" filter="url(#farprltme7k7c)" height="23.1328" style="stroke: #000000; stroke-width: 2.0;" width="176" x="209" y="206.5625"/><text fill="#000000" font-family="sans-serif" font-size="13" font-weight="bold" lengthAdjust="spacingAndGlyphs" textLength="157" x="215" y="222.6294">Start μC functionality</text><polygon fill="#A80036" points="186,256.8281,196,260.8281,186,264.8281,190,260.8281" style="stroke: #A80036; stroke-width: 1.0;"/><line style="stroke: #A80036; stroke-width: 1.0;" x1="29" x2="192" y1="260.8281" y2="260.8281"/><text fill="#000000" font-family="sans-serif" font-size="13" lengthAdjust="spacingAndGlyphs" textLength="145" x="36" y="255.7622">trigger: on [new_state]</text><polygon fill="#A80036" points="420,285.9609,430,289.9609,420,293.9609,424,289.9609" style="stroke: #A80036; stroke-width: 1.0;"/><line style="stroke: #A80036; stroke-width: 1.0;" x1="198" x2="426" y1="289.9609" y2="289.9609"/><text fill="#000000" font-family="sans-serif" font-size="13" lengthAdjust="spacingAndGlyphs" textLength="145" x="205" y="284.895">trigger: on [new_state]</text><path d="M143,304.9609 L207,304.9609 L207,311.9609 L197,321.9609 L143,321.9609 L143,304.9609 " fill="#EEEEEE" style="stroke: #000000; stroke-width: 1.0;"/><rect fill="none" height="446.2031" style="stroke: #000000; stroke-width: 2.0;" width="438" x="143" y="304.9609"/><text fill="#000000" font-family="sans-serif" font-size="13" font-weight="bold" lengthAdjust="spacingAndGlyphs" textLength="19" x="158" y="318.0278">alt</text><text fill="#000000" font-family="sans-serif" font-size="11" font-weight="bold" lengthAdjust="spacingAndGlyphs" textLength="122" x="222" y="317.1714">[new_state != null]</text><line style="stroke: #A80036; stroke-width: 1.0;" x1="432" x2="474" y1="343.2266" y2="343.2266"/><line style="stroke: #A80036; stroke-width: 1.0;" x1="474" x2="474" y1="343.2266" y2="356.2266"/><line style="stroke: #A80036; stroke-width: 1.0;" x1="433" x2="474" y1="356.2266" y2="356.2266"/><polygon fill="#A80036" points="443,352.2266,433,356.2266,443,360.2266,439,356.2266" style="stroke: #A80036; stroke-width: 1.0;"/><text fill="#000000" font-family="sans-serif" font-size="13" lengthAdjust="spacingAndGlyphs" textLength="130" x="439" y="338.1606">setState(new_state)</text><path d="M163,371.2266 L227,371.2266 L227,378.2266 L217,388.2266 L163,388.2266 L163,371.2266 " fill="#EEEEEE" style="stroke: #000000; stroke-width: 1.0;"/><rect fill="none" height="90.2031" style="stroke: #000000; stroke-width: 2.0;" width="297.5" x="163" y="371.2266"/><text fill="#000000" font-family="sans-serif" font-size="13" font-weight="bold" lengthAdjust="spacingAndGlyphs" textLength="19" x="178" y="384.2935">alt</text><text fill="#000000" font-family="sans-serif" font-size="11" font-weight="bold" lengthAdjust="spacingAndGlyphs" textLength="173" x="242" y="383.437">[status change successful]</text><polygon fill="#A80036" points="209,405.4922,199,409.4922,209,413.4922,205,409.4922" style="stroke: #A80036; stroke-width: 1.0;"/><line style="stroke: #A80036; stroke-width: 1.0;" x1="203" x2="431" y1="409.4922" y2="409.4922"/><text fill="#000000" font-family="sans-serif" font-size="13" lengthAdjust="spacingAndGlyphs" textLength="193" x="215" y="404.4263">status: new_state [state_json]</text><line style="stroke: #000000; stroke-width: 1.0; stroke-dasharray: 2.0,2.0;" x1="163" x2="460.5" y1="418.4922" y2="418.4922"/><text fill="#000000" font-family="sans-serif" font-size="11" font-weight="bold" lengthAdjust="spacingAndGlyphs" textLength="142" x="168" y="428.7026">[status change failed]</text><polygon fill="#A80036" points="209,449.4297,199,453.4297,209,457.4297,205,453.4297" style="stroke: #A80036; stroke-width: 1.0;"/><line style="stroke: #A80036; stroke-width: 1.0;" x1="203" x2="431" y1="453.4297" y2="453.4297"/><text fill="#000000" font-family="sans-serif" font-size="13" lengthAdjust="spacingAndGlyphs" textLength="160" x="215" y="448.3638">status: failed [error_json]</text><line style="stroke: #000000; stroke-width: 1.0; stroke-dasharray: 2.0,2.0;" x1="143" x2="581" y1="469.4297" y2="469.4297"/><polygon fill="#A80036" points="209,487.5625,199,491.5625,209,495.5625,205,491.5625" style="stroke: #A80036; stroke-width: 1.0;"/><line style="stroke: #A80036; stroke-width: 1.0;" x1="203" x2="431" y1="491.5625" y2="491.5625"/><text fill="#000000" font-family="sans-serif" font-size="13" lengthAdjust="spacingAndGlyphs" textLength="166" x="215" y="486.4966">status: active [state_json]</text><path d="M153,506.5625 L230,506.5625 L230,513.5625 L220,523.5625 L153,523.5625 L153,506.5625 " fill="#EEEEEE" style="stroke: #000000; stroke-width: 1.0;"/><rect fill="none" height="133.3984" style="stroke: #000000; stroke-width: 2.0;" width="317.5" x="153" y="506.5625"/><text fill="#000000" font-family="sans-serif" font-size="13" font-weight="bold" lengthAdjust="spacingAndGlyphs" textLength="32" x="168" y="519.6294">loop</text><text fill="#000000" font-family="sans-serif" font-size="11" font-weight="bold" lengthAdjust="spacingAndGlyphs" textLength="188" x="245" y="518.7729">[μC functionality in progress]</text><path d="M163,558.6953 L330,558.6953 L330,565.6953 L320,575.6953 L163,575.6953 L163,558.6953 " fill="#EEEEEE" style="stroke: #000000; stroke-width: 1.0;"/><rect fill="none" height="46.2656" style="stroke: #000000; stroke-width: 2.0;" width="297.5" x="163" y="558.6953"/><text fill="#000000" font-family="sans-serif" font-size="13" font-weight="bold" lengthAdjust="spacingAndGlyphs" textLength="122" x="178" y="571.7622">On state change</text><polygon fill="#A80036" points="209,592.9609,199,596.9609,209,600.9609,205,596.9609" style="stroke: #A80036; stroke-width: 1.0;"/><line style="stroke: #A80036; stroke-width: 1.0;" x1="203" x2="431" y1="596.9609" y2="596.9609"/><text fill="#000000" font-family="sans-serif" font-size="13" lengthAdjust="spacingAndGlyphs" textLength="166" x="215" y="591.895">status: active [state_json]</text><path d="M163,653.9609 L227,653.9609 L227,660.9609 L217,670.9609 L163,670.9609 L163,653.9609 " fill="#EEEEEE" style="stroke: #000000; stroke-width: 1.0;"/><rect fill="none" height="90.2031" style="stroke: #000000; stroke-width: 2.0;" width="341" x="163" y="653.9609"/><text fill="#000000" font-family="sans-serif" font-size="13" font-weight="bold" lengthAdjust="spacingAndGlyphs" textLength="19" x="178" y="667.0278">alt</text><text fill="#000000" font-family="sans-serif" font-size="11" font-weight="bold" lengthAdjust="spacingAndGlyphs" textLength="257" x="242" y="666.1714">[task successfully executed and solved]</text><polygon fill="#A80036" points="209,688.2266,199,692.2266,209,696.2266,205,692.2266" style="stroke: #A80036; stroke-width: 1.0;"/><line style="stroke: #A80036; stroke-width: 1.0;" x1="203" x2="431" y1="692.2266" y2="692.2266"/><text fill="#000000" font-family="sans-serif" font-size="13" lengthAdjust="spacingAndGlyphs" textLength="202" x="215" y="687.1606">status: solved [final_state_json]</text><line style="stroke: #000000; stroke-width: 1.0; stroke-dasharray: 2.0,2.0;" x1="163" x2="504" y1="701.2266" y2="701.2266"/><text fill="#000000" font-family="sans-serif" font-size="11" font-weight="bold" lengthAdjust="spacingAndGlyphs" textLength="78" x="168" y="711.437">[task failed]</text><polygon fill="#A80036" points="209,732.1641,199,736.1641,209,740.1641,205,736.1641" style="stroke: #A80036; stroke-width: 1.0;"/><line style="stroke: #A80036; stroke-width: 1.0;" x1="203" x2="431" y1="736.1641" y2="736.1641"/><text fill="#000000" font-family="sans-serif" font-size="13" lengthAdjust="spacingAndGlyphs" textLength="160" x="215" y="731.0981">status: failed [error_json]</text><rect fill="#EEEEEE" filter="url(#farprltme7k7c)" height="3" style="stroke: #EEEEEE; stroke-width: 1.0;" width="588" x="3" y="778.7305"/><line style="stroke: #000000; stroke-width: 1.0;" x1="3" x2="591" y1="778.7305" y2="778.7305"/><line style="stroke: #000000; stroke-width: 1.0;" x1="3" x2="591" y1="781.7305" y2="781.7305"/><rect fill="#EEEEEE" filter="url(#farprltme7k7c)" height="23.1328" style="stroke: #000000; stroke-width: 2.0;" width="174" x="210" y="768.1641"/><text fill="#000000" font-family="sans-serif" font-size="13" font-weight="bold" lengthAdjust="spacingAndGlyphs" textLength="155" x="216" y="784.231">Stop μC functionality</text><polygon fill="#A80036" points="186,818.4297,196,822.4297,186,826.4297,190,822.4297" style="stroke: #A80036; stroke-width: 1.0;"/><line style="stroke: #A80036; stroke-width: 1.0;" x1="29" x2="192" y1="822.4297" y2="822.4297"/><text fill="#000000" font-family="sans-serif" font-size="13" lengthAdjust="spacingAndGlyphs" textLength="66" x="36" y="817.3638">trigger: off</text><polygon fill="#A80036" points="420,847.5625,430,851.5625,420,855.5625,424,851.5625" style="stroke: #A80036; stroke-width: 1.0;"/><line style="stroke: #A80036; stroke-width: 1.0;" x1="198" x2="426" y1="851.5625" y2="851.5625"/><text fill="#000000" font-family="sans-serif" font-size="13" lengthAdjust="spacingAndGlyphs" textLength="66" x="205" y="846.4966">trigger: off</text><line style="stroke: #A80036; stroke-width: 1.0;" x1="432" x2="474" y1="908.6953" y2="908.6953"/><line style="stroke: #A80036; stroke-width: 1.0;" x1="474" x2="474" y1="908.6953" y2="921.6953"/><line style="stroke: #A80036; stroke-width: 1.0;" x1="433" x2="474" y1="921.6953" y2="921.6953"/><polygon fill="#A80036" points="443,917.6953,433,921.6953,443,925.6953,439,921.6953" style="stroke: #A80036; stroke-width: 1.0;"/><text fill="#000000" font-family="sans-serif" font-size="13" lengthAdjust="spacingAndGlyphs" textLength="55" x="439" y="903.6294">stopping</text><path d="M163,964.6953 L227,964.6953 L227,971.6953 L217,981.6953 L163,981.6953 L163,964.6953 " fill="#EEEEEE" style="stroke: #000000; stroke-width: 1.0;"/><rect fill="none" height="90.2031" style="stroke: #000000; stroke-width: 2.0;" width="297.5" x="163" y="964.6953"/><text fill="#000000" font-family="sans-serif" font-size="13" font-weight="bold" lengthAdjust="spacingAndGlyphs" textLength="19" x="178" y="977.7622">alt</text><text fill="#000000" font-family="sans-serif" font-size="11" font-weight="bold" lengthAdjust="spacingAndGlyphs" textLength="176" x="242" y="976.9058">[task stopped successfully]</text><polygon fill="#A80036" points="209,998.9609,199,1002.9609,209,1006.9609,205,1002.9609" style="stroke: #A80036; stroke-width: 1.0;"/><line style="stroke: #A80036; stroke-width: 1.0;" x1="203" x2="431" y1="1002.9609" y2="1002.9609"/><text fill="#000000" font-family="sans-serif" font-size="13" lengthAdjust="spacingAndGlyphs" textLength="210" x="215" y="997.895">status: inactive [final_state_json]</text><line style="stroke: #000000; stroke-width: 1.0; stroke-dasharray: 2.0,2.0;" x1="163" x2="460.5" y1="1011.9609" y2="1011.9609"/><text fill="#000000" font-family="sans-serif" font-size="11" font-weight="bold" lengthAdjust="spacingAndGlyphs" textLength="138" x="168" y="1022.1714">[stopping task failed]</text><polygon fill="#A80036" points="209,1042.8984,199,1046.8984,209,1050.8984,205,1046.8984" style="stroke: #A80036; stroke-width: 1.0;"/><line style="stroke: #A80036; stroke-width: 1.0;" x1="203" x2="431" y1="1046.8984" y2="1046.8984"/><text fill="#000000" font-family="sans-serif" font-size="13" lengthAdjust="spacingAndGlyphs" textLength="160" x="215" y="1041.8325">status: failed [error_json]</text><!--
@startuml general_μC_workflow
actor Actor
participant mqtt
participant μC

== Init ==
μC -> mqtt: register
...

== Start μC functionality ==
Actor -> mqtt: trigger: on [new_state]
mqtt -> μC: trigger: on [new_state]


alt new_state != null
    μC -> μC: setState(new_state)

    alt status change successful
        μC -> mqtt: status: new_state [state_json]
    else status change failed
        μC -> mqtt: status: failed [error_json]
    end

else
    μC -> mqtt: status: active [state_json]

    loop μC functionality in progress
        ...
        group On state change
            μC -> mqtt: status: active [state_json]
        end
        ...
    end

    alt task successfully executed and solved
        μC -> mqtt: status: solved [final_state_json]
    else task failed
        μC -> mqtt: status: failed [error_json]
    end
end

== Stop μC functionality ==
Actor -> mqtt: trigger: off
mqtt -> μC: trigger: off
...
μC -> μC: stopping
...
alt task stopped successfully
    μC -> mqtt: status: inactive [final_state_json]
else stopping task failed
    μC -> mqtt: status: failed [error_json]
end
@enduml

PlantUML version 1.2019.09(Mon Aug 26 18:19:51 CEST 2019)
(GPL source distribution)
Java Runtime: OpenJDK Runtime Environment
JVM: OpenJDK 64-Bit Server VM
Java Version: 11.0.5+10-post-Ubuntu-0ubuntu1.118.04
Operating System: Linux
OS Version: 5.0.0-37-generic
Default Encoding: UTF-8
Language: en
Country: US
--></g></svg>