<?xml version="1.0" encoding="UTF-8" standalone="no"?><svg xmlns="http://www.w3.org/2000/svg" xmlns:xlink="http://www.w3.org/1999/xlink" contentScriptType="application/ecmascript" contentStyleType="text/css" height="883px" preserveAspectRatio="none" style="width:879px;height:883px;" version="1.1" viewBox="0 0 879 883" width="879px" zoomAndPan="magnify"><defs><filter height="300%" id="f12o2gx5ebz32h" width="300%" x="-1" y="-1"><feGaussianBlur result="blurOut" stdDeviation="2.0"/><feColorMatrix in="blurOut" result="blurOut2" type="matrix" values="0 0 0 0 0 0 0 0 0 0 0 0 0 0 0 0 0 0 .4 0"/><feOffset dx="4.0" dy="4.0" in="blurOut2" result="blurOut3"/><feBlend in="SourceGraphic" in2="blurOut3" mode="normal"/></filter></defs><g><rect fill="#DDDDDD" height="868.9219" style="stroke: #A80036; stroke-width: 1.0;" width="149" x="458" y="4"/><text fill="#000000" font-family="sans-serif" font-size="13" font-weight="bold" lengthAdjust="spacingAndGlyphs" textLength="51" x="507" y="16.0669">Globes</text><rect fill="#FFFFFF" filter="url(#f12o2gx5ebz32h)" height="347" style="stroke: #000000; stroke-width: 2.0;" width="845.5" x="12" y="364.3594"/><rect fill="#FFFFFF" filter="url(#f12o2gx5ebz32h)" height="315.8672" style="stroke: #000000; stroke-width: 2.0;" width="825.5" x="22" y="388.4922"/><rect fill="#FFFFFF" height="43.9375" style="stroke: none; stroke-width: 1.0;" width="825.5" x="22" y="491.8906"/><rect fill="#FFFFFF" height="166.5313" style="stroke: none; stroke-width: 1.0;" width="825.5" x="22" y="535.8281"/><rect fill="#FFFFFF" height="2" style="stroke: none; stroke-width: 1.0;" width="825.5" x="22" y="702.3594"/><line style="stroke: #A80036; stroke-width: 1.0;" x1="78" x2="78" y1="86.2969" y2="434.7578"/><line style="stroke: #A80036; stroke-width: 1.0; stroke-dasharray: 1.0,4.0;" x1="78" x2="78" y1="434.7578" y2="462.7578"/><line style="stroke: #A80036; stroke-width: 1.0;" x1="78" x2="78" y1="462.7578" y2="537.8281"/><line style="stroke: #A80036; stroke-width: 1.0; stroke-dasharray: 1.0,4.0;" x1="78" x2="78" y1="537.8281" y2="565.8281"/><line style="stroke: #A80036; stroke-width: 1.0;" x1="78" x2="78" y1="565.8281" y2="620.0938"/><line style="stroke: #A80036; stroke-width: 1.0; stroke-dasharray: 1.0,4.0;" x1="78" x2="78" y1="620.0938" y2="648.0938"/><line style="stroke: #A80036; stroke-width: 1.0;" x1="78" x2="78" y1="648.0938" y2="786.625"/><line style="stroke: #A80036; stroke-width: 1.0;" x1="268" x2="268" y1="86.2969" y2="434.7578"/><line style="stroke: #A80036; stroke-width: 1.0; stroke-dasharray: 1.0,4.0;" x1="268" x2="268" y1="434.7578" y2="462.7578"/><line style="stroke: #A80036; stroke-width: 1.0;" x1="268" x2="268" y1="462.7578" y2="537.8281"/><line style="stroke: #A80036; stroke-width: 1.0; stroke-dasharray: 1.0,4.0;" x1="268" x2="268" y1="537.8281" y2="565.8281"/><line style="stroke: #A80036; stroke-width: 1.0;" x1="268" x2="268" y1="565.8281" y2="620.0938"/><line style="stroke: #A80036; stroke-width: 1.0; stroke-dasharray: 1.0,4.0;" x1="268" x2="268" y1="620.0938" y2="648.0938"/><line style="stroke: #A80036; stroke-width: 1.0;" x1="268" x2="268" y1="648.0938" y2="786.625"/><line style="stroke: #A80036; stroke-width: 1.0;" x1="494" x2="494" y1="86.2969" y2="434.7578"/><line style="stroke: #A80036; stroke-width: 1.0; stroke-dasharray: 1.0,4.0;" x1="494" x2="494" y1="434.7578" y2="462.7578"/><line style="stroke: #A80036; stroke-width: 1.0;" x1="494" x2="494" y1="462.7578" y2="537.8281"/><line style="stroke: #A80036; stroke-width: 1.0; stroke-dasharray: 1.0,4.0;" x1="494" x2="494" y1="537.8281" y2="565.8281"/><line style="stroke: #A80036; stroke-width: 1.0;" x1="494" x2="494" y1="565.8281" y2="620.0938"/><line style="stroke: #A80036; stroke-width: 1.0; stroke-dasharray: 1.0,4.0;" x1="494" x2="494" y1="620.0938" y2="648.0938"/><line style="stroke: #A80036; stroke-width: 1.0;" x1="494" x2="494" y1="648.0938" y2="786.625"/><line style="stroke: #A80036; stroke-width: 1.0;" x1="570" x2="570" y1="86.2969" y2="434.7578"/><line style="stroke: #A80036; stroke-width: 1.0; stroke-dasharray: 1.0,4.0;" x1="570" x2="570" y1="434.7578" y2="462.7578"/><line style="stroke: #A80036; stroke-width: 1.0;" x1="570" x2="570" y1="462.7578" y2="537.8281"/><line style="stroke: #A80036; stroke-width: 1.0; stroke-dasharray: 1.0,4.0;" x1="570" x2="570" y1="537.8281" y2="565.8281"/><line style="stroke: #A80036; stroke-width: 1.0;" x1="570" x2="570" y1="565.8281" y2="620.0938"/><line style="stroke: #A80036; stroke-width: 1.0; stroke-dasharray: 1.0,4.0;" x1="570" x2="570" y1="620.0938" y2="648.0938"/><line style="stroke: #A80036; stroke-width: 1.0;" x1="570" x2="570" y1="648.0938" y2="786.625"/><line style="stroke: #A80036; stroke-width: 1.0;" x1="745.5" x2="745.5" y1="86.2969" y2="434.7578"/><line style="stroke: #A80036; stroke-width: 1.0; stroke-dasharray: 1.0,4.0;" x1="745.5" x2="745.5" y1="434.7578" y2="462.7578"/><line style="stroke: #A80036; stroke-width: 1.0;" x1="745.5" x2="745.5" y1="462.7578" y2="537.8281"/><line style="stroke: #A80036; stroke-width: 1.0; stroke-dasharray: 1.0,4.0;" x1="745.5" x2="745.5" y1="537.8281" y2="565.8281"/><line style="stroke: #A80036; stroke-width: 1.0;" x1="745.5" x2="745.5" y1="565.8281" y2="620.0938"/><line style="stroke: #A80036; stroke-width: 1.0; stroke-dasharray: 1.0,4.0;" x1="745.5" x2="745.5" y1="620.0938" y2="648.0938"/><line style="stroke: #A80036; stroke-width: 1.0;" x1="745.5" x2="745.5" y1="648.0938" y2="786.625"/><text fill="#000000" font-family="sans-serif" font-size="14" lengthAdjust="spacingAndGlyphs" textLength="59" x="46" y="82.9951">operator</text><ellipse cx="78.5" cy="13" fill="#FEFECE" filter="url(#f12o2gx5ebz32h)" rx="8" ry="8" style="stroke: #A80036; stroke-width: 2.0;"/><path d="M78.5,21 L78.5,48 M65.5,29 L91.5,29 M78.5,48 L65.5,63 M78.5,48 L91.5,63 " fill="none" filter="url(#f12o2gx5ebz32h)" style="stroke: #A80036; stroke-width: 2.0;"/><text fill="#000000" font-family="sans-serif" font-size="14" lengthAdjust="spacingAndGlyphs" textLength="59" x="46" y="798.6201">operator</text><ellipse cx="78.5" cy="811.9219" fill="#FEFECE" filter="url(#f12o2gx5ebz32h)" rx="8" ry="8" style="stroke: #A80036; stroke-width: 2.0;"/><path d="M78.5,819.9219 L78.5,846.9219 M65.5,827.9219 L91.5,827.9219 M78.5,846.9219 L65.5,861.9219 M78.5,846.9219 L91.5,861.9219 " fill="none" filter="url(#f12o2gx5ebz32h)" style="stroke: #A80036; stroke-width: 2.0;"/><rect fill="#FEFECE" filter="url(#f12o2gx5ebz32h)" height="30.2969" style="stroke: #A80036; stroke-width: 1.5;" width="125" x="204" y="51"/><text fill="#000000" font-family="sans-serif" font-size="14" lengthAdjust="spacingAndGlyphs" textLength="111" x="211" y="70.9951">MQTT_4_globes</text><rect fill="#FEFECE" filter="url(#f12o2gx5ebz32h)" height="30.2969" style="stroke: #A80036; stroke-width: 1.5;" width="125" x="204" y="785.625"/><text fill="#000000" font-family="sans-serif" font-size="14" lengthAdjust="spacingAndGlyphs" textLength="111" x="211" y="805.6201">MQTT_4_globes</text><rect fill="#FEFECE" filter="url(#f12o2gx5ebz32h)" height="30.2969" style="stroke: #A80036; stroke-width: 1.5;" width="57" x="466" y="47"/><rect fill="#FEFECE" filter="url(#f12o2gx5ebz32h)" height="30.2969" style="stroke: #A80036; stroke-width: 1.5;" width="57" x="462" y="51"/><text fill="#000000" font-family="sans-serif" font-size="14" lengthAdjust="spacingAndGlyphs" textLength="43" x="469" y="70.9951">slaves</text><rect fill="#FEFECE" filter="url(#f12o2gx5ebz32h)" height="30.2969" style="stroke: #A80036; stroke-width: 1.5;" width="57" x="466" y="785.625"/><rect fill="#FEFECE" filter="url(#f12o2gx5ebz32h)" height="30.2969" style="stroke: #A80036; stroke-width: 1.5;" width="57" x="462" y="789.625"/><text fill="#000000" font-family="sans-serif" font-size="14" lengthAdjust="spacingAndGlyphs" textLength="43" x="469" y="809.6201">slaves</text><rect fill="#FEFECE" filter="url(#f12o2gx5ebz32h)" height="30.2969" style="stroke: #A80036; stroke-width: 1.5;" width="62" x="537" y="51"/><text fill="#000000" font-family="sans-serif" font-size="14" lengthAdjust="spacingAndGlyphs" textLength="48" x="544" y="70.9951">master</text><rect fill="#FEFECE" filter="url(#f12o2gx5ebz32h)" height="30.2969" style="stroke: #A80036; stroke-width: 1.5;" width="62" x="537" y="785.625"/><text fill="#000000" font-family="sans-serif" font-size="14" lengthAdjust="spacingAndGlyphs" textLength="48" x="544" y="805.6201">master</text><rect fill="#FEFECE" filter="url(#f12o2gx5ebz32h)" height="30.2969" style="stroke: #A80036; stroke-width: 1.5;" width="179" x="654.5" y="51"/><text fill="#000000" font-family="sans-serif" font-size="14" lengthAdjust="spacingAndGlyphs" textLength="165" x="661.5" y="70.9951">MQTT_4_door_entrance</text><rect fill="#FEFECE" filter="url(#f12o2gx5ebz32h)" height="30.2969" style="stroke: #A80036; stroke-width: 1.5;" width="179" x="654.5" y="785.625"/><text fill="#000000" font-family="sans-serif" font-size="14" lengthAdjust="spacingAndGlyphs" textLength="165" x="661.5" y="805.6201">MQTT_4_door_entrance</text><rect fill="#EEEEEE" filter="url(#f12o2gx5ebz32h)" height="3" style="stroke: #EEEEEE; stroke-width: 1.0;" width="864.5" x="3" y="116.8633"/><line style="stroke: #000000; stroke-width: 1.0;" x1="3" x2="867.5" y1="116.8633" y2="116.8633"/><line style="stroke: #000000; stroke-width: 1.0;" x1="3" x2="867.5" y1="119.8633" y2="119.8633"/><rect fill="#EEEEEE" filter="url(#f12o2gx5ebz32h)" height="23.1328" style="stroke: #000000; stroke-width: 2.0;" width="42" x="414.25" y="106.2969"/><text fill="#000000" font-family="sans-serif" font-size="13" font-weight="bold" lengthAdjust="spacingAndGlyphs" textLength="23" x="420.25" y="122.3638">Init</text><polygon fill="#A80036" points="734,156.5625,744,160.5625,734,164.5625,738,160.5625" style="stroke: #A80036; stroke-width: 1.0;"/><line style="stroke: #A80036; stroke-width: 1.0;" x1="570" x2="740" y1="160.5625" y2="160.5625"/><text fill="#000000" font-family="sans-serif" font-size="13" lengthAdjust="spacingAndGlyphs" textLength="49" x="577" y="155.4966">register</text><polygon fill="#A80036" points="279.5,185.6953,269.5,189.6953,279.5,193.6953,275.5,189.6953" style="stroke: #A80036; stroke-width: 1.0;"/><line style="stroke: #A80036; stroke-width: 1.0;" x1="273.5" x2="569" y1="189.6953" y2="189.6953"/><text fill="#000000" font-family="sans-serif" font-size="13" lengthAdjust="spacingAndGlyphs" textLength="49" x="285.5" y="184.6294">register</text><polygon fill="#A80036" points="279.5,214.8281,269.5,218.8281,279.5,222.8281,275.5,218.8281" style="stroke: #A80036; stroke-width: 1.0;"/><line style="stroke: #A80036; stroke-width: 1.0;" x1="273.5" x2="493.5" y1="218.8281" y2="218.8281"/><text fill="#000000" font-family="sans-serif" font-size="13" lengthAdjust="spacingAndGlyphs" textLength="49" x="285.5" y="213.7622">register</text><rect fill="#EEEEEE" filter="url(#f12o2gx5ebz32h)" height="3" style="stroke: #EEEEEE; stroke-width: 1.0;" width="864.5" x="3" y="247.3945"/><line style="stroke: #000000; stroke-width: 1.0;" x1="3" x2="867.5" y1="247.3945" y2="247.3945"/><line style="stroke: #000000; stroke-width: 1.0;" x1="3" x2="867.5" y1="250.3945" y2="250.3945"/><rect fill="#EEEEEE" filter="url(#f12o2gx5ebz32h)" height="23.1328" style="stroke: #000000; stroke-width: 2.0;" width="111" x="379.75" y="236.8281"/><text fill="#000000" font-family="sans-serif" font-size="13" font-weight="bold" lengthAdjust="spacingAndGlyphs" textLength="92" x="385.75" y="252.895">Solve puzzle</text><polygon fill="#A80036" points="256.5,287.0938,266.5,291.0938,256.5,295.0938,260.5,291.0938" style="stroke: #A80036; stroke-width: 1.0;"/><line style="stroke: #A80036; stroke-width: 1.0;" x1="78.5" x2="262.5" y1="291.0938" y2="291.0938"/><text fill="#000000" font-family="sans-serif" font-size="13" lengthAdjust="spacingAndGlyphs" textLength="166" x="85.5" y="286.0278">trigger: on [#participants]</text><polygon fill="#A80036" points="558,316.2266,568,320.2266,558,324.2266,562,320.2266" style="stroke: #A80036; stroke-width: 1.0;"/><line style="stroke: #A80036; stroke-width: 1.0;" x1="268.5" x2="564" y1="320.2266" y2="320.2266"/><text fill="#000000" font-family="sans-serif" font-size="13" lengthAdjust="spacingAndGlyphs" textLength="166" x="275.5" y="315.1606">trigger: on [#participants]</text><polygon fill="#A80036" points="482.5,345.3594,492.5,349.3594,482.5,353.3594,486.5,349.3594" style="stroke: #A80036; stroke-width: 1.0;"/><line style="stroke: #A80036; stroke-width: 1.0;" x1="268.5" x2="488.5" y1="349.3594" y2="349.3594"/><text fill="#000000" font-family="sans-serif" font-size="13" lengthAdjust="spacingAndGlyphs" textLength="166" x="275.5" y="344.2935">trigger: on [#participants]</text><path d="M12,364.3594 L89,364.3594 L89,371.3594 L79,381.3594 L12,381.3594 L12,364.3594 " fill="#EEEEEE" style="stroke: #000000; stroke-width: 1.0;"/><rect fill="none" height="347" style="stroke: #000000; stroke-width: 2.0;" width="845.5" x="12" y="364.3594"/><text fill="#000000" font-family="sans-serif" font-size="13" font-weight="bold" lengthAdjust="spacingAndGlyphs" textLength="32" x="27" y="377.4263">loop</text><a href="while" target="_top" xlink:actuate="onRequest" xlink:show="new" xlink:title="while" xlink:type="simple"><text fill="#0000FF" font-family="sans-serif" font-size="11" font-weight="bold" lengthAdjust="spacingAndGlyphs" text-decoration="underline" textLength="256" x="104" y="376.5698">door is open (state != inactive [closed])</text></a><path d="M22,388.4922 L86,388.4922 L86,395.4922 L76,405.4922 L22,405.4922 L22,388.4922 " fill="#EEEEEE" style="stroke: #000000; stroke-width: 1.0;"/><rect fill="none" height="315.8672" style="stroke: #000000; stroke-width: 2.0;" width="825.5" x="22" y="388.4922"/><text fill="#000000" font-family="sans-serif" font-size="13" font-weight="bold" lengthAdjust="spacingAndGlyphs" textLength="19" x="37" y="401.5591">alt</text><a href="on" target="_top" xlink:actuate="onRequest" xlink:show="new" xlink:title="on" xlink:type="simple"><text fill="#0000FF" font-family="sans-serif" font-size="11" font-weight="bold" lengthAdjust="spacingAndGlyphs" text-decoration="underline" textLength="144" x="101" y="400.7026">all globes are touched</text></a><polygon fill="#A80036" points="734,422.7578,744,426.7578,734,430.7578,738,426.7578" style="stroke: #A80036; stroke-width: 1.0;"/><line style="stroke: #A80036; stroke-width: 1.0;" x1="570" x2="740" y1="426.7578" y2="426.7578"/><text fill="#000000" font-family="sans-serif" font-size="13" lengthAdjust="spacingAndGlyphs" textLength="66" x="577" y="421.6919">trigger: off</text><polygon fill="#A80036" points="581,479.8906,571,483.8906,581,487.8906,577,483.8906" style="stroke: #A80036; stroke-width: 1.0;"/><line style="stroke: #A80036; stroke-width: 1.0;" x1="575" x2="745" y1="483.8906" y2="483.8906"/><text fill="#000000" font-family="sans-serif" font-size="13" lengthAdjust="spacingAndGlyphs" textLength="152" x="587" y="478.8247">status: inactive [closed]</text><line style="stroke: #000000; stroke-width: 1.0; stroke-dasharray: 2.0,2.0;" x1="22" x2="847.5" y1="492.8906" y2="492.8906"/><a href="on" target="_top" xlink:actuate="onRequest" xlink:show="new" xlink:title="on" xlink:type="simple"><text fill="#0000FF" font-family="sans-serif" font-size="11" font-weight="bold" lengthAdjust="spacingAndGlyphs" text-decoration="underline" textLength="153" x="27" y="503.1011">any globe was released</text></a><polygon fill="#A80036" points="734,523.8281,744,527.8281,734,531.8281,738,527.8281" style="stroke: #A80036; stroke-width: 1.0;"/><line style="stroke: #A80036; stroke-width: 1.0;" x1="570" x2="740" y1="527.8281" y2="527.8281"/><text fill="#000000" font-family="sans-serif" font-size="13" lengthAdjust="spacingAndGlyphs" textLength="66" x="577" y="522.7622">trigger: on</text><line style="stroke: #000000; stroke-width: 1.0; stroke-dasharray: 2.0,2.0;" x1="22" x2="847.5" y1="536.8281" y2="536.8281"/><polygon fill="#A80036" points="279.5,595.5273,269.5,599.5273,279.5,603.5273,275.5,599.5273" style="stroke: #A80036; stroke-width: 1.0;"/><line style="stroke: #A80036; stroke-width: 1.0;" x1="273.5" x2="569" y1="599.5273" y2="599.5273"/><text fill="#000000" font-family="sans-serif" font-size="13" lengthAdjust="spacingAndGlyphs" textLength="206" x="285.5" y="594.4614">status: active [stateOfAllGlobes]</text><path d="M32,570.8281 L32,610.8281 L259,610.8281 L259,580.8281 L249,570.8281 L32,570.8281 " fill="#FBFB77" filter="url(#f12o2gx5ebz32h)" style="stroke: #A80036; stroke-width: 1.0;"/><path d="M249,570.8281 L249,580.8281 L259,580.8281 L249,570.8281 " fill="#FBFB77" style="stroke: #A80036; stroke-width: 1.0;"/><text fill="#000000" font-family="sans-serif" font-size="13" lengthAdjust="spacingAndGlyphs" textLength="206" x="38" y="587.895">The master publishes the states</text><text fill="#000000" font-family="sans-serif" font-size="13" lengthAdjust="spacingAndGlyphs" textLength="80" x="38" y="603.0278">of all globes.</text><polygon fill="#A80036" points="279.5,677.793,269.5,681.793,279.5,685.793,275.5,681.793" style="stroke: #A80036; stroke-width: 1.0;"/><line style="stroke: #A80036; stroke-width: 1.0;" x1="273.5" x2="493.5" y1="681.793" y2="681.793"/><text fill="#000000" font-family="sans-serif" font-size="13" lengthAdjust="spacingAndGlyphs" textLength="202" x="285.5" y="676.7271">message: active [id, isTouched]</text><path d="M56,653.0938 L56,693.0938 L259,693.0938 L259,663.0938 L249,653.0938 L56,653.0938 " fill="#FBFB77" filter="url(#f12o2gx5ebz32h)" style="stroke: #A80036; stroke-width: 1.0;"/><path d="M249,653.0938 L249,663.0938 L259,663.0938 L249,653.0938 " fill="#FBFB77" style="stroke: #A80036; stroke-width: 1.0;"/><text fill="#000000" font-family="sans-serif" font-size="13" lengthAdjust="spacingAndGlyphs" textLength="182" x="62" y="670.1606">Type "MESSAGE" because of</text><text fill="#000000" font-family="sans-serif" font-size="13" lengthAdjust="spacingAndGlyphs" textLength="151" x="62" y="685.2935">internal communication</text><line style="stroke: #000000; stroke-width: 1.0; stroke-dasharray: 2.0,2.0;" x1="22" x2="847.5" y1="703.3594" y2="703.3594"/><polygon fill="#A80036" points="279.5,735.4922,269.5,739.4922,279.5,743.4922,275.5,739.4922" style="stroke: #A80036; stroke-width: 1.0;"/><line style="stroke: #A80036; stroke-width: 1.0;" x1="273.5" x2="569" y1="739.4922" y2="739.4922"/><text fill="#000000" font-family="sans-serif" font-size="13" lengthAdjust="spacingAndGlyphs" textLength="89" x="285.5" y="734.4263">status: solved</text><polygon fill="#A80036" points="89.5,764.625,79.5,768.625,89.5,772.625,85.5,768.625" style="stroke: #A80036; stroke-width: 1.0;"/><line style="stroke: #A80036; stroke-width: 1.0;" x1="83.5" x2="267.5" y1="768.625" y2="768.625"/><text fill="#000000" font-family="sans-serif" font-size="13" lengthAdjust="spacingAndGlyphs" textLength="89" x="95.5" y="763.5591">status: solved</text><!--
@startuml group_4_puzzle_globes
actor operator
participant MQTT_4_globes
box "Globes"
    collections slaves
    participant master
end box
participant MQTT_4_door_entrance

== Init ==
master -> MQTT_4_door_entrance: register
master -> MQTT_4_globes: register
slaves -> MQTT_4_globes: register

== Solve puzzle ==
operator -> MQTT_4_globes: trigger: on [#participants]
MQTT_4_globes -> master: trigger: on [#participants]
MQTT_4_globes -> slaves: trigger: on [#participants]

loop [while door is open (state != inactive [closed])]
    alt [on all globes are touched]
        master -> MQTT_4_door_entrance: trigger: off
        ...
        MQTT_4_door_entrance -> master: status: inactive [closed]
    else [on any globe was released]
        master -> MQTT_4_door_entrance: trigger: on
    else
        ...
        master -> MQTT_4_globes: status: active [stateOfAllGlobes]
        note left
            The master publishes the states
            of all globes.
        end note
        ...
        slaves -> MQTT_4_globes: message: active [id, isTouched]
        note left
            Type "MESSAGE" because of
            internal communication
        end note
    else 
    end

end

MQTT_4_globes <- master: status: solved
operator <- MQTT_4_globes: status: solved
@enduml

PlantUML version 1.2019.09(Mon Aug 26 18:19:51 CEST 2019)
(GPL source distribution)
Java Runtime: OpenJDK Runtime Environment
JVM: OpenJDK 64-Bit Server VM
Java Version: 11.0.4+11-post-Ubuntu-1ubuntu218.04.3
Operating System: Linux
OS Version: 5.0.0-37-generic
Default Encoding: UTF-8
Language: en
Country: US
--></g></svg>