<?xml version="1.0" encoding="UTF-8" standalone="no"?><svg xmlns="http://www.w3.org/2000/svg" xmlns:xlink="http://www.w3.org/1999/xlink" contentScriptType="application/ecmascript" contentStyleType="text/css" height="677px" preserveAspectRatio="none" style="width:642px;height:677px;" version="1.1" viewBox="0 0 642 677" width="642px" zoomAndPan="magnify"><defs><filter height="300%" id="f16fy1qo1upppd" width="300%" x="-1" y="-1"><feGaussianBlur result="blurOut" stdDeviation="2.0"/><feColorMatrix in="blurOut" result="blurOut2" type="matrix" values="0 0 0 0 0 0 0 0 0 0 0 0 0 0 0 0 0 0 .4 0"/><feOffset dx="4.0" dy="4.0" in="blurOut2" result="blurOut3"/><feBlend in="SourceGraphic" in2="blurOut3" mode="normal"/></filter></defs><g><rect fill="#FFFFFF" filter="url(#f16fy1qo1upppd)" height="194.4063" style="stroke: #000000; stroke-width: 2.0;" width="439" x="13" y="306.0938"/><rect fill="#FFFFFF" filter="url(#f16fy1qo1upppd)" height="46.2656" style="stroke: #000000; stroke-width: 2.0;" width="354" x="88" y="330.2266"/><rect fill="#FFFFFF" height="73.0703" style="stroke: none; stroke-width: 1.0;" width="439" x="13" y="383.4922"/><rect fill="#FFFFFF" height="43.9375" style="stroke: none; stroke-width: 1.0;" width="439" x="13" y="456.5625"/><line style="stroke: #A80036; stroke-width: 1.0; stroke-dasharray: 5.0,5.0;" x1="55" x2="55" y1="86.2969" y2="589.7656"/><line style="stroke: #A80036; stroke-width: 1.0; stroke-dasharray: 5.0,5.0;" x1="216" x2="216" y1="86.2969" y2="589.7656"/><line style="stroke: #A80036; stroke-width: 1.0; stroke-dasharray: 5.0,5.0;" x1="400" x2="400" y1="86.2969" y2="589.7656"/><line style="stroke: #A80036; stroke-width: 1.0; stroke-dasharray: 5.0,5.0;" x1="533" x2="533" y1="86.2969" y2="589.7656"/><text fill="#000000" font-family="sans-serif" font-size="14" lengthAdjust="spacingAndGlyphs" textLength="59" x="23" y="82.9951">operator</text><ellipse cx="55.5" cy="13" fill="#FEFECE" filter="url(#f16fy1qo1upppd)" rx="8" ry="8" style="stroke: #A80036; stroke-width: 2.0;"/><path d="M55.5,21 L55.5,48 M42.5,29 L68.5,29 M55.5,48 L42.5,63 M55.5,48 L68.5,63 " fill="none" filter="url(#f16fy1qo1upppd)" style="stroke: #A80036; stroke-width: 2.0;"/><text fill="#000000" font-family="sans-serif" font-size="14" lengthAdjust="spacingAndGlyphs" textLength="59" x="23" y="601.7607">operator</text><ellipse cx="55.5" cy="615.0625" fill="#FEFECE" filter="url(#f16fy1qo1upppd)" rx="8" ry="8" style="stroke: #A80036; stroke-width: 2.0;"/><path d="M55.5,623.0625 L55.5,650.0625 M42.5,631.0625 L68.5,631.0625 M55.5,650.0625 L42.5,665.0625 M55.5,650.0625 L68.5,665.0625 " fill="none" filter="url(#f16fy1qo1upppd)" style="stroke: #A80036; stroke-width: 2.0;"/><rect fill="#FEFECE" filter="url(#f16fy1qo1upppd)" height="30.2969" style="stroke: #A80036; stroke-width: 1.5;" width="232" x="98" y="51"/><text fill="#000000" font-family="sans-serif" font-size="14" lengthAdjust="spacingAndGlyphs" textLength="218" x="105" y="70.9951">MQTT_4_door_entrance_puzzle</text><rect fill="#FEFECE" filter="url(#f16fy1qo1upppd)" height="30.2969" style="stroke: #A80036; stroke-width: 1.5;" width="232" x="98" y="588.7656"/><text fill="#000000" font-family="sans-serif" font-size="14" lengthAdjust="spacingAndGlyphs" textLength="218" x="105" y="608.7607">MQTT_4_door_entrance_puzzle</text><rect fill="#FEFECE" filter="url(#f16fy1qo1upppd)" height="30.2969" style="stroke: #A80036; stroke-width: 1.5;" width="60" x="368" y="51"/><text fill="#000000" font-family="sans-serif" font-size="14" lengthAdjust="spacingAndGlyphs" textLength="46" x="375" y="70.9951">puzzle</text><rect fill="#FEFECE" filter="url(#f16fy1qo1upppd)" height="30.2969" style="stroke: #A80036; stroke-width: 1.5;" width="60" x="368" y="588.7656"/><text fill="#000000" font-family="sans-serif" font-size="14" lengthAdjust="spacingAndGlyphs" textLength="46" x="375" y="608.7607">puzzle</text><rect fill="#FEFECE" filter="url(#f16fy1qo1upppd)" height="30.2969" style="stroke: #A80036; stroke-width: 1.5;" width="179" x="442" y="51"/><text fill="#000000" font-family="sans-serif" font-size="14" lengthAdjust="spacingAndGlyphs" textLength="165" x="449" y="70.9951">MQTT_4_door_entrance</text><rect fill="#FEFECE" filter="url(#f16fy1qo1upppd)" height="30.2969" style="stroke: #A80036; stroke-width: 1.5;" width="179" x="442" y="588.7656"/><text fill="#000000" font-family="sans-serif" font-size="14" lengthAdjust="spacingAndGlyphs" textLength="165" x="449" y="608.7607">MQTT_4_door_entrance</text><rect fill="#EEEEEE" filter="url(#f16fy1qo1upppd)" height="3" style="stroke: #EEEEEE; stroke-width: 1.0;" width="627" x="3" y="116.8633"/><line style="stroke: #000000; stroke-width: 1.0;" x1="3" x2="630" y1="116.8633" y2="116.8633"/><line style="stroke: #000000; stroke-width: 1.0;" x1="3" x2="630" y1="119.8633" y2="119.8633"/><rect fill="#EEEEEE" filter="url(#f16fy1qo1upppd)" height="23.1328" style="stroke: #000000; stroke-width: 2.0;" width="42" x="295.5" y="106.2969"/><text fill="#000000" font-family="sans-serif" font-size="13" font-weight="bold" lengthAdjust="spacingAndGlyphs" textLength="23" x="301.5" y="122.3638">Init</text><polygon fill="#A80036" points="227,156.5625,217,160.5625,227,164.5625,223,160.5625" style="stroke: #A80036; stroke-width: 1.0;"/><line style="stroke: #A80036; stroke-width: 1.0;" x1="221" x2="399" y1="160.5625" y2="160.5625"/><text fill="#000000" font-family="sans-serif" font-size="13" lengthAdjust="spacingAndGlyphs" textLength="49" x="233" y="155.4966">register</text><rect fill="#EEEEEE" filter="url(#f16fy1qo1upppd)" height="3" style="stroke: #EEEEEE; stroke-width: 1.0;" width="627" x="3" y="189.1289"/><line style="stroke: #000000; stroke-width: 1.0;" x1="3" x2="630" y1="189.1289" y2="189.1289"/><line style="stroke: #000000; stroke-width: 1.0;" x1="3" x2="630" y1="192.1289" y2="192.1289"/><rect fill="#EEEEEE" filter="url(#f16fy1qo1upppd)" height="23.1328" style="stroke: #000000; stroke-width: 2.0;" width="111" x="261" y="178.5625"/><text fill="#000000" font-family="sans-serif" font-size="13" font-weight="bold" lengthAdjust="spacingAndGlyphs" textLength="92" x="267" y="194.6294">Solve puzzle</text><polygon fill="#A80036" points="204,228.8281,214,232.8281,204,236.8281,208,232.8281" style="stroke: #A80036; stroke-width: 1.0;"/><line style="stroke: #A80036; stroke-width: 1.0;" x1="55.5" x2="210" y1="232.8281" y2="232.8281"/><text fill="#000000" font-family="sans-serif" font-size="13" lengthAdjust="spacingAndGlyphs" textLength="66" x="62.5" y="227.7622">trigger: on</text><polygon fill="#A80036" points="388,257.9609,398,261.9609,388,265.9609,392,261.9609" style="stroke: #A80036; stroke-width: 1.0;"/><line style="stroke: #A80036; stroke-width: 1.0;" x1="216" x2="394" y1="261.9609" y2="261.9609"/><text fill="#000000" font-family="sans-serif" font-size="13" lengthAdjust="spacingAndGlyphs" textLength="66" x="223" y="256.895">trigger: on</text><polygon fill="#A80036" points="227,287.0938,217,291.0938,227,295.0938,223,291.0938" style="stroke: #A80036; stroke-width: 1.0;"/><line style="stroke: #A80036; stroke-width: 1.0;" x1="221" x2="399" y1="291.0938" y2="291.0938"/><text fill="#000000" font-family="sans-serif" font-size="13" lengthAdjust="spacingAndGlyphs" textLength="86" x="233" y="286.0278">status: active</text><path d="M13,306.0938 L90,306.0938 L90,313.0938 L80,323.0938 L13,323.0938 L13,306.0938 " fill="#EEEEEE" style="stroke: #000000; stroke-width: 1.0;"/><rect fill="none" height="194.4063" style="stroke: #000000; stroke-width: 2.0;" width="439" x="13" y="306.0938"/><text fill="#000000" font-family="sans-serif" font-size="13" font-weight="bold" lengthAdjust="spacingAndGlyphs" textLength="32" x="28" y="319.1606">loop</text><text fill="#000000" font-family="sans-serif" font-size="11" font-weight="bold" lengthAdjust="spacingAndGlyphs" textLength="113" x="105" y="318.3042">[input wrong key]</text><path d="M88,330.2266 L152,330.2266 L152,337.2266 L142,347.2266 L88,347.2266 L88,330.2266 " fill="#EEEEEE" style="stroke: #000000; stroke-width: 1.0;"/><rect fill="none" height="46.2656" style="stroke: #000000; stroke-width: 2.0;" width="354" x="88" y="330.2266"/><text fill="#000000" font-family="sans-serif" font-size="13" font-weight="bold" lengthAdjust="spacingAndGlyphs" textLength="19" x="103" y="343.2935">alt</text><text fill="#000000" font-family="sans-serif" font-size="11" font-weight="bold" lengthAdjust="spacingAndGlyphs" textLength="86" x="167" y="342.437">[kepad input]</text><polygon fill="#A80036" points="227,364.4922,217,368.4922,227,372.4922,223,368.4922" style="stroke: #A80036; stroke-width: 1.0;"/><line style="stroke: #A80036; stroke-width: 1.0;" x1="221" x2="399" y1="368.4922" y2="368.4922"/><text fill="#000000" font-family="sans-serif" font-size="13" lengthAdjust="spacingAndGlyphs" textLength="132" x="233" y="363.4263">status: active [input]</text><line style="stroke: #000000; stroke-width: 1.0; stroke-dasharray: 2.0,2.0;" x1="13" x2="452" y1="384.4922" y2="384.4922"/><text fill="#000000" font-family="sans-serif" font-size="11" font-weight="bold" lengthAdjust="spacingAndGlyphs" textLength="118" x="18" y="394.7026">[input correct key]</text><polygon fill="#A80036" points="227,415.4297,217,419.4297,227,423.4297,223,419.4297" style="stroke: #A80036; stroke-width: 1.0;"/><line style="stroke: #A80036; stroke-width: 1.0;" x1="221" x2="399" y1="419.4297" y2="419.4297"/><text fill="#000000" font-family="sans-serif" font-size="13" lengthAdjust="spacingAndGlyphs" textLength="89" x="233" y="414.3638">status: solved</text><polygon fill="#A80036" points="66.5,444.5625,56.5,448.5625,66.5,452.5625,62.5,448.5625" style="stroke: #A80036; stroke-width: 1.0;"/><line style="stroke: #A80036; stroke-width: 1.0;" x1="60.5" x2="215" y1="448.5625" y2="448.5625"/><text fill="#000000" font-family="sans-serif" font-size="13" lengthAdjust="spacingAndGlyphs" textLength="89" x="72.5" y="443.4966">status: solved</text><line style="stroke: #000000; stroke-width: 1.0; stroke-dasharray: 2.0,2.0;" x1="13" x2="452" y1="457.5625" y2="457.5625"/><text fill="#000000" font-family="sans-serif" font-size="11" font-weight="bold" lengthAdjust="spacingAndGlyphs" textLength="61" x="18" y="467.7729">[on error]</text><polygon fill="#A80036" points="227,488.5,217,492.5,227,496.5,223,492.5" style="stroke: #A80036; stroke-width: 1.0;"/><line style="stroke: #A80036; stroke-width: 1.0;" x1="221" x2="399" y1="492.5" y2="492.5"/><text fill="#000000" font-family="sans-serif" font-size="13" lengthAdjust="spacingAndGlyphs" textLength="160" x="233" y="487.4341">status: failed [error_json]</text><rect fill="#EEEEEE" filter="url(#f16fy1qo1upppd)" height="3" style="stroke: #EEEEEE; stroke-width: 1.0;" width="627" x="3" y="528.0664"/><line style="stroke: #000000; stroke-width: 1.0;" x1="3" x2="630" y1="528.0664" y2="528.0664"/><line style="stroke: #000000; stroke-width: 1.0;" x1="3" x2="630" y1="531.0664" y2="531.0664"/><rect fill="#EEEEEE" filter="url(#f16fy1qo1upppd)" height="23.1328" style="stroke: #000000; stroke-width: 2.0;" width="172" x="230.5" y="517.5"/><text fill="#000000" font-family="sans-serif" font-size="13" font-weight="bold" lengthAdjust="spacingAndGlyphs" textLength="148" x="236.5" y="533.5669">Open entrance door</text><polygon fill="#A80036" points="521.5,567.7656,531.5,571.7656,521.5,575.7656,525.5,571.7656" style="stroke: #A80036; stroke-width: 1.0;"/><line style="stroke: #A80036; stroke-width: 1.0;" x1="55.5" x2="527.5" y1="571.7656" y2="571.7656"/><text fill="#000000" font-family="sans-serif" font-size="13" lengthAdjust="spacingAndGlyphs" textLength="66" x="62.5" y="566.6997">trigger: on</text><!--
@startuml group_4_puzzle_entrance_door
actor operator
participant MQTT_4_door_entrance_puzzle
participant puzzle
participant MQTT_4_door_entrance

== Init ==
puzzle -> MQTT_4_door_entrance_puzzle: register

== Solve puzzle ==
operator -> MQTT_4_door_entrance_puzzle: trigger: on
MQTT_4_door_entrance_puzzle -> puzzle: trigger: on
puzzle -> MQTT_4_door_entrance_puzzle: status: active

loop input wrong key
    alt kepad input
        puzzle -> MQTT_4_door_entrance_puzzle: status: active [input]
    end
else input correct key
    puzzle -> MQTT_4_door_entrance_puzzle: status: solved
    MQTT_4_door_entrance_puzzle -> operator: status: solved
else on error
    puzzle -> MQTT_4_door_entrance_puzzle: status: failed [error_json]
end

== Open entrance door  ==
operator -> MQTT_4_door_entrance: trigger: on
@enduml

PlantUML version 1.2019.09(Mon Aug 26 18:19:51 CEST 2019)
(GPL source distribution)
Java Runtime: OpenJDK Runtime Environment
JVM: OpenJDK 64-Bit Server VM
Java Version: 11.0.5+10-post-Ubuntu-0ubuntu1.118.04
Operating System: Linux
OS Version: 5.0.0-37-generic
Default Encoding: UTF-8
Language: en
Country: US
--></g></svg>