<?xml version="1.0" encoding="UTF-8" standalone="no"?><svg xmlns="http://www.w3.org/2000/svg" xmlns:xlink="http://www.w3.org/1999/xlink" contentScriptType="application/ecmascript" contentStyleType="text/css" height="618px" preserveAspectRatio="none" style="width:603px;height:618px;" version="1.1" viewBox="0 0 603 618" width="603px" zoomAndPan="magnify"><defs><filter height="300%" id="f19jc6l5movgq" width="300%" x="-1" y="-1"><feGaussianBlur result="blurOut" stdDeviation="2.0"/><feColorMatrix in="blurOut" result="blurOut2" type="matrix" values="0 0 0 0 0 0 0 0 0 0 0 0 0 0 0 0 0 0 .4 0"/><feOffset dx="4.0" dy="4.0" in="blurOut2" result="blurOut3"/><feBlend in="SourceGraphic" in2="blurOut3" mode="normal"/></filter></defs><g><rect fill="#FFFFFF" filter="url(#f19jc6l5movgq)" height="77.3984" style="stroke: #000000; stroke-width: 2.0;" width="350" x="63" y="306.0938"/><rect fill="#FFFFFF" filter="url(#f19jc6l5movgq)" height="46.2656" style="stroke: #000000; stroke-width: 2.0;" width="330" x="73" y="330.2266"/><line style="stroke: #A80036; stroke-width: 1.0; stroke-dasharray: 5.0,5.0;" x1="40" x2="40" y1="86.2969" y2="531.0234"/><line style="stroke: #A80036; stroke-width: 1.0; stroke-dasharray: 5.0,5.0;" x1="201" x2="201" y1="86.2969" y2="531.0234"/><line style="stroke: #A80036; stroke-width: 1.0; stroke-dasharray: 5.0,5.0;" x1="361" x2="361" y1="86.2969" y2="531.0234"/><line style="stroke: #A80036; stroke-width: 1.0; stroke-dasharray: 5.0,5.0;" x1="494" x2="494" y1="86.2969" y2="531.0234"/><text fill="#000000" font-family="sans-serif" font-size="14" lengthAdjust="spacingAndGlyphs" textLength="59" x="8" y="82.9951">operator</text><ellipse cx="40.5" cy="13" fill="#FEFECE" filter="url(#f19jc6l5movgq)" rx="8" ry="8" style="stroke: #A80036; stroke-width: 2.0;"/><path d="M40.5,21 L40.5,48 M27.5,29 L53.5,29 M40.5,48 L27.5,63 M40.5,48 L53.5,63 " fill="none" filter="url(#f19jc6l5movgq)" style="stroke: #A80036; stroke-width: 2.0;"/><text fill="#000000" font-family="sans-serif" font-size="14" lengthAdjust="spacingAndGlyphs" textLength="59" x="8" y="543.0186">operator</text><ellipse cx="40.5" cy="556.3203" fill="#FEFECE" filter="url(#f19jc6l5movgq)" rx="8" ry="8" style="stroke: #A80036; stroke-width: 2.0;"/><path d="M40.5,564.3203 L40.5,591.3203 M27.5,572.3203 L53.5,572.3203 M40.5,591.3203 L27.5,606.3203 M40.5,591.3203 L53.5,606.3203 " fill="none" filter="url(#f19jc6l5movgq)" style="stroke: #A80036; stroke-width: 2.0;"/><rect fill="#FEFECE" filter="url(#f19jc6l5movgq)" height="30.2969" style="stroke: #A80036; stroke-width: 1.5;" width="232" x="83" y="51"/><text fill="#000000" font-family="sans-serif" font-size="14" lengthAdjust="spacingAndGlyphs" textLength="218" x="90" y="70.9951">MQTT_4_door_entrance_puzzle</text><rect fill="#FEFECE" filter="url(#f19jc6l5movgq)" height="30.2969" style="stroke: #A80036; stroke-width: 1.5;" width="232" x="83" y="530.0234"/><text fill="#000000" font-family="sans-serif" font-size="14" lengthAdjust="spacingAndGlyphs" textLength="218" x="90" y="550.0186">MQTT_4_door_entrance_puzzle</text><rect fill="#FEFECE" filter="url(#f19jc6l5movgq)" height="30.2969" style="stroke: #A80036; stroke-width: 1.5;" width="60" x="329" y="51"/><text fill="#000000" font-family="sans-serif" font-size="14" lengthAdjust="spacingAndGlyphs" textLength="46" x="336" y="70.9951">puzzle</text><rect fill="#FEFECE" filter="url(#f19jc6l5movgq)" height="30.2969" style="stroke: #A80036; stroke-width: 1.5;" width="60" x="329" y="530.0234"/><text fill="#000000" font-family="sans-serif" font-size="14" lengthAdjust="spacingAndGlyphs" textLength="46" x="336" y="550.0186">puzzle</text><rect fill="#FEFECE" filter="url(#f19jc6l5movgq)" height="30.2969" style="stroke: #A80036; stroke-width: 1.5;" width="179" x="403" y="51"/><text fill="#000000" font-family="sans-serif" font-size="14" lengthAdjust="spacingAndGlyphs" textLength="165" x="410" y="70.9951">MQTT_4_door_entrance</text><rect fill="#FEFECE" filter="url(#f19jc6l5movgq)" height="30.2969" style="stroke: #A80036; stroke-width: 1.5;" width="179" x="403" y="530.0234"/><text fill="#000000" font-family="sans-serif" font-size="14" lengthAdjust="spacingAndGlyphs" textLength="165" x="410" y="550.0186">MQTT_4_door_entrance</text><rect fill="#EEEEEE" filter="url(#f19jc6l5movgq)" height="3" style="stroke: #EEEEEE; stroke-width: 1.0;" width="588" x="3" y="116.8633"/><line style="stroke: #000000; stroke-width: 1.0;" x1="3" x2="591" y1="116.8633" y2="116.8633"/><line style="stroke: #000000; stroke-width: 1.0;" x1="3" x2="591" y1="119.8633" y2="119.8633"/><rect fill="#EEEEEE" filter="url(#f19jc6l5movgq)" height="23.1328" style="stroke: #000000; stroke-width: 2.0;" width="42" x="276" y="106.2969"/><text fill="#000000" font-family="sans-serif" font-size="13" font-weight="bold" lengthAdjust="spacingAndGlyphs" textLength="23" x="282" y="122.3638">Init</text><polygon fill="#A80036" points="212,156.5625,202,160.5625,212,164.5625,208,160.5625" style="stroke: #A80036; stroke-width: 1.0;"/><line style="stroke: #A80036; stroke-width: 1.0;" x1="206" x2="360" y1="160.5625" y2="160.5625"/><text fill="#000000" font-family="sans-serif" font-size="13" lengthAdjust="spacingAndGlyphs" textLength="49" x="218" y="155.4966">register</text><rect fill="#EEEEEE" filter="url(#f19jc6l5movgq)" height="3" style="stroke: #EEEEEE; stroke-width: 1.0;" width="588" x="3" y="189.1289"/><line style="stroke: #000000; stroke-width: 1.0;" x1="3" x2="591" y1="189.1289" y2="189.1289"/><line style="stroke: #000000; stroke-width: 1.0;" x1="3" x2="591" y1="192.1289" y2="192.1289"/><rect fill="#EEEEEE" filter="url(#f19jc6l5movgq)" height="23.1328" style="stroke: #000000; stroke-width: 2.0;" width="111" x="241.5" y="178.5625"/><text fill="#000000" font-family="sans-serif" font-size="13" font-weight="bold" lengthAdjust="spacingAndGlyphs" textLength="92" x="247.5" y="194.6294">Solve puzzle</text><polygon fill="#A80036" points="189,228.8281,199,232.8281,189,236.8281,193,232.8281" style="stroke: #A80036; stroke-width: 1.0;"/><line style="stroke: #A80036; stroke-width: 1.0;" x1="40.5" x2="195" y1="232.8281" y2="232.8281"/><text fill="#000000" font-family="sans-serif" font-size="13" lengthAdjust="spacingAndGlyphs" textLength="66" x="47.5" y="227.7622">trigger: on</text><polygon fill="#A80036" points="349,257.9609,359,261.9609,349,265.9609,353,261.9609" style="stroke: #A80036; stroke-width: 1.0;"/><line style="stroke: #A80036; stroke-width: 1.0;" x1="201" x2="355" y1="261.9609" y2="261.9609"/><text fill="#000000" font-family="sans-serif" font-size="13" lengthAdjust="spacingAndGlyphs" textLength="66" x="208" y="256.895">trigger: on</text><polygon fill="#A80036" points="212,287.0938,202,291.0938,212,295.0938,208,291.0938" style="stroke: #A80036; stroke-width: 1.0;"/><line style="stroke: #A80036; stroke-width: 1.0;" x1="206" x2="360" y1="291.0938" y2="291.0938"/><text fill="#000000" font-family="sans-serif" font-size="13" lengthAdjust="spacingAndGlyphs" textLength="86" x="218" y="286.0278">status: active</text><path d="M63,306.0938 L140,306.0938 L140,313.0938 L130,323.0938 L63,323.0938 L63,306.0938 " fill="#EEEEEE" style="stroke: #000000; stroke-width: 1.0;"/><rect fill="none" height="77.3984" style="stroke: #000000; stroke-width: 2.0;" width="350" x="63" y="306.0938"/><text fill="#000000" font-family="sans-serif" font-size="13" font-weight="bold" lengthAdjust="spacingAndGlyphs" textLength="32" x="78" y="319.1606">loop</text><a href="while" target="_top" xlink:actuate="onRequest" xlink:show="new" xlink:title="while" xlink:type="simple"><text fill="#0000FF" font-family="sans-serif" font-size="11" font-weight="bold" lengthAdjust="spacingAndGlyphs" text-decoration="underline" textLength="103" x="155" y="318.3042">input wrong key</text></a><path d="M73,330.2266 L137,330.2266 L137,337.2266 L127,347.2266 L73,347.2266 L73,330.2266 " fill="#EEEEEE" style="stroke: #000000; stroke-width: 1.0;"/><rect fill="none" height="46.2656" style="stroke: #000000; stroke-width: 2.0;" width="330" x="73" y="330.2266"/><text fill="#000000" font-family="sans-serif" font-size="13" font-weight="bold" lengthAdjust="spacingAndGlyphs" textLength="19" x="88" y="343.2935">alt</text><a href="on" target="_top" xlink:actuate="onRequest" xlink:show="new" xlink:title="on" xlink:type="simple"><text fill="#0000FF" font-family="sans-serif" font-size="11" font-weight="bold" lengthAdjust="spacingAndGlyphs" text-decoration="underline" textLength="76" x="152" y="342.437">kepad input</text></a><polygon fill="#A80036" points="212,364.4922,202,368.4922,212,372.4922,208,368.4922" style="stroke: #A80036; stroke-width: 1.0;"/><line style="stroke: #A80036; stroke-width: 1.0;" x1="206" x2="360" y1="368.4922" y2="368.4922"/><text fill="#000000" font-family="sans-serif" font-size="13" lengthAdjust="spacingAndGlyphs" textLength="132" x="218" y="363.4263">status: active [input]</text><polygon fill="#A80036" points="212,407.625,202,411.625,212,415.625,208,411.625" style="stroke: #A80036; stroke-width: 1.0;"/><line style="stroke: #A80036; stroke-width: 1.0;" x1="206" x2="360" y1="411.625" y2="411.625"/><text fill="#000000" font-family="sans-serif" font-size="13" lengthAdjust="spacingAndGlyphs" textLength="89" x="218" y="406.5591">status: solved</text><polygon fill="#A80036" points="51.5,436.7578,41.5,440.7578,51.5,444.7578,47.5,440.7578" style="stroke: #A80036; stroke-width: 1.0;"/><line style="stroke: #A80036; stroke-width: 1.0;" x1="45.5" x2="200" y1="440.7578" y2="440.7578"/><text fill="#000000" font-family="sans-serif" font-size="13" lengthAdjust="spacingAndGlyphs" textLength="89" x="57.5" y="435.6919">status: solved</text><rect fill="#EEEEEE" filter="url(#f19jc6l5movgq)" height="3" style="stroke: #EEEEEE; stroke-width: 1.0;" width="588" x="3" y="469.3242"/><line style="stroke: #000000; stroke-width: 1.0;" x1="3" x2="591" y1="469.3242" y2="469.3242"/><line style="stroke: #000000; stroke-width: 1.0;" x1="3" x2="591" y1="472.3242" y2="472.3242"/><rect fill="#EEEEEE" filter="url(#f19jc6l5movgq)" height="23.1328" style="stroke: #000000; stroke-width: 2.0;" width="172" x="211" y="458.7578"/><text fill="#000000" font-family="sans-serif" font-size="13" font-weight="bold" lengthAdjust="spacingAndGlyphs" textLength="148" x="217" y="474.8247">Open entrance door</text><polygon fill="#A80036" points="482.5,509.0234,492.5,513.0234,482.5,517.0234,486.5,513.0234" style="stroke: #A80036; stroke-width: 1.0;"/><line style="stroke: #A80036; stroke-width: 1.0;" x1="40.5" x2="488.5" y1="513.0234" y2="513.0234"/><text fill="#000000" font-family="sans-serif" font-size="13" lengthAdjust="spacingAndGlyphs" textLength="66" x="47.5" y="507.9575">trigger: on</text><!--
@startuml group_4_puzzle_entrance_door
actor operator
participant MQTT_4_door_entrance_puzzle
participant puzzle
participant MQTT_4_door_entrance

== Init ==
puzzle -> MQTT_4_door_entrance_puzzle: register

== Solve puzzle ==
operator -> MQTT_4_door_entrance_puzzle: trigger: on
MQTT_4_door_entrance_puzzle -> puzzle: trigger: on
puzzle -> MQTT_4_door_entrance_puzzle: status: active

loop [while input wrong key]
    alt [on kepad input]
        puzzle -> MQTT_4_door_entrance_puzzle: status: active [input]
    end
end

puzzle -> MQTT_4_door_entrance_puzzle: status: solved
MQTT_4_door_entrance_puzzle -> operator: status: solved

== Open entrance door  ==
operator -> MQTT_4_door_entrance: trigger: on
@enduml

PlantUML version 1.2019.09(Mon Aug 26 18:19:51 CEST 2019)
(GPL source distribution)
Java Runtime: OpenJDK Runtime Environment
JVM: OpenJDK 64-Bit Server VM
Java Version: 11.0.4+11-post-Ubuntu-1ubuntu218.04.3
Operating System: Linux
OS Version: 5.0.0-37-generic
Default Encoding: UTF-8
Language: en
Country: US
--></g></svg>