<?xml version="1.0" encoding="UTF-8" standalone="no"?><svg xmlns="http://www.w3.org/2000/svg" xmlns:xlink="http://www.w3.org/1999/xlink" contentScriptType="application/ecmascript" contentStyleType="text/css" height="903px" preserveAspectRatio="none" style="width:406px;height:903px;" version="1.1" viewBox="0 0 406 903" width="406px" zoomAndPan="magnify"><defs><filter height="300%" id="f1df4t9y01yk98" width="300%" x="-1" y="-1"><feGaussianBlur result="blurOut" stdDeviation="2.0"/><feColorMatrix in="blurOut" result="blurOut2" type="matrix" values="0 0 0 0 0 0 0 0 0 0 0 0 0 0 0 0 0 0 .4 0"/><feOffset dx="4.0" dy="4.0" in="blurOut2" result="blurOut3"/><feBlend in="SourceGraphic" in2="blurOut3" mode="normal"/></filter></defs><g><rect fill="#FFFFFF" filter="url(#f1df4t9y01yk98)" height="147.1406" style="stroke: #000000; stroke-width: 2.0;" width="329" x="50" y="360.3594"/><rect fill="#FFFFFF" height="43.9375" style="stroke: none; stroke-width: 1.0;" width="329" x="50" y="419.625"/><rect fill="#FFFFFF" height="43.9375" style="stroke: none; stroke-width: 1.0;" width="329" x="50" y="463.5625"/><rect fill="#FFFFFF" filter="url(#f1df4t9y01yk98)" height="147.1406" style="stroke: #000000; stroke-width: 2.0;" width="322" x="50" y="652.0313"/><rect fill="#FFFFFF" height="43.9375" style="stroke: none; stroke-width: 1.0;" width="322" x="50" y="711.2969"/><rect fill="#FFFFFF" height="43.9375" style="stroke: none; stroke-width: 1.0;" width="322" x="50" y="755.2344"/><line style="stroke: #A80036; stroke-width: 1.0; stroke-dasharray: 5.0,5.0;" x1="29" x2="29" y1="86.2969" y2="816.1719"/><line style="stroke: #A80036; stroke-width: 1.0; stroke-dasharray: 5.0,5.0;" x1="125" x2="125" y1="86.2969" y2="816.1719"/><line style="stroke: #A80036; stroke-width: 1.0; stroke-dasharray: 5.0,5.0;" x1="309" x2="309" y1="86.2969" y2="816.1719"/><text fill="#000000" font-family="sans-serif" font-size="14" lengthAdjust="spacingAndGlyphs" textLength="36" x="8" y="82.9951">Actor</text><ellipse cx="29" cy="13" fill="#FEFECE" filter="url(#f1df4t9y01yk98)" rx="8" ry="8" style="stroke: #A80036; stroke-width: 2.0;"/><path d="M29,21 L29,48 M16,29 L42,29 M29,48 L16,63 M29,48 L42,63 " fill="none" filter="url(#f1df4t9y01yk98)" style="stroke: #A80036; stroke-width: 2.0;"/><text fill="#000000" font-family="sans-serif" font-size="14" lengthAdjust="spacingAndGlyphs" textLength="36" x="8" y="828.167">Actor</text><ellipse cx="29" cy="841.4688" fill="#FEFECE" filter="url(#f1df4t9y01yk98)" rx="8" ry="8" style="stroke: #A80036; stroke-width: 2.0;"/><path d="M29,849.4688 L29,876.4688 M16,857.4688 L42,857.4688 M29,876.4688 L16,891.4688 M29,876.4688 L42,891.4688 " fill="none" filter="url(#f1df4t9y01yk98)" style="stroke: #A80036; stroke-width: 2.0;"/><rect fill="#FEFECE" filter="url(#f1df4t9y01yk98)" height="30.2969" style="stroke: #A80036; stroke-width: 1.5;" width="126" x="60" y="51"/><text fill="#000000" font-family="sans-serif" font-size="14" lengthAdjust="spacingAndGlyphs" textLength="112" x="67" y="70.9951">mqtt_door_topic</text><rect fill="#FEFECE" filter="url(#f1df4t9y01yk98)" height="30.2969" style="stroke: #A80036; stroke-width: 1.5;" width="126" x="60" y="815.1719"/><text fill="#000000" font-family="sans-serif" font-size="14" lengthAdjust="spacingAndGlyphs" textLength="112" x="67" y="835.167">mqtt_door_topic</text><rect fill="#FEFECE" filter="url(#f1df4t9y01yk98)" height="30.2969" style="stroke: #A80036; stroke-width: 1.5;" width="46" x="284" y="51"/><text fill="#000000" font-family="sans-serif" font-size="14" lengthAdjust="spacingAndGlyphs" textLength="32" x="291" y="70.9951">door</text><rect fill="#FEFECE" filter="url(#f1df4t9y01yk98)" height="30.2969" style="stroke: #A80036; stroke-width: 1.5;" width="46" x="284" y="815.1719"/><text fill="#000000" font-family="sans-serif" font-size="14" lengthAdjust="spacingAndGlyphs" textLength="32" x="291" y="835.167">door</text><path d="M44,101.2969 L44,141.2969 L385,141.2969 L385,111.2969 L375,101.2969 L44,101.2969 " fill="#FBFB77" filter="url(#f1df4t9y01yk98)" style="stroke: #A80036; stroke-width: 1.0;"/><path d="M375,101.2969 L375,111.2969 L385,111.2969 L375,101.2969 " fill="#FBFB77" style="stroke: #A80036; stroke-width: 1.0;"/><text fill="#000000" font-family="sans-serif" font-size="13" lengthAdjust="spacingAndGlyphs" textLength="320" x="50" y="118.3638">&lt;mqtt_door_topic&gt; and &lt;door&gt; are placeholders</text><text fill="#000000" font-family="sans-serif" font-size="13" lengthAdjust="spacingAndGlyphs" textLength="302" x="50" y="133.4966">for their instances (ex. MQTT_4_door_entrance)</text><rect fill="#EEEEEE" filter="url(#f1df4t9y01yk98)" height="3" style="stroke: #EEEEEE; stroke-width: 1.0;" width="391" x="3" y="171.1289"/><line style="stroke: #000000; stroke-width: 1.0;" x1="3" x2="394" y1="171.1289" y2="171.1289"/><line style="stroke: #000000; stroke-width: 1.0;" x1="3" x2="394" y1="174.1289" y2="174.1289"/><rect fill="#EEEEEE" filter="url(#f1df4t9y01yk98)" height="23.1328" style="stroke: #000000; stroke-width: 2.0;" width="42" x="177.5" y="160.5625"/><text fill="#000000" font-family="sans-serif" font-size="13" font-weight="bold" lengthAdjust="spacingAndGlyphs" textLength="23" x="183.5" y="176.6294">Init</text><polygon fill="#A80036" points="136,210.8281,126,214.8281,136,218.8281,132,214.8281" style="stroke: #A80036; stroke-width: 1.0;"/><line style="stroke: #A80036; stroke-width: 1.0;" x1="130" x2="308" y1="214.8281" y2="214.8281"/><text fill="#000000" font-family="sans-serif" font-size="13" lengthAdjust="spacingAndGlyphs" textLength="49" x="142" y="209.7622">register</text><rect fill="#EEEEEE" filter="url(#f1df4t9y01yk98)" height="3" style="stroke: #EEEEEE; stroke-width: 1.0;" width="391" x="3" y="243.3945"/><line style="stroke: #000000; stroke-width: 1.0;" x1="3" x2="394" y1="243.3945" y2="243.3945"/><line style="stroke: #000000; stroke-width: 1.0;" x1="3" x2="394" y1="246.3945" y2="246.3945"/><rect fill="#EEEEEE" filter="url(#f1df4t9y01yk98)" height="23.1328" style="stroke: #000000; stroke-width: 2.0;" width="97" x="150" y="232.8281"/><text fill="#000000" font-family="sans-serif" font-size="13" font-weight="bold" lengthAdjust="spacingAndGlyphs" textLength="78" x="156" y="248.895">Open door</text><polygon fill="#A80036" points="113,283.0938,123,287.0938,113,291.0938,117,287.0938" style="stroke: #A80036; stroke-width: 1.0;"/><line style="stroke: #A80036; stroke-width: 1.0;" x1="29" x2="119" y1="287.0938" y2="287.0938"/><text fill="#000000" font-family="sans-serif" font-size="13" lengthAdjust="spacingAndGlyphs" textLength="66" x="36" y="282.0278">trigger: on</text><polygon fill="#A80036" points="297,312.2266,307,316.2266,297,320.2266,301,316.2266" style="stroke: #A80036; stroke-width: 1.0;"/><line style="stroke: #A80036; stroke-width: 1.0;" x1="125" x2="303" y1="316.2266" y2="316.2266"/><text fill="#000000" font-family="sans-serif" font-size="13" lengthAdjust="spacingAndGlyphs" textLength="66" x="132" y="311.1606">trigger: on</text><polygon fill="#A80036" points="136,341.3594,126,345.3594,136,349.3594,132,345.3594" style="stroke: #A80036; stroke-width: 1.0;"/><line style="stroke: #A80036; stroke-width: 1.0;" x1="130" x2="308" y1="345.3594" y2="345.3594"/><text fill="#000000" font-family="sans-serif" font-size="13" lengthAdjust="spacingAndGlyphs" textLength="151" x="142" y="340.2935">status: active [opening]</text><path d="M50,360.3594 L127,360.3594 L127,367.3594 L117,377.3594 L50,377.3594 L50,360.3594 " fill="#EEEEEE" style="stroke: #000000; stroke-width: 1.0;"/><rect fill="none" height="147.1406" style="stroke: #000000; stroke-width: 2.0;" width="329" x="50" y="360.3594"/><text fill="#000000" font-family="sans-serif" font-size="13" font-weight="bold" lengthAdjust="spacingAndGlyphs" textLength="32" x="65" y="373.4263">loop</text><text fill="#000000" font-family="sans-serif" font-size="11" font-weight="bold" lengthAdjust="spacingAndGlyphs" textLength="131" x="142" y="372.5698">[door is not opened]</text><line style="stroke: #A80036; stroke-width: 1.0;" x1="309" x2="351" y1="398.625" y2="398.625"/><line style="stroke: #A80036; stroke-width: 1.0;" x1="351" x2="351" y1="398.625" y2="411.625"/><line style="stroke: #A80036; stroke-width: 1.0;" x1="310" x2="351" y1="411.625" y2="411.625"/><polygon fill="#A80036" points="320,407.625,310,411.625,320,415.625,316,411.625" style="stroke: #A80036; stroke-width: 1.0;"/><text fill="#000000" font-family="sans-serif" font-size="13" lengthAdjust="spacingAndGlyphs" textLength="51" x="316" y="393.5591">opening</text><line style="stroke: #000000; stroke-width: 1.0; stroke-dasharray: 2.0,2.0;" x1="50" x2="379" y1="420.625" y2="420.625"/><text fill="#000000" font-family="sans-serif" font-size="11" font-weight="bold" lengthAdjust="spacingAndGlyphs" textLength="61" x="55" y="430.8354">[on error]</text><polygon fill="#A80036" points="136,451.5625,126,455.5625,136,459.5625,132,455.5625" style="stroke: #A80036; stroke-width: 1.0;"/><line style="stroke: #A80036; stroke-width: 1.0;" x1="130" x2="308" y1="455.5625" y2="455.5625"/><text fill="#000000" font-family="sans-serif" font-size="13" lengthAdjust="spacingAndGlyphs" textLength="160" x="142" y="450.4966">status: failed [error_json]</text><line style="stroke: #000000; stroke-width: 1.0; stroke-dasharray: 2.0,2.0;" x1="50" x2="379" y1="464.5625" y2="464.5625"/><text fill="#000000" font-family="sans-serif" font-size="11" font-weight="bold" lengthAdjust="spacingAndGlyphs" textLength="78" x="55" y="474.7729">[on opened]</text><polygon fill="#A80036" points="136,495.5,126,499.5,136,503.5,132,499.5" style="stroke: #A80036; stroke-width: 1.0;"/><line style="stroke: #A80036; stroke-width: 1.0;" x1="130" x2="308" y1="499.5" y2="499.5"/><text fill="#000000" font-family="sans-serif" font-size="13" lengthAdjust="spacingAndGlyphs" textLength="159" x="142" y="494.4341">status: inactive [opened]</text><rect fill="#EEEEEE" filter="url(#f1df4t9y01yk98)" height="3" style="stroke: #EEEEEE; stroke-width: 1.0;" width="391" x="3" y="535.0664"/><line style="stroke: #000000; stroke-width: 1.0;" x1="3" x2="394" y1="535.0664" y2="535.0664"/><line style="stroke: #000000; stroke-width: 1.0;" x1="3" x2="394" y1="538.0664" y2="538.0664"/><rect fill="#EEEEEE" filter="url(#f1df4t9y01yk98)" height="23.1328" style="stroke: #000000; stroke-width: 2.0;" width="98" x="149.5" y="524.5"/><text fill="#000000" font-family="sans-serif" font-size="13" font-weight="bold" lengthAdjust="spacingAndGlyphs" textLength="79" x="155.5" y="540.5669">Close door</text><polygon fill="#A80036" points="113,574.7656,123,578.7656,113,582.7656,117,578.7656" style="stroke: #A80036; stroke-width: 1.0;"/><line style="stroke: #A80036; stroke-width: 1.0;" x1="29" x2="119" y1="578.7656" y2="578.7656"/><text fill="#000000" font-family="sans-serif" font-size="13" lengthAdjust="spacingAndGlyphs" textLength="66" x="36" y="573.6997">trigger: off</text><polygon fill="#A80036" points="297,603.8984,307,607.8984,297,611.8984,301,607.8984" style="stroke: #A80036; stroke-width: 1.0;"/><line style="stroke: #A80036; stroke-width: 1.0;" x1="125" x2="303" y1="607.8984" y2="607.8984"/><text fill="#000000" font-family="sans-serif" font-size="13" lengthAdjust="spacingAndGlyphs" textLength="66" x="132" y="602.8325">trigger: off</text><polygon fill="#A80036" points="136,633.0313,126,637.0313,136,641.0313,132,637.0313" style="stroke: #A80036; stroke-width: 1.0;"/><line style="stroke: #A80036; stroke-width: 1.0;" x1="130" x2="308" y1="637.0313" y2="637.0313"/><text fill="#000000" font-family="sans-serif" font-size="13" lengthAdjust="spacingAndGlyphs" textLength="144" x="142" y="631.9653">status: active [closing]</text><path d="M50,652.0313 L127,652.0313 L127,659.0313 L117,669.0313 L50,669.0313 L50,652.0313 " fill="#EEEEEE" style="stroke: #000000; stroke-width: 1.0;"/><rect fill="none" height="147.1406" style="stroke: #000000; stroke-width: 2.0;" width="322" x="50" y="652.0313"/><text fill="#000000" font-family="sans-serif" font-size="13" font-weight="bold" lengthAdjust="spacingAndGlyphs" textLength="32" x="65" y="665.0981">loop</text><text fill="#000000" font-family="sans-serif" font-size="11" font-weight="bold" lengthAdjust="spacingAndGlyphs" textLength="125" x="142" y="664.2417">[door is not closed]</text><line style="stroke: #A80036; stroke-width: 1.0;" x1="309" x2="351" y1="690.2969" y2="690.2969"/><line style="stroke: #A80036; stroke-width: 1.0;" x1="351" x2="351" y1="690.2969" y2="703.2969"/><line style="stroke: #A80036; stroke-width: 1.0;" x1="310" x2="351" y1="703.2969" y2="703.2969"/><polygon fill="#A80036" points="320,699.2969,310,703.2969,320,707.2969,316,703.2969" style="stroke: #A80036; stroke-width: 1.0;"/><text fill="#000000" font-family="sans-serif" font-size="13" lengthAdjust="spacingAndGlyphs" textLength="44" x="316" y="685.231">closing</text><line style="stroke: #000000; stroke-width: 1.0; stroke-dasharray: 2.0,2.0;" x1="50" x2="372" y1="712.2969" y2="712.2969"/><text fill="#000000" font-family="sans-serif" font-size="11" font-weight="bold" lengthAdjust="spacingAndGlyphs" textLength="61" x="55" y="722.5073">[on error]</text><polygon fill="#A80036" points="136,743.2344,126,747.2344,136,751.2344,132,747.2344" style="stroke: #A80036; stroke-width: 1.0;"/><line style="stroke: #A80036; stroke-width: 1.0;" x1="130" x2="308" y1="747.2344" y2="747.2344"/><text fill="#000000" font-family="sans-serif" font-size="13" lengthAdjust="spacingAndGlyphs" textLength="160" x="142" y="742.1685">status: failed [error_json]</text><line style="stroke: #000000; stroke-width: 1.0; stroke-dasharray: 2.0,2.0;" x1="50" x2="372" y1="756.2344" y2="756.2344"/><text fill="#000000" font-family="sans-serif" font-size="11" font-weight="bold" lengthAdjust="spacingAndGlyphs" textLength="72" x="55" y="766.4448">[on closed]</text><polygon fill="#A80036" points="136,787.1719,126,791.1719,136,795.1719,132,791.1719" style="stroke: #A80036; stroke-width: 1.0;"/><line style="stroke: #A80036; stroke-width: 1.0;" x1="130" x2="308" y1="791.1719" y2="791.1719"/><text fill="#000000" font-family="sans-serif" font-size="13" lengthAdjust="spacingAndGlyphs" textLength="152" x="142" y="786.106">status: inactive [closed]</text><!--
@startuml group_4_door
actor Actor
participant mqtt_door_topic
participant door
note over mqtt_door_topic, door
    <mqtt_door_topic> and <door> are placeholders
    for their instances (ex. MQTT_4_door_entrance)
end note

== Init ==
door -> mqtt_door_topic: register

== Open door ==
Actor -> mqtt_door_topic: trigger: on
mqtt_door_topic -> door: trigger: on
door -> mqtt_door_topic: status: active [opening]
loop door is not opened
    door -> door: opening
else on error
    door -> mqtt_door_topic: status: failed [error_json]
else on opened
    door -> mqtt_door_topic: status: inactive [opened]
end

== Close door ==
Actor -> mqtt_door_topic: trigger: off
mqtt_door_topic -> door: trigger: off
door -> mqtt_door_topic: status: active [closing]
loop door is not closed
    door -> door: closing
else on error
    door -> mqtt_door_topic: status: failed [error_json]
else on closed
    door -> mqtt_door_topic: status: inactive [closed]
end
@enduml

PlantUML version 1.2019.09(Mon Aug 26 18:19:51 CEST 2019)
(GPL source distribution)
Java Runtime: OpenJDK Runtime Environment
JVM: OpenJDK 64-Bit Server VM
Java Version: 11.0.5+10-post-Ubuntu-0ubuntu1.118.04
Operating System: Linux
OS Version: 5.0.0-37-generic
Default Encoding: UTF-8
Language: en
Country: US
--></g></svg>