<?xml version="1.0" encoding="UTF-8" standalone="no"?><svg xmlns="http://www.w3.org/2000/svg" xmlns:xlink="http://www.w3.org/1999/xlink" contentScriptType="application/ecmascript" contentStyleType="text/css" height="391px" preserveAspectRatio="none" style="width:1219px;height:391px;" version="1.1" viewBox="0 0 1219 391" width="1219px" zoomAndPan="magnify"><defs><filter height="300%" id="f1og37rkkgssjo" width="300%" x="-1" y="-1"><feGaussianBlur result="blurOut" stdDeviation="2.0"/><feColorMatrix in="blurOut" result="blurOut2" type="matrix" values="0 0 0 0 0 0 0 0 0 0 0 0 0 0 0 0 0 0 .4 0"/><feOffset dx="4.0" dy="4.0" in="blurOut2" result="blurOut3"/><feBlend in="SourceGraphic" in2="blurOut3" mode="normal"/></filter></defs><g><!--class WorkflowBase--><rect fill="#FEFECE" filter="url(#f1og37rkkgssjo)" height="48" id="WorkflowBase" style="stroke: #A80036; stroke-width: 1.5;" width="118" x="576.5" y="8"/><ellipse cx="591.5" cy="24" fill="#ADD1B2" rx="11" ry="11" style="stroke: #A80036; stroke-width: 1.0;"/><path d="M594.4688,29.6406 Q593.8906,29.9375 593.25,30.0781 Q592.6094,30.2344 591.9063,30.2344 Q589.4063,30.2344 588.0781,28.5938 Q586.7656,26.9375 586.7656,23.8125 Q586.7656,20.6875 588.0781,19.0313 Q589.4063,17.375 591.9063,17.375 Q592.6094,17.375 593.25,17.5313 Q593.9063,17.6875 594.4688,17.9844 L594.4688,20.7031 Q593.8438,20.125 593.25,19.8594 Q592.6563,19.5781 592.0313,19.5781 Q590.6875,19.5781 590,20.6563 Q589.3125,21.7188 589.3125,23.8125 Q589.3125,25.9063 590,26.9844 Q590.6875,28.0469 592.0313,28.0469 Q592.6563,28.0469 593.25,27.7813 Q593.8438,27.5 594.4688,26.9219 L594.4688,29.6406 Z "/><text fill="#000000" font-family="sans-serif" font-size="12" lengthAdjust="spacingAndGlyphs" textLength="86" x="605.5" y="28.1543">WorkflowBase</text><line style="stroke: #A80036; stroke-width: 1.5;" x1="577.5" x2="693.5" y1="40" y2="40"/><line style="stroke: #A80036; stroke-width: 1.5;" x1="577.5" x2="693.5" y1="48" y2="48"/><!--class Workflow--><rect fill="#FEFECE" filter="url(#f1og37rkkgssjo)" height="48" id="Workflow" style="stroke: #A80036; stroke-width: 1.5;" width="87" x="168" y="116"/><ellipse cx="183" cy="132" fill="#ADD1B2" rx="11" ry="11" style="stroke: #A80036; stroke-width: 1.0;"/><path d="M185.9688,137.6406 Q185.3906,137.9375 184.75,138.0781 Q184.1094,138.2344 183.4063,138.2344 Q180.9063,138.2344 179.5781,136.5938 Q178.2656,134.9375 178.2656,131.8125 Q178.2656,128.6875 179.5781,127.0313 Q180.9063,125.375 183.4063,125.375 Q184.1094,125.375 184.75,125.5313 Q185.4063,125.6875 185.9688,125.9844 L185.9688,128.7031 Q185.3438,128.125 184.75,127.8594 Q184.1563,127.5781 183.5313,127.5781 Q182.1875,127.5781 181.5,128.6563 Q180.8125,129.7188 180.8125,131.8125 Q180.8125,133.9063 181.5,134.9844 Q182.1875,136.0469 183.5313,136.0469 Q184.1563,136.0469 184.75,135.7813 Q185.3438,135.5 185.9688,134.9219 L185.9688,137.6406 Z "/><text fill="#000000" font-family="sans-serif" font-size="12" lengthAdjust="spacingAndGlyphs" textLength="55" x="197" y="136.1543">Workflow</text><line style="stroke: #A80036; stroke-width: 1.5;" x1="169" x2="254" y1="148" y2="148"/><line style="stroke: #A80036; stroke-width: 1.5;" x1="169" x2="254" y1="156" y2="156"/><!--class SequenceWorkflow--><rect fill="#FEFECE" filter="url(#f1og37rkkgssjo)" height="48" id="SequenceWorkflow" style="stroke: #A80036; stroke-width: 1.5;" width="150" x="292.5" y="116"/><ellipse cx="307.5" cy="132" fill="#ADD1B2" rx="11" ry="11" style="stroke: #A80036; stroke-width: 1.0;"/><path d="M310.4688,137.6406 Q309.8906,137.9375 309.25,138.0781 Q308.6094,138.2344 307.9063,138.2344 Q305.4063,138.2344 304.0781,136.5938 Q302.7656,134.9375 302.7656,131.8125 Q302.7656,128.6875 304.0781,127.0313 Q305.4063,125.375 307.9063,125.375 Q308.6094,125.375 309.25,125.5313 Q309.9063,125.6875 310.4688,125.9844 L310.4688,128.7031 Q309.8438,128.125 309.25,127.8594 Q308.6563,127.5781 308.0313,127.5781 Q306.6875,127.5781 306,128.6563 Q305.3125,129.7188 305.3125,131.8125 Q305.3125,133.9063 306,134.9844 Q306.6875,136.0469 308.0313,136.0469 Q308.6563,136.0469 309.25,135.7813 Q309.8438,135.5 310.4688,134.9219 L310.4688,137.6406 Z "/><text fill="#000000" font-family="sans-serif" font-size="12" lengthAdjust="spacingAndGlyphs" textLength="118" x="321.5" y="136.1543">SequenceWorkflow</text><line style="stroke: #A80036; stroke-width: 1.5;" x1="293.5" x2="441.5" y1="148" y2="148"/><line style="stroke: #A80036; stroke-width: 1.5;" x1="293.5" x2="441.5" y1="156" y2="156"/><!--class ParallelWorkflow--><rect fill="#FEFECE" filter="url(#f1og37rkkgssjo)" height="48" id="ParallelWorkflow" style="stroke: #A80036; stroke-width: 1.5;" width="133" x="478" y="116"/><ellipse cx="493" cy="132" fill="#ADD1B2" rx="11" ry="11" style="stroke: #A80036; stroke-width: 1.0;"/><path d="M495.9688,137.6406 Q495.3906,137.9375 494.75,138.0781 Q494.1094,138.2344 493.4063,138.2344 Q490.9063,138.2344 489.5781,136.5938 Q488.2656,134.9375 488.2656,131.8125 Q488.2656,128.6875 489.5781,127.0313 Q490.9063,125.375 493.4063,125.375 Q494.1094,125.375 494.75,125.5313 Q495.4063,125.6875 495.9688,125.9844 L495.9688,128.7031 Q495.3438,128.125 494.75,127.8594 Q494.1563,127.5781 493.5313,127.5781 Q492.1875,127.5781 491.5,128.6563 Q490.8125,129.7188 490.8125,131.8125 Q490.8125,133.9063 491.5,134.9844 Q492.1875,136.0469 493.5313,136.0469 Q494.1563,136.0469 494.75,135.7813 Q495.3438,135.5 495.9688,134.9219 L495.9688,137.6406 Z "/><text fill="#000000" font-family="sans-serif" font-size="12" lengthAdjust="spacingAndGlyphs" textLength="101" x="507" y="136.1543">ParallelWorkflow</text><line style="stroke: #A80036; stroke-width: 1.5;" x1="479" x2="610" y1="148" y2="148"/><line style="stroke: #A80036; stroke-width: 1.5;" x1="479" x2="610" y1="156" y2="156"/><!--class CombinedWorkflow--><rect fill="#FEFECE" filter="url(#f1og37rkkgssjo)" height="48" id="CombinedWorkflow" style="stroke: #A80036; stroke-width: 1.5;" width="149" x="296" y="224"/><ellipse cx="311" cy="240" fill="#ADD1B2" rx="11" ry="11" style="stroke: #A80036; stroke-width: 1.0;"/><path d="M313.9688,245.6406 Q313.3906,245.9375 312.75,246.0781 Q312.1094,246.2344 311.4063,246.2344 Q308.9063,246.2344 307.5781,244.5938 Q306.2656,242.9375 306.2656,239.8125 Q306.2656,236.6875 307.5781,235.0313 Q308.9063,233.375 311.4063,233.375 Q312.1094,233.375 312.75,233.5313 Q313.4063,233.6875 313.9688,233.9844 L313.9688,236.7031 Q313.3438,236.125 312.75,235.8594 Q312.1563,235.5781 311.5313,235.5781 Q310.1875,235.5781 309.5,236.6563 Q308.8125,237.7188 308.8125,239.8125 Q308.8125,241.9063 309.5,242.9844 Q310.1875,244.0469 311.5313,244.0469 Q312.1563,244.0469 312.75,243.7813 Q313.3438,243.5 313.9688,242.9219 L313.9688,245.6406 Z "/><text fill="#000000" font-family="sans-serif" font-size="12" lengthAdjust="spacingAndGlyphs" textLength="117" x="325" y="244.1543">CombinedWorkflow</text><line style="stroke: #A80036; stroke-width: 1.5;" x1="297" x2="444" y1="256" y2="256"/><line style="stroke: #A80036; stroke-width: 1.5;" x1="297" x2="444" y1="264" y2="264"/><!--class SendTriggerWorkflow--><rect fill="#FEFECE" filter="url(#f1og37rkkgssjo)" height="48" id="SendTriggerWorkflow" style="stroke: #A80036; stroke-width: 1.5;" width="163" x="646" y="116"/><ellipse cx="661" cy="132" fill="#ADD1B2" rx="11" ry="11" style="stroke: #A80036; stroke-width: 1.0;"/><path d="M663.9688,137.6406 Q663.3906,137.9375 662.75,138.0781 Q662.1094,138.2344 661.4063,138.2344 Q658.9063,138.2344 657.5781,136.5938 Q656.2656,134.9375 656.2656,131.8125 Q656.2656,128.6875 657.5781,127.0313 Q658.9063,125.375 661.4063,125.375 Q662.1094,125.375 662.75,125.5313 Q663.4063,125.6875 663.9688,125.9844 L663.9688,128.7031 Q663.3438,128.125 662.75,127.8594 Q662.1563,127.5781 661.5313,127.5781 Q660.1875,127.5781 659.5,128.6563 Q658.8125,129.7188 658.8125,131.8125 Q658.8125,133.9063 659.5,134.9844 Q660.1875,136.0469 661.5313,136.0469 Q662.1563,136.0469 662.75,135.7813 Q663.3438,135.5 663.9688,134.9219 L663.9688,137.6406 Z "/><text fill="#000000" font-family="sans-serif" font-size="12" lengthAdjust="spacingAndGlyphs" textLength="131" x="675" y="136.1543">SendTriggerWorkflow</text><line style="stroke: #A80036; stroke-width: 1.5;" x1="647" x2="808" y1="148" y2="148"/><line style="stroke: #A80036; stroke-width: 1.5;" x1="647" x2="808" y1="156" y2="156"/><!--class ScaleWorkflow--><rect fill="#FEFECE" filter="url(#f1og37rkkgssjo)" height="48" id="ScaleWorkflow" style="stroke: #A80036; stroke-width: 1.5;" width="121" x="6" y="224"/><ellipse cx="21" cy="240" fill="#ADD1B2" rx="11" ry="11" style="stroke: #A80036; stroke-width: 1.0;"/><path d="M23.9688,245.6406 Q23.3906,245.9375 22.75,246.0781 Q22.1094,246.2344 21.4063,246.2344 Q18.9063,246.2344 17.5781,244.5938 Q16.2656,242.9375 16.2656,239.8125 Q16.2656,236.6875 17.5781,235.0313 Q18.9063,233.375 21.4063,233.375 Q22.1094,233.375 22.75,233.5313 Q23.4063,233.6875 23.9688,233.9844 L23.9688,236.7031 Q23.3438,236.125 22.75,235.8594 Q22.1563,235.5781 21.5313,235.5781 Q20.1875,235.5781 19.5,236.6563 Q18.8125,237.7188 18.8125,239.8125 Q18.8125,241.9063 19.5,242.9844 Q20.1875,244.0469 21.5313,244.0469 Q22.1563,244.0469 22.75,243.7813 Q23.3438,243.5 23.9688,242.9219 L23.9688,245.6406 Z "/><text fill="#000000" font-family="sans-serif" font-size="12" lengthAdjust="spacingAndGlyphs" textLength="89" x="35" y="244.1543">ScaleWorkflow</text><line style="stroke: #A80036; stroke-width: 1.5;" x1="7" x2="126" y1="256" y2="256"/><line style="stroke: #A80036; stroke-width: 1.5;" x1="7" x2="126" y1="264" y2="264"/><!--class IPWorkflow--><rect fill="#FEFECE" filter="url(#f1og37rkkgssjo)" height="48" id="IPWorkflow" style="stroke: #A80036; stroke-width: 1.5;" width="98" x="162.5" y="224"/><ellipse cx="177.5" cy="240" fill="#ADD1B2" rx="11" ry="11" style="stroke: #A80036; stroke-width: 1.0;"/><path d="M180.4688,245.6406 Q179.8906,245.9375 179.25,246.0781 Q178.6094,246.2344 177.9063,246.2344 Q175.4063,246.2344 174.0781,244.5938 Q172.7656,242.9375 172.7656,239.8125 Q172.7656,236.6875 174.0781,235.0313 Q175.4063,233.375 177.9063,233.375 Q178.6094,233.375 179.25,233.5313 Q179.9063,233.6875 180.4688,233.9844 L180.4688,236.7031 Q179.8438,236.125 179.25,235.8594 Q178.6563,235.5781 178.0313,235.5781 Q176.6875,235.5781 176,236.6563 Q175.3125,237.7188 175.3125,239.8125 Q175.3125,241.9063 176,242.9844 Q176.6875,244.0469 178.0313,244.0469 Q178.6563,244.0469 179.25,243.7813 Q179.8438,243.5 180.4688,242.9219 L180.4688,245.6406 Z "/><text fill="#000000" font-family="sans-serif" font-size="12" lengthAdjust="spacingAndGlyphs" textLength="66" x="191.5" y="244.1543">IPWorkflow</text><line style="stroke: #A80036; stroke-width: 1.5;" x1="163.5" x2="259.5" y1="256" y2="256"/><line style="stroke: #A80036; stroke-width: 1.5;" x1="163.5" x2="259.5" y1="264" y2="264"/><!--class InitWorkflow--><rect fill="#FEFECE" filter="url(#f1og37rkkgssjo)" height="48" id="InitWorkflow" style="stroke: #A80036; stroke-width: 1.5;" width="106" x="75.5" y="332"/><ellipse cx="90.5" cy="348" fill="#ADD1B2" rx="11" ry="11" style="stroke: #A80036; stroke-width: 1.0;"/><path d="M93.4688,353.6406 Q92.8906,353.9375 92.25,354.0781 Q91.6094,354.2344 90.9063,354.2344 Q88.4063,354.2344 87.0781,352.5938 Q85.7656,350.9375 85.7656,347.8125 Q85.7656,344.6875 87.0781,343.0313 Q88.4063,341.375 90.9063,341.375 Q91.6094,341.375 92.25,341.5313 Q92.9063,341.6875 93.4688,341.9844 L93.4688,344.7031 Q92.8438,344.125 92.25,343.8594 Q91.6563,343.5781 91.0313,343.5781 Q89.6875,343.5781 89,344.6563 Q88.3125,345.7188 88.3125,347.8125 Q88.3125,349.9063 89,350.9844 Q89.6875,352.0469 91.0313,352.0469 Q91.6563,352.0469 92.25,351.7813 Q92.8438,351.5 93.4688,350.9219 L93.4688,353.6406 Z "/><text fill="#000000" font-family="sans-serif" font-size="12" lengthAdjust="spacingAndGlyphs" textLength="74" x="104.5" y="352.1543">InitWorkflow</text><line style="stroke: #A80036; stroke-width: 1.5;" x1="76.5" x2="180.5" y1="364" y2="364"/><line style="stroke: #A80036; stroke-width: 1.5;" x1="76.5" x2="180.5" y1="372" y2="372"/><!--class ExitWorkflow--><rect fill="#FEFECE" filter="url(#f1og37rkkgssjo)" height="48" id="ExitWorkflow" style="stroke: #A80036; stroke-width: 1.5;" width="109" x="217" y="332"/><ellipse cx="232" cy="348" fill="#ADD1B2" rx="11" ry="11" style="stroke: #A80036; stroke-width: 1.0;"/><path d="M234.9688,353.6406 Q234.3906,353.9375 233.75,354.0781 Q233.1094,354.2344 232.4063,354.2344 Q229.9063,354.2344 228.5781,352.5938 Q227.2656,350.9375 227.2656,347.8125 Q227.2656,344.6875 228.5781,343.0313 Q229.9063,341.375 232.4063,341.375 Q233.1094,341.375 233.75,341.5313 Q234.4063,341.6875 234.9688,341.9844 L234.9688,344.7031 Q234.3438,344.125 233.75,343.8594 Q233.1563,343.5781 232.5313,343.5781 Q231.1875,343.5781 230.5,344.6563 Q229.8125,345.7188 229.8125,347.8125 Q229.8125,349.9063 230.5,350.9844 Q231.1875,352.0469 232.5313,352.0469 Q233.1563,352.0469 233.75,351.7813 Q234.3438,351.5 234.9688,350.9219 L234.9688,353.6406 Z "/><text fill="#000000" font-family="sans-serif" font-size="12" lengthAdjust="spacingAndGlyphs" textLength="77" x="246" y="352.1543">ExitWorkflow</text><line style="stroke: #A80036; stroke-width: 1.5;" x1="218" x2="325" y1="364" y2="364"/><line style="stroke: #A80036; stroke-width: 1.5;" x1="218" x2="325" y1="372" y2="372"/><!--class AudioControlWorkflow--><rect fill="#FEFECE" filter="url(#f1og37rkkgssjo)" height="48" id="AudioControlWorkflow" style="stroke: #A80036; stroke-width: 1.5;" width="167" x="844" y="116"/><ellipse cx="859" cy="132" fill="#ADD1B2" rx="11" ry="11" style="stroke: #A80036; stroke-width: 1.0;"/><path d="M861.9688,137.6406 Q861.3906,137.9375 860.75,138.0781 Q860.1094,138.2344 859.4063,138.2344 Q856.9063,138.2344 855.5781,136.5938 Q854.2656,134.9375 854.2656,131.8125 Q854.2656,128.6875 855.5781,127.0313 Q856.9063,125.375 859.4063,125.375 Q860.1094,125.375 860.75,125.5313 Q861.4063,125.6875 861.9688,125.9844 L861.9688,128.7031 Q861.3438,128.125 860.75,127.8594 Q860.1563,127.5781 859.5313,127.5781 Q858.1875,127.5781 857.5,128.6563 Q856.8125,129.7188 856.8125,131.8125 Q856.8125,133.9063 857.5,134.9844 Q858.1875,136.0469 859.5313,136.0469 Q860.1563,136.0469 860.75,135.7813 Q861.3438,135.5 861.9688,134.9219 L861.9688,137.6406 Z "/><text fill="#000000" font-family="sans-serif" font-size="12" lengthAdjust="spacingAndGlyphs" textLength="135" x="873" y="136.1543">AudioControlWorkflow</text><line style="stroke: #A80036; stroke-width: 1.5;" x1="845" x2="1010" y1="148" y2="148"/><line style="stroke: #A80036; stroke-width: 1.5;" x1="845" x2="1010" y1="156" y2="156"/><!--class LightControlWorkflow--><rect fill="#FEFECE" filter="url(#f1og37rkkgssjo)" height="48" id="LightControlWorkflow" style="stroke: #A80036; stroke-width: 1.5;" width="162" x="1046.5" y="116"/><ellipse cx="1061.5" cy="132" fill="#ADD1B2" rx="11" ry="11" style="stroke: #A80036; stroke-width: 1.0;"/><path d="M1064.4688,137.6406 Q1063.8906,137.9375 1063.25,138.0781 Q1062.6094,138.2344 1061.9063,138.2344 Q1059.4063,138.2344 1058.0781,136.5938 Q1056.7656,134.9375 1056.7656,131.8125 Q1056.7656,128.6875 1058.0781,127.0313 Q1059.4063,125.375 1061.9063,125.375 Q1062.6094,125.375 1063.25,125.5313 Q1063.9063,125.6875 1064.4688,125.9844 L1064.4688,128.7031 Q1063.8438,128.125 1063.25,127.8594 Q1062.6563,127.5781 1062.0313,127.5781 Q1060.6875,127.5781 1060,128.6563 Q1059.3125,129.7188 1059.3125,131.8125 Q1059.3125,133.9063 1060,134.9844 Q1060.6875,136.0469 1062.0313,136.0469 Q1062.6563,136.0469 1063.25,135.7813 Q1063.8438,135.5 1064.4688,134.9219 L1064.4688,137.6406 Z "/><text fill="#000000" font-family="sans-serif" font-size="12" lengthAdjust="spacingAndGlyphs" textLength="130" x="1075.5" y="136.1543">LightControlWorkflow</text><line style="stroke: #A80036; stroke-width: 1.5;" x1="1047.5" x2="1207.5" y1="148" y2="148"/><line style="stroke: #A80036; stroke-width: 1.5;" x1="1047.5" x2="1207.5" y1="156" y2="156"/><!--class LabRoomLightControlWorkflow--><rect fill="#FEFECE" filter="url(#f1og37rkkgssjo)" height="48" id="LabRoomLightControlWorkflow" style="stroke: #A80036; stroke-width: 1.5;" width="219" x="361" y="332"/><ellipse cx="376" cy="348" fill="#ADD1B2" rx="11" ry="11" style="stroke: #A80036; stroke-width: 1.0;"/><path d="M378.9688,353.6406 Q378.3906,353.9375 377.75,354.0781 Q377.1094,354.2344 376.4063,354.2344 Q373.9063,354.2344 372.5781,352.5938 Q371.2656,350.9375 371.2656,347.8125 Q371.2656,344.6875 372.5781,343.0313 Q373.9063,341.375 376.4063,341.375 Q377.1094,341.375 377.75,341.5313 Q378.4063,341.6875 378.9688,341.9844 L378.9688,344.7031 Q378.3438,344.125 377.75,343.8594 Q377.1563,343.5781 376.5313,343.5781 Q375.1875,343.5781 374.5,344.6563 Q373.8125,345.7188 373.8125,347.8125 Q373.8125,349.9063 374.5,350.9844 Q375.1875,352.0469 376.5313,352.0469 Q377.1563,352.0469 377.75,351.7813 Q378.3438,351.5 378.9688,350.9219 L378.9688,353.6406 Z "/><text fill="#000000" font-family="sans-serif" font-size="12" lengthAdjust="spacingAndGlyphs" textLength="187" x="390" y="352.1543">LabRoomLightControlWorkflow</text><line style="stroke: #A80036; stroke-width: 1.5;" x1="362" x2="579" y1="364" y2="364"/><line style="stroke: #A80036; stroke-width: 1.5;" x1="362" x2="579" y1="372" y2="372"/><!--class ServerRoomLightControlWorkflow--><rect fill="#FEFECE" filter="url(#f1og37rkkgssjo)" height="48" id="ServerRoomLightControlWorkflow" style="stroke: #A80036; stroke-width: 1.5;" width="237" x="615" y="332"/><ellipse cx="630" cy="348" fill="#ADD1B2" rx="11" ry="11" style="stroke: #A80036; stroke-width: 1.0;"/><path d="M632.9688,353.6406 Q632.3906,353.9375 631.75,354.0781 Q631.1094,354.2344 630.4063,354.2344 Q627.9063,354.2344 626.5781,352.5938 Q625.2656,350.9375 625.2656,347.8125 Q625.2656,344.6875 626.5781,343.0313 Q627.9063,341.375 630.4063,341.375 Q631.1094,341.375 631.75,341.5313 Q632.4063,341.6875 632.9688,341.9844 L632.9688,344.7031 Q632.3438,344.125 631.75,343.8594 Q631.1563,343.5781 630.5313,343.5781 Q629.1875,343.5781 628.5,344.6563 Q627.8125,345.7188 627.8125,347.8125 Q627.8125,349.9063 628.5,350.9844 Q629.1875,352.0469 630.5313,352.0469 Q631.1563,352.0469 631.75,351.7813 Q632.3438,351.5 632.9688,350.9219 L632.9688,353.6406 Z "/><text fill="#000000" font-family="sans-serif" font-size="12" lengthAdjust="spacingAndGlyphs" textLength="205" x="644" y="352.1543">ServerRoomLightControlWorkflow</text><line style="stroke: #A80036; stroke-width: 1.5;" x1="616" x2="851" y1="364" y2="364"/><line style="stroke: #A80036; stroke-width: 1.5;" x1="616" x2="851" y1="372" y2="372"/><!--reverse link WorkflowBase to Workflow--><path d="M556.6223,47.3336 C483.1631,62.3355 370.9488,87.1004 275.5,116 C268.9127,117.9945 262.025,120.3172 255.3114,122.7169 " fill="none" id="WorkflowBase&lt;-Workflow" style="stroke: #A80036; stroke-width: 1.0;"/><polygon fill="none" points="555.2778,40.4638,576.2678,43.3658,558.0494,54.1868,555.2778,40.4638" style="stroke: #A80036; stroke-width: 1.0;"/><!--reverse link WorkflowBase to SequenceWorkflow--><path d="M557.6731,63.3631 C516.1581,80.093 465.8597,100.3625 427.4209,115.8528 " fill="none" id="WorkflowBase&lt;-SequenceWorkflow" style="stroke: #A80036; stroke-width: 1.0;"/><polygon fill="none" points="555.1876,56.8177,576.3545,55.8348,560.4206,69.803,555.1876,56.8177" style="stroke: #A80036; stroke-width: 1.0;"/><!--reverse link WorkflowBase to ParallelWorkflow--><path d="M601.8159,71.9767 C589.4038,86.7075 575.7313,102.9342 564.854,115.8436 " fill="none" id="WorkflowBase&lt;-ParallelWorkflow" style="stroke: #A80036; stroke-width: 1.0;"/><polygon fill="none" points="596.8376,67.0214,615.0778,56.2373,607.5438,76.0424,596.8376,67.0214" style="stroke: #A80036; stroke-width: 1.0;"/><!--reverse link SequenceWorkflow to CombinedWorkflow--><path d="M368.7303,184.2911 C369.106,197.8171 369.5051,212.1835 369.829,223.8436 " fill="none" id="SequenceWorkflow&lt;-CombinedWorkflow" style="stroke: #A80036; stroke-width: 1.0;"/><polygon fill="none" points="361.7314,184.424,368.1733,164.2373,375.726,184.0352,361.7314,184.424" style="stroke: #A80036; stroke-width: 1.0;"/><!--reverse link WorkflowBase to SendTriggerWorkflow--><path d="M669.1499,71.5021 C681.8051,86.3582 695.8072,102.7954 706.9223,115.8436 " fill="none" id="WorkflowBase&lt;-SendTriggerWorkflow" style="stroke: #A80036; stroke-width: 1.0;"/><polygon fill="none" points="663.7872,76.0015,656.1466,56.2373,674.4447,66.9229,663.7872,76.0015" style="stroke: #A80036; stroke-width: 1.0;"/><!--reverse link WorkflowBase to AudioControlWorkflow--><path d="M713.4006,60.8126 C759.9276,78.0212 818.3453,99.6277 862.401,115.9223 " fill="none" id="WorkflowBase&lt;-AudioControlWorkflow" style="stroke: #A80036; stroke-width: 1.0;"/><polygon fill="none" points="710.9203,67.3587,694.5906,53.8554,715.7769,54.2281,710.9203,67.3587" style="stroke: #A80036; stroke-width: 1.0;"/><!--reverse link WorkflowBase to LightControlWorkflow--><path d="M714.1752,48.158 C793.6138,64.6274 919.7728,91.2061 1028.5,116 C1034.2763,117.3172 1040.2361,118.7007 1046.2325,120.1105 " fill="none" id="WorkflowBase&lt;-LightControlWorkflow" style="stroke: #A80036; stroke-width: 1.0;"/><polygon fill="none" points="712.7016,55.0015,694.5345,44.0947,715.5379,41.2918,712.7016,55.0015" style="stroke: #A80036; stroke-width: 1.0;"/><!--reverse link Workflow to ScaleWorkflow--><path d="M162.8827,176.2115 C141.8311,191.8913 117.7551,209.8238 98.9322,223.8436 " fill="none" id="Workflow&lt;-ScaleWorkflow" style="stroke: #A80036; stroke-width: 1.0;"/><polygon fill="none" points="158.738,170.5703,178.9592,164.2373,167.1008,181.7981,158.738,170.5703" style="stroke: #A80036; stroke-width: 1.0;"/><!--reverse link Workflow to IPWorkflow--><path d="M211.5,184.2911 C211.5,197.8171 211.5,212.1835 211.5,223.8436 " fill="none" id="Workflow&lt;-IPWorkflow" style="stroke: #A80036; stroke-width: 1.0;"/><polygon fill="none" points="204.5001,184.2373,211.5,164.2373,218.5001,184.2373,204.5001,184.2373" style="stroke: #A80036; stroke-width: 1.0;"/><!--reverse link CombinedWorkflow to InitWorkflow--><path d="M298.2185,280.2579 C260.7266,296.9898 215.7436,317.0648 181.5103,332.3425 " fill="none" id="CombinedWorkflow&lt;-InitWorkflow" style="stroke: #A80036; stroke-width: 1.0;"/><polygon fill="none" points="295.3751,273.8614,316.4917,272.1029,301.0807,286.646,295.3751,273.8614" style="stroke: #A80036; stroke-width: 1.0;"/><!--reverse link CombinedWorkflow to ExitWorkflow--><path d="M334.7239,287.0285 C320.9926,302.0081 305.7314,318.6566 293.6434,331.8436 " fill="none" id="CombinedWorkflow&lt;-ExitWorkflow" style="stroke: #A80036; stroke-width: 1.0;"/><polygon fill="none" points="329.6079,282.2503,348.2825,272.2373,339.928,291.7105,329.6079,282.2503" style="stroke: #A80036; stroke-width: 1.0;"/><!--reverse link CombinedWorkflow to LabRoomLightControlWorkflow--><path d="M406.6375,287.0285 C420.5075,302.0081 435.9228,318.6566 448.1329,331.8436 " fill="none" id="CombinedWorkflow&lt;-LabRoomLightControlWorkflow" style="stroke: #A80036; stroke-width: 1.0;"/><polygon fill="none" points="401.3938,291.6684,392.942,272.2373,411.6665,282.1567,401.3938,291.6684" style="stroke: #A80036; stroke-width: 1.0;"/><!--reverse link CombinedWorkflow to ServerRoomLightControlWorkflow--><path d="M464.763,276.0452 C522.9911,293.3692 596.9363,315.3695 652.5149,331.9052 " fill="none" id="CombinedWorkflow&lt;-ServerRoomLightControlWorkflow" style="stroke: #A80036; stroke-width: 1.0;"/><polygon fill="none" points="462.4471,282.6595,445.2737,270.2467,466.4394,269.2408,462.4471,282.6595" style="stroke: #A80036; stroke-width: 1.0;"/><!--
@startuml workflow_engine_model_special_workflows

class WorkflowBase {
}

class Workflow {
}

class SequenceWorkflow {
}

class ParallelWorkflow {
}

class CombinedWorkflow {
}

class SendTriggerWorkflow {
}

class ScaleWorkflow {
}

class IPWorkflow {
}

class InitWorkflow {
}

class ExitWorkflow {
}

class AudioControlWorkflow {
}

class LightControlWorkflow {
}

class LabRoomLightControlWorkflow {
}

class ServerRoomLightControlWorkflow {
}

WorkflowBase <|- - Workflow
WorkflowBase <|- - SequenceWorkflow
WorkflowBase <|- - ParallelWorkflow

SequenceWorkflow <|- - CombinedWorkflow

WorkflowBase <|- - SendTriggerWorkflow
WorkflowBase <|- - AudioControlWorkflow
WorkflowBase <|- - LightControlWorkflow

Workflow <|- - ScaleWorkflow
Workflow <|- - IPWorkflow

CombinedWorkflow <|- - InitWorkflow
CombinedWorkflow <|- - ExitWorkflow
CombinedWorkflow <|- - LabRoomLightControlWorkflow
CombinedWorkflow <|- - ServerRoomLightControlWorkflow

@enduml

PlantUML version 1.2019.09(Mon Aug 26 18:19:51 CEST 2019)
(GPL source distribution)
Java Runtime: OpenJDK Runtime Environment
JVM: OpenJDK 64-Bit Server VM
Java Version: 11.0.6+10-post-Ubuntu-1ubuntu118.04.1
Operating System: Linux
OS Version: 5.3.0-28-generic
Default Encoding: UTF-8
Language: en
Country: US
--></g></svg>