<?xml version="1.0" encoding="UTF-8" standalone="no"?><svg xmlns="http://www.w3.org/2000/svg" xmlns:xlink="http://www.w3.org/1999/xlink" contentScriptType="application/ecmascript" contentStyleType="text/css" height="473px" preserveAspectRatio="none" style="width:704px;height:473px;" version="1.1" viewBox="0 0 704 473" width="704px" zoomAndPan="magnify"><defs><filter height="300%" id="f38260jvxd7bp" width="300%" x="-1" y="-1"><feGaussianBlur result="blurOut" stdDeviation="2.0"/><feColorMatrix in="blurOut" result="blurOut2" type="matrix" values="0 0 0 0 0 0 0 0 0 0 0 0 0 0 0 0 0 0 .4 0"/><feOffset dx="4.0" dy="4.0" in="blurOut2" result="blurOut3"/><feBlend in="SourceGraphic" in2="blurOut3" mode="normal"/></filter></defs><g><!--class WorkflowState--><rect fill="#FEFECE" filter="url(#f38260jvxd7bp)" height="99.2188" id="WorkflowState" style="stroke: #A80036; stroke-width: 1.5;" width="121" x="556" y="73.5"/><ellipse cx="571" cy="89.5" fill="#EB937F" rx="11" ry="11" style="stroke: #A80036; stroke-width: 1.0;"/><path d="M575.1094,95.5 L567.3906,95.5 L567.3906,83.1094 L575.1094,83.1094 L575.1094,85.2656 L569.8438,85.2656 L569.8438,87.9375 L574.6094,87.9375 L574.6094,90.0938 L569.8438,90.0938 L569.8438,93.3438 L575.1094,93.3438 L575.1094,95.5 Z "/><text fill="#000000" font-family="sans-serif" font-size="12" lengthAdjust="spacingAndGlyphs" textLength="89" x="585" y="93.6543">WorkflowState</text><line style="stroke: #A80036; stroke-width: 1.5;" x1="557" x2="676" y1="105.5" y2="105.5"/><text fill="#000000" font-family="sans-serif" font-size="11" lengthAdjust="spacingAndGlyphs" textLength="50" x="562" y="119.7104">INACTIVE</text><text fill="#000000" font-family="sans-serif" font-size="11" lengthAdjust="spacingAndGlyphs" textLength="39" x="562" y="132.5151">ACTIVE</text><text fill="#000000" font-family="sans-serif" font-size="11" lengthAdjust="spacingAndGlyphs" textLength="51" x="562" y="145.3198">FINISHED</text><text fill="#000000" font-family="sans-serif" font-size="11" lengthAdjust="spacingAndGlyphs" textLength="47" x="562" y="158.1245">SKIPPED</text><line style="stroke: #A80036; stroke-width: 1.5;" x1="557" x2="676" y1="164.7188" y2="164.7188"/><!--class WorkflowBase--><rect fill="#FEFECE" filter="url(#f38260jvxd7bp)" height="230.4609" id="WorkflowBase" style="stroke: #A80036; stroke-width: 1.5;" width="143" x="378" y="8"/><ellipse cx="404.25" cy="24" fill="#ADD1B2" rx="11" ry="11" style="stroke: #A80036; stroke-width: 1.0;"/><path d="M407.2188,29.6406 Q406.6406,29.9375 406,30.0781 Q405.3594,30.2344 404.6563,30.2344 Q402.1563,30.2344 400.8281,28.5938 Q399.5156,26.9375 399.5156,23.8125 Q399.5156,20.6875 400.8281,19.0313 Q402.1563,17.375 404.6563,17.375 Q405.3594,17.375 406,17.5313 Q406.6563,17.6875 407.2188,17.9844 L407.2188,20.7031 Q406.5938,20.125 406,19.8594 Q405.4063,19.5781 404.7813,19.5781 Q403.4375,19.5781 402.75,20.6563 Q402.0625,21.7188 402.0625,23.8125 Q402.0625,25.9063 402.75,26.9844 Q403.4375,28.0469 404.7813,28.0469 Q405.4063,28.0469 406,27.7813 Q406.5938,27.5 407.2188,26.9219 L407.2188,29.6406 Z "/><text fill="#000000" font-family="sans-serif" font-size="12" lengthAdjust="spacingAndGlyphs" textLength="86" x="420.75" y="28.1543">WorkflowBase</text><line style="stroke: #A80036; stroke-width: 1.5;" x1="379" x2="520" y1="40" y2="40"/><ellipse cx="389" cy="51" fill="none" rx="3" ry="3" style="stroke: #038048; stroke-width: 1.0;"/><text fill="#000000" font-family="sans-serif" font-size="11" lengthAdjust="spacingAndGlyphs" textLength="74" x="398" y="54.2104">name: String</text><ellipse cx="389" cy="63.8047" fill="none" rx="3" ry="3" style="stroke: #038048; stroke-width: 1.0;"/><text fill="#000000" font-family="sans-serif" font-size="11" lengthAdjust="spacingAndGlyphs" textLength="117" x="398" y="67.0151">state: WorkflowState</text><line style="stroke: #A80036; stroke-width: 1.0;" x1="379" x2="520" y1="73.6094" y2="73.6094"/><ellipse cx="389" cy="101.4141" fill="#84BE84" rx="3" ry="3" style="stroke: #038048; stroke-width: 1.0;"/><text fill="#000000" font-family="sans-serif" font-size="11" lengthAdjust="spacingAndGlyphs" textLength="52" x="398" y="104.6245">execute()</text><ellipse cx="389" cy="114.2188" fill="#84BE84" rx="3" ry="3" style="stroke: #038048; stroke-width: 1.0;"/><text fill="#000000" font-family="sans-serif" font-size="11" lengthAdjust="spacingAndGlyphs" textLength="53" x="398" y="117.4292">dispose()</text><ellipse cx="389" cy="127.0234" fill="#84BE84" rx="3" ry="3" style="stroke: #038048; stroke-width: 1.0;"/><text fill="#000000" font-family="sans-serif" font-size="11" lengthAdjust="spacingAndGlyphs" textLength="31" x="398" y="130.2339">skip()</text><line style="stroke: #A80036; stroke-width: 1.0; stroke-dasharray: 1.0,2.0;" x1="379" x2="402" y1="88.0117" y2="88.0117"/><text fill="#000000" font-family="sans-serif" font-size="11" lengthAdjust="spacingAndGlyphs" textLength="95" x="402" y="91.3198">Control methods</text><line style="stroke: #A80036; stroke-width: 1.0; stroke-dasharray: 1.0,2.0;" x1="497" x2="520" y1="88.0117" y2="88.0117"/><ellipse cx="389" cy="156.6328" fill="#84BE84" rx="3" ry="3" style="stroke: #038048; stroke-width: 1.0;"/><text fill="#000000" font-family="sans-serif" font-size="11" lengthAdjust="spacingAndGlyphs" textLength="73" x="398" y="159.8433">onMessage()</text><line style="stroke: #A80036; stroke-width: 1.0; stroke-dasharray: 1.0,2.0;" x1="379" x2="410.5" y1="143.2305" y2="143.2305"/><text fill="#000000" font-family="sans-serif" font-size="11" lengthAdjust="spacingAndGlyphs" textLength="78" x="410.5" y="146.5386">Event handler</text><line style="stroke: #A80036; stroke-width: 1.0; stroke-dasharray: 1.0,2.0;" x1="488.5" x2="520" y1="143.2305" y2="143.2305"/><ellipse cx="389" cy="186.2422" fill="#84BE84" rx="3" ry="3" style="stroke: #038048; stroke-width: 1.0;"/><text fill="#000000" font-family="sans-serif" font-size="11" lengthAdjust="spacingAndGlyphs" textLength="102" x="398" y="189.4526">registerOnFailed()</text><ellipse cx="389" cy="199.0469" fill="#84BE84" rx="3" ry="3" style="stroke: #038048; stroke-width: 1.0;"/><text fill="#000000" font-family="sans-serif" font-size="11" lengthAdjust="spacingAndGlyphs" textLength="116" x="398" y="202.2573">registerOnFinished()</text><line style="stroke: #A80036; stroke-width: 1.0; stroke-dasharray: 1.0,2.0;" x1="379" x2="430.5" y1="172.8398" y2="172.8398"/><text fill="#000000" font-family="sans-serif" font-size="11" lengthAdjust="spacingAndGlyphs" textLength="38" x="430.5" y="176.1479">Events</text><line style="stroke: #A80036; stroke-width: 1.0; stroke-dasharray: 1.0,2.0;" x1="468.5" x2="520" y1="172.8398" y2="172.8398"/><ellipse cx="389" cy="228.6563" fill="#84BE84" rx="3" ry="3" style="stroke: #038048; stroke-width: 1.0;"/><text fill="#000000" font-family="sans-serif" font-size="11" lengthAdjust="spacingAndGlyphs" textLength="97" x="398" y="231.8667">getGraphConfig()</text><line style="stroke: #A80036; stroke-width: 1.0; stroke-dasharray: 1.0,2.0;" x1="379" x2="415.5" y1="215.2539" y2="215.2539"/><text fill="#000000" font-family="sans-serif" font-size="11" lengthAdjust="spacingAndGlyphs" textLength="68" x="415.5" y="218.562">State getter</text><line style="stroke: #A80036; stroke-width: 1.0; stroke-dasharray: 1.0,2.0;" x1="483.5" x2="520" y1="215.2539" y2="215.2539"/><!--class Workflow--><rect fill="#FEFECE" filter="url(#f38260jvxd7bp)" height="48" id="Workflow" style="stroke: #A80036; stroke-width: 1.5;" width="87" x="252" y="298"/><ellipse cx="267" cy="314" fill="#ADD1B2" rx="11" ry="11" style="stroke: #A80036; stroke-width: 1.0;"/><path d="M269.9688,319.6406 Q269.3906,319.9375 268.75,320.0781 Q268.1094,320.2344 267.4063,320.2344 Q264.9063,320.2344 263.5781,318.5938 Q262.2656,316.9375 262.2656,313.8125 Q262.2656,310.6875 263.5781,309.0313 Q264.9063,307.375 267.4063,307.375 Q268.1094,307.375 268.75,307.5313 Q269.4063,307.6875 269.9688,307.9844 L269.9688,310.7031 Q269.3438,310.125 268.75,309.8594 Q268.1563,309.5781 267.5313,309.5781 Q266.1875,309.5781 265.5,310.6563 Q264.8125,311.7188 264.8125,313.8125 Q264.8125,315.9063 265.5,316.9844 Q266.1875,318.0469 267.5313,318.0469 Q268.1563,318.0469 268.75,317.7813 Q269.3438,317.5 269.9688,316.9219 L269.9688,319.6406 Z "/><text fill="#000000" font-family="sans-serif" font-size="12" lengthAdjust="spacingAndGlyphs" textLength="55" x="281" y="318.1543">Workflow</text><line style="stroke: #A80036; stroke-width: 1.5;" x1="253" x2="338" y1="330" y2="330"/><line style="stroke: #A80036; stroke-width: 1.5;" x1="253" x2="338" y1="338" y2="338"/><path d="M6,302 L6,342.2656 A0,0 0 0 0 6,342.2656 L217,342.2656 A0,0 0 0 0 217,342.2656 L217,326 L251.7377,322 L217,318 L217,312 L207,302 L6,302 A0,0 0 0 0 6,302 " fill="#FBFB77" filter="url(#f38260jvxd7bp)" style="stroke: #A80036; stroke-width: 1.0;"/><path d="M207,302 L207,312 L217,312 L207,302 " fill="#FBFB77" style="stroke: #A80036; stroke-width: 1.0;"/><text fill="#000000" font-family="sans-serif" font-size="13" lengthAdjust="spacingAndGlyphs" textLength="190" x="12" y="319.0669">Implementation of the default</text><text fill="#000000" font-family="sans-serif" font-size="13" lengthAdjust="spacingAndGlyphs" textLength="119" x="12" y="334.1997">workflow definition.</text><!--class SequenceWorkflow--><rect fill="#FEFECE" filter="url(#f38260jvxd7bp)" height="48" id="SequenceWorkflow" style="stroke: #A80036; stroke-width: 1.5;" width="150" x="374.5" y="298"/><ellipse cx="389.5" cy="314" fill="#ADD1B2" rx="11" ry="11" style="stroke: #A80036; stroke-width: 1.0;"/><path d="M392.4688,319.6406 Q391.8906,319.9375 391.25,320.0781 Q390.6094,320.2344 389.9063,320.2344 Q387.4063,320.2344 386.0781,318.5938 Q384.7656,316.9375 384.7656,313.8125 Q384.7656,310.6875 386.0781,309.0313 Q387.4063,307.375 389.9063,307.375 Q390.6094,307.375 391.25,307.5313 Q391.9063,307.6875 392.4688,307.9844 L392.4688,310.7031 Q391.8438,310.125 391.25,309.8594 Q390.6563,309.5781 390.0313,309.5781 Q388.6875,309.5781 388,310.6563 Q387.3125,311.7188 387.3125,313.8125 Q387.3125,315.9063 388,316.9844 Q388.6875,318.0469 390.0313,318.0469 Q390.6563,318.0469 391.25,317.7813 Q391.8438,317.5 392.4688,316.9219 L392.4688,319.6406 Z "/><text fill="#000000" font-family="sans-serif" font-size="12" lengthAdjust="spacingAndGlyphs" textLength="118" x="403.5" y="318.1543">SequenceWorkflow</text><line style="stroke: #A80036; stroke-width: 1.5;" x1="375.5" x2="523.5" y1="330" y2="330"/><line style="stroke: #A80036; stroke-width: 1.5;" x1="375.5" x2="523.5" y1="338" y2="338"/><!--class ParallelWorkflow--><rect fill="#FEFECE" filter="url(#f38260jvxd7bp)" height="48" id="ParallelWorkflow" style="stroke: #A80036; stroke-width: 1.5;" width="133" x="560" y="298"/><ellipse cx="575" cy="314" fill="#ADD1B2" rx="11" ry="11" style="stroke: #A80036; stroke-width: 1.0;"/><path d="M577.9688,319.6406 Q577.3906,319.9375 576.75,320.0781 Q576.1094,320.2344 575.4063,320.2344 Q572.9063,320.2344 571.5781,318.5938 Q570.2656,316.9375 570.2656,313.8125 Q570.2656,310.6875 571.5781,309.0313 Q572.9063,307.375 575.4063,307.375 Q576.1094,307.375 576.75,307.5313 Q577.4063,307.6875 577.9688,307.9844 L577.9688,310.7031 Q577.3438,310.125 576.75,309.8594 Q576.1563,309.5781 575.5313,309.5781 Q574.1875,309.5781 573.5,310.6563 Q572.8125,311.7188 572.8125,313.8125 Q572.8125,315.9063 573.5,316.9844 Q574.1875,318.0469 575.5313,318.0469 Q576.1563,318.0469 576.75,317.7813 Q577.3438,317.5 577.9688,316.9219 L577.9688,319.6406 Z "/><text fill="#000000" font-family="sans-serif" font-size="12" lengthAdjust="spacingAndGlyphs" textLength="101" x="589" y="318.1543">ParallelWorkflow</text><line style="stroke: #A80036; stroke-width: 1.5;" x1="561" x2="692" y1="330" y2="330"/><line style="stroke: #A80036; stroke-width: 1.5;" x1="561" x2="692" y1="338" y2="338"/><!--class CombinedWorkflow--><rect fill="#FEFECE" filter="url(#f38260jvxd7bp)" height="48" id="CombinedWorkflow" style="stroke: #A80036; stroke-width: 1.5;" width="149" x="375" y="409.5"/><ellipse cx="390" cy="425.5" fill="#ADD1B2" rx="11" ry="11" style="stroke: #A80036; stroke-width: 1.0;"/><path d="M392.9688,431.1406 Q392.3906,431.4375 391.75,431.5781 Q391.1094,431.7344 390.4063,431.7344 Q387.9063,431.7344 386.5781,430.0938 Q385.2656,428.4375 385.2656,425.3125 Q385.2656,422.1875 386.5781,420.5313 Q387.9063,418.875 390.4063,418.875 Q391.1094,418.875 391.75,419.0313 Q392.4063,419.1875 392.9688,419.4844 L392.9688,422.2031 Q392.3438,421.625 391.75,421.3594 Q391.1563,421.0781 390.5313,421.0781 Q389.1875,421.0781 388.5,422.1563 Q387.8125,423.2188 387.8125,425.3125 Q387.8125,427.4063 388.5,428.4844 Q389.1875,429.5469 390.5313,429.5469 Q391.1563,429.5469 391.75,429.2813 Q392.3438,429 392.9688,428.4219 L392.9688,431.1406 Z "/><text fill="#000000" font-family="sans-serif" font-size="12" lengthAdjust="spacingAndGlyphs" textLength="117" x="404" y="429.6543">CombinedWorkflow</text><line style="stroke: #A80036; stroke-width: 1.5;" x1="376" x2="523" y1="441.5" y2="441.5"/><line style="stroke: #A80036; stroke-width: 1.5;" x1="376" x2="523" y1="449.5" y2="449.5"/><path d="M95,406 L95,461.3984 A0,0 0 0 0 95,461.3984 L340,461.3984 A0,0 0 0 0 340,461.3984 L340,437.5 L374.8494,433.5 L340,429.5 L340,416 L330,406 L95,406 A0,0 0 0 0 95,406 " fill="#FBFB77" filter="url(#f38260jvxd7bp)" style="stroke: #A80036; stroke-width: 1.0;"/><path d="M330,406 L330,416 L340,416 L330,406 " fill="#FBFB77" style="stroke: #A80036; stroke-width: 1.0;"/><text fill="#000000" font-family="sans-serif" font-size="13" lengthAdjust="spacingAndGlyphs" textLength="215" x="101" y="423.0669">Composition of multiple workflows</text><text fill="#000000" font-family="sans-serif" font-size="13" lengthAdjust="spacingAndGlyphs" textLength="224" x="101" y="438.1997">displayed as one node in the graph</text><text fill="#000000" font-family="sans-serif" font-size="13" lengthAdjust="spacingAndGlyphs" textLength="42" x="101" y="453.3325">config.</text><!--reverse link WorkflowBase to Workflow--><path d="M365.5517,231.4786 C346.2869,256.3728 327.6069,280.5113 314.3882,297.5925 " fill="none" id="WorkflowBase&lt;-Workflow" style="stroke: #A80036; stroke-width: 1.0;"/><polygon fill="none" points="360.1339,227.0419,377.9101,215.509,371.2057,235.6101,360.1339,227.0419" style="stroke: #A80036; stroke-width: 1.0;"/><!--reverse link WorkflowBase to SequenceWorkflow--><path d="M449.5,258.3261 C449.5,273.2104 449.5,286.8603 449.5,297.6718 " fill="none" id="WorkflowBase&lt;-SequenceWorkflow" style="stroke: #A80036; stroke-width: 1.0;"/><polygon fill="none" points="442.5001,258.1829,449.5,238.1828,456.5001,258.1828,442.5001,258.1829" style="stroke: #A80036; stroke-width: 1.0;"/><!--reverse link WorkflowBase to ParallelWorkflow--><path d="M534.4532,233.4647 C535.8035,234.9931 537.153,236.5058 538.5,238 C557.7331,259.3346 581.3669,281.7083 599.2977,297.9957 " fill="none" id="WorkflowBase&lt;-ParallelWorkflow" style="stroke: #A80036; stroke-width: 1.0;"/><polygon fill="none" points="528.9545,237.8059,521.241,218.0701,539.5783,228.6881,528.9545,237.8059" style="stroke: #A80036; stroke-width: 1.0;"/><!--reverse link SequenceWorkflow to CombinedWorkflow--><path d="M449.5,366.3862 C449.5,381.0437 449.5,396.7958 449.5,409.3534 " fill="none" id="SequenceWorkflow&lt;-CombinedWorkflow" style="stroke: #A80036; stroke-width: 1.0;"/><polygon fill="none" points="442.5001,366.1939,449.5,346.1938,456.5001,366.1938,442.5001,366.1939" style="stroke: #A80036; stroke-width: 1.0;"/><!--
@startuml workflow_engine_model
enum WorkflowState {
    INACTIVE
    ACTIVE
    FINISHED
    SKIPPED
}

class WorkflowBase {
    + name: String
    + state: WorkflowState
    - -
    .. Control methods ..
    + execute()
    + dispose()
    + skip()
    .. Event handler ..
    + onMessage()
    .. Events ..
    + registerOnFailed()
    + registerOnFinished()
    .. State getter ..
    + getGraphConfig()
}


class Workflow {
}
note left of Workflow
    Implementation of the default
    workflow definition.
end note

class SequenceWorkflow {
}

class ParallelWorkflow {
}

class CombinedWorkflow {
}
note left of CombinedWorkflow
    Composition of multiple workflows
    displayed as one node in the graph
    config. 
end note

WorkflowBase <|- - Workflow
WorkflowBase <|- - SequenceWorkflow
WorkflowBase <|- - ParallelWorkflow

SequenceWorkflow <|- - CombinedWorkflow

@enduml

PlantUML version 1.2019.09(Mon Aug 26 18:19:51 CEST 2019)
(GPL source distribution)
Java Runtime: OpenJDK Runtime Environment
JVM: OpenJDK 64-Bit Server VM
Java Version: 11.0.6+10-post-Ubuntu-1ubuntu118.04.1
Operating System: Linux
OS Version: 5.3.0-28-generic
Default Encoding: UTF-8
Language: en
Country: US
--></g></svg>