<?xml version="1.0" encoding="UTF-8" standalone="no"?><svg xmlns="http://www.w3.org/2000/svg" xmlns:xlink="http://www.w3.org/1999/xlink" contentScriptType="application/ecmascript" contentStyleType="text/css" height="391px" preserveAspectRatio="none" style="width:1149px;height:391px;" version="1.1" viewBox="0 0 1149 391" width="1149px" zoomAndPan="magnify"><defs><filter height="300%" id="f1ws59sg62mw4t" width="300%" x="-1" y="-1"><feGaussianBlur result="blurOut" stdDeviation="2.0"/><feColorMatrix in="blurOut" result="blurOut2" type="matrix" values="0 0 0 0 0 0 0 0 0 0 0 0 0 0 0 0 0 0 .4 0"/><feOffset dx="4.0" dy="4.0" in="blurOut2" result="blurOut3"/><feBlend in="SourceGraphic" in2="blurOut3" mode="normal"/></filter></defs><g><!--class WorkflowBase--><rect fill="#FEFECE" filter="url(#f1ws59sg62mw4t)" height="48" id="WorkflowBase" style="stroke: #A80036; stroke-width: 1.5;" width="118" x="506" y="8"/><ellipse cx="521" cy="24" fill="#ADD1B2" rx="11" ry="11" style="stroke: #A80036; stroke-width: 1.0;"/><path d="M523.9688,29.6406 Q523.3906,29.9375 522.75,30.0781 Q522.1094,30.2344 521.4063,30.2344 Q518.9063,30.2344 517.5781,28.5938 Q516.2656,26.9375 516.2656,23.8125 Q516.2656,20.6875 517.5781,19.0313 Q518.9063,17.375 521.4063,17.375 Q522.1094,17.375 522.75,17.5313 Q523.4063,17.6875 523.9688,17.9844 L523.9688,20.7031 Q523.3438,20.125 522.75,19.8594 Q522.1563,19.5781 521.5313,19.5781 Q520.1875,19.5781 519.5,20.6563 Q518.8125,21.7188 518.8125,23.8125 Q518.8125,25.9063 519.5,26.9844 Q520.1875,28.0469 521.5313,28.0469 Q522.1563,28.0469 522.75,27.7813 Q523.3438,27.5 523.9688,26.9219 L523.9688,29.6406 Z "/><text fill="#000000" font-family="sans-serif" font-size="12" lengthAdjust="spacingAndGlyphs" textLength="86" x="535" y="28.1543">WorkflowBase</text><line style="stroke: #A80036; stroke-width: 1.5;" x1="507" x2="623" y1="40" y2="40"/><line style="stroke: #A80036; stroke-width: 1.5;" x1="507" x2="623" y1="48" y2="48"/><!--class Workflow--><rect fill="#FEFECE" filter="url(#f1ws59sg62mw4t)" height="48" id="Workflow" style="stroke: #A80036; stroke-width: 1.5;" width="87" x="95.5" y="116"/><ellipse cx="110.5" cy="132" fill="#ADD1B2" rx="11" ry="11" style="stroke: #A80036; stroke-width: 1.0;"/><path d="M113.4688,137.6406 Q112.8906,137.9375 112.25,138.0781 Q111.6094,138.2344 110.9063,138.2344 Q108.4063,138.2344 107.0781,136.5938 Q105.7656,134.9375 105.7656,131.8125 Q105.7656,128.6875 107.0781,127.0313 Q108.4063,125.375 110.9063,125.375 Q111.6094,125.375 112.25,125.5313 Q112.9063,125.6875 113.4688,125.9844 L113.4688,128.7031 Q112.8438,128.125 112.25,127.8594 Q111.6563,127.5781 111.0313,127.5781 Q109.6875,127.5781 109,128.6563 Q108.3125,129.7188 108.3125,131.8125 Q108.3125,133.9063 109,134.9844 Q109.6875,136.0469 111.0313,136.0469 Q111.6563,136.0469 112.25,135.7813 Q112.8438,135.5 113.4688,134.9219 L113.4688,137.6406 Z "/><text fill="#000000" font-family="sans-serif" font-size="12" lengthAdjust="spacingAndGlyphs" textLength="55" x="124.5" y="136.1543">Workflow</text><line style="stroke: #A80036; stroke-width: 1.5;" x1="96.5" x2="181.5" y1="148" y2="148"/><line style="stroke: #A80036; stroke-width: 1.5;" x1="96.5" x2="181.5" y1="156" y2="156"/><!--class SequenceWorkflow--><rect fill="#FEFECE" filter="url(#f1ws59sg62mw4t)" height="48" id="SequenceWorkflow" style="stroke: #A80036; stroke-width: 1.5;" width="150" x="222" y="116"/><ellipse cx="237" cy="132" fill="#ADD1B2" rx="11" ry="11" style="stroke: #A80036; stroke-width: 1.0;"/><path d="M239.9688,137.6406 Q239.3906,137.9375 238.75,138.0781 Q238.1094,138.2344 237.4063,138.2344 Q234.9063,138.2344 233.5781,136.5938 Q232.2656,134.9375 232.2656,131.8125 Q232.2656,128.6875 233.5781,127.0313 Q234.9063,125.375 237.4063,125.375 Q238.1094,125.375 238.75,125.5313 Q239.4063,125.6875 239.9688,125.9844 L239.9688,128.7031 Q239.3438,128.125 238.75,127.8594 Q238.1563,127.5781 237.5313,127.5781 Q236.1875,127.5781 235.5,128.6563 Q234.8125,129.7188 234.8125,131.8125 Q234.8125,133.9063 235.5,134.9844 Q236.1875,136.0469 237.5313,136.0469 Q238.1563,136.0469 238.75,135.7813 Q239.3438,135.5 239.9688,134.9219 L239.9688,137.6406 Z "/><text fill="#000000" font-family="sans-serif" font-size="12" lengthAdjust="spacingAndGlyphs" textLength="118" x="251" y="136.1543">SequenceWorkflow</text><line style="stroke: #A80036; stroke-width: 1.5;" x1="223" x2="371" y1="148" y2="148"/><line style="stroke: #A80036; stroke-width: 1.5;" x1="223" x2="371" y1="156" y2="156"/><!--class ParallelWorkflow--><rect fill="#FEFECE" filter="url(#f1ws59sg62mw4t)" height="48" id="ParallelWorkflow" style="stroke: #A80036; stroke-width: 1.5;" width="133" x="407.5" y="116"/><ellipse cx="422.5" cy="132" fill="#ADD1B2" rx="11" ry="11" style="stroke: #A80036; stroke-width: 1.0;"/><path d="M425.4688,137.6406 Q424.8906,137.9375 424.25,138.0781 Q423.6094,138.2344 422.9063,138.2344 Q420.4063,138.2344 419.0781,136.5938 Q417.7656,134.9375 417.7656,131.8125 Q417.7656,128.6875 419.0781,127.0313 Q420.4063,125.375 422.9063,125.375 Q423.6094,125.375 424.25,125.5313 Q424.9063,125.6875 425.4688,125.9844 L425.4688,128.7031 Q424.8438,128.125 424.25,127.8594 Q423.6563,127.5781 423.0313,127.5781 Q421.6875,127.5781 421,128.6563 Q420.3125,129.7188 420.3125,131.8125 Q420.3125,133.9063 421,134.9844 Q421.6875,136.0469 423.0313,136.0469 Q423.6563,136.0469 424.25,135.7813 Q424.8438,135.5 425.4688,134.9219 L425.4688,137.6406 Z "/><text fill="#000000" font-family="sans-serif" font-size="12" lengthAdjust="spacingAndGlyphs" textLength="101" x="436.5" y="136.1543">ParallelWorkflow</text><line style="stroke: #A80036; stroke-width: 1.5;" x1="408.5" x2="539.5" y1="148" y2="148"/><line style="stroke: #A80036; stroke-width: 1.5;" x1="408.5" x2="539.5" y1="156" y2="156"/><!--class CombinedWorkflow--><rect fill="#FEFECE" filter="url(#f1ws59sg62mw4t)" height="48" id="CombinedWorkflow" style="stroke: #A80036; stroke-width: 1.5;" width="149" x="226.5" y="224"/><ellipse cx="241.5" cy="240" fill="#ADD1B2" rx="11" ry="11" style="stroke: #A80036; stroke-width: 1.0;"/><path d="M244.4688,245.6406 Q243.8906,245.9375 243.25,246.0781 Q242.6094,246.2344 241.9063,246.2344 Q239.4063,246.2344 238.0781,244.5938 Q236.7656,242.9375 236.7656,239.8125 Q236.7656,236.6875 238.0781,235.0313 Q239.4063,233.375 241.9063,233.375 Q242.6094,233.375 243.25,233.5313 Q243.9063,233.6875 244.4688,233.9844 L244.4688,236.7031 Q243.8438,236.125 243.25,235.8594 Q242.6563,235.5781 242.0313,235.5781 Q240.6875,235.5781 240,236.6563 Q239.3125,237.7188 239.3125,239.8125 Q239.3125,241.9063 240,242.9844 Q240.6875,244.0469 242.0313,244.0469 Q242.6563,244.0469 243.25,243.7813 Q243.8438,243.5 244.4688,242.9219 L244.4688,245.6406 Z "/><text fill="#000000" font-family="sans-serif" font-size="12" lengthAdjust="spacingAndGlyphs" textLength="117" x="255.5" y="244.1543">CombinedWorkflow</text><line style="stroke: #A80036; stroke-width: 1.5;" x1="227.5" x2="374.5" y1="256" y2="256"/><line style="stroke: #A80036; stroke-width: 1.5;" x1="227.5" x2="374.5" y1="264" y2="264"/><!--class SendTriggerWorkflow--><rect fill="#FEFECE" filter="url(#f1ws59sg62mw4t)" height="48" id="SendTriggerWorkflow" style="stroke: #A80036; stroke-width: 1.5;" width="163" x="575.5" y="116"/><ellipse cx="590.5" cy="132" fill="#ADD1B2" rx="11" ry="11" style="stroke: #A80036; stroke-width: 1.0;"/><path d="M593.4688,137.6406 Q592.8906,137.9375 592.25,138.0781 Q591.6094,138.2344 590.9063,138.2344 Q588.4063,138.2344 587.0781,136.5938 Q585.7656,134.9375 585.7656,131.8125 Q585.7656,128.6875 587.0781,127.0313 Q588.4063,125.375 590.9063,125.375 Q591.6094,125.375 592.25,125.5313 Q592.9063,125.6875 593.4688,125.9844 L593.4688,128.7031 Q592.8438,128.125 592.25,127.8594 Q591.6563,127.5781 591.0313,127.5781 Q589.6875,127.5781 589,128.6563 Q588.3125,129.7188 588.3125,131.8125 Q588.3125,133.9063 589,134.9844 Q589.6875,136.0469 591.0313,136.0469 Q591.6563,136.0469 592.25,135.7813 Q592.8438,135.5 593.4688,134.9219 L593.4688,137.6406 Z "/><text fill="#000000" font-family="sans-serif" font-size="12" lengthAdjust="spacingAndGlyphs" textLength="131" x="604.5" y="136.1543">SendTriggerWorkflow</text><line style="stroke: #A80036; stroke-width: 1.5;" x1="576.5" x2="737.5" y1="148" y2="148"/><line style="stroke: #A80036; stroke-width: 1.5;" x1="576.5" x2="737.5" y1="156" y2="156"/><!--class ScaleWorkflow--><rect fill="#FEFECE" filter="url(#f1ws59sg62mw4t)" height="48" id="ScaleWorkflow" style="stroke: #A80036; stroke-width: 1.5;" width="121" x="70.5" y="224"/><ellipse cx="85.5" cy="240" fill="#ADD1B2" rx="11" ry="11" style="stroke: #A80036; stroke-width: 1.0;"/><path d="M88.4688,245.6406 Q87.8906,245.9375 87.25,246.0781 Q86.6094,246.2344 85.9063,246.2344 Q83.4063,246.2344 82.0781,244.5938 Q80.7656,242.9375 80.7656,239.8125 Q80.7656,236.6875 82.0781,235.0313 Q83.4063,233.375 85.9063,233.375 Q86.6094,233.375 87.25,233.5313 Q87.9063,233.6875 88.4688,233.9844 L88.4688,236.7031 Q87.8438,236.125 87.25,235.8594 Q86.6563,235.5781 86.0313,235.5781 Q84.6875,235.5781 84,236.6563 Q83.3125,237.7188 83.3125,239.8125 Q83.3125,241.9063 84,242.9844 Q84.6875,244.0469 86.0313,244.0469 Q86.6563,244.0469 87.25,243.7813 Q87.8438,243.5 88.4688,242.9219 L88.4688,245.6406 Z "/><text fill="#000000" font-family="sans-serif" font-size="12" lengthAdjust="spacingAndGlyphs" textLength="89" x="99.5" y="244.1543">ScaleWorkflow</text><line style="stroke: #A80036; stroke-width: 1.5;" x1="71.5" x2="190.5" y1="256" y2="256"/><line style="stroke: #A80036; stroke-width: 1.5;" x1="71.5" x2="190.5" y1="264" y2="264"/><!--class InitWorkflow--><rect fill="#FEFECE" filter="url(#f1ws59sg62mw4t)" height="48" id="InitWorkflow" style="stroke: #A80036; stroke-width: 1.5;" width="106" x="6" y="332"/><ellipse cx="21" cy="348" fill="#ADD1B2" rx="11" ry="11" style="stroke: #A80036; stroke-width: 1.0;"/><path d="M23.9688,353.6406 Q23.3906,353.9375 22.75,354.0781 Q22.1094,354.2344 21.4063,354.2344 Q18.9063,354.2344 17.5781,352.5938 Q16.2656,350.9375 16.2656,347.8125 Q16.2656,344.6875 17.5781,343.0313 Q18.9063,341.375 21.4063,341.375 Q22.1094,341.375 22.75,341.5313 Q23.4063,341.6875 23.9688,341.9844 L23.9688,344.7031 Q23.3438,344.125 22.75,343.8594 Q22.1563,343.5781 21.5313,343.5781 Q20.1875,343.5781 19.5,344.6563 Q18.8125,345.7188 18.8125,347.8125 Q18.8125,349.9063 19.5,350.9844 Q20.1875,352.0469 21.5313,352.0469 Q22.1563,352.0469 22.75,351.7813 Q23.3438,351.5 23.9688,350.9219 L23.9688,353.6406 Z "/><text fill="#000000" font-family="sans-serif" font-size="12" lengthAdjust="spacingAndGlyphs" textLength="74" x="35" y="352.1543">InitWorkflow</text><line style="stroke: #A80036; stroke-width: 1.5;" x1="7" x2="111" y1="364" y2="364"/><line style="stroke: #A80036; stroke-width: 1.5;" x1="7" x2="111" y1="372" y2="372"/><!--class ExitWorkflow--><rect fill="#FEFECE" filter="url(#f1ws59sg62mw4t)" height="48" id="ExitWorkflow" style="stroke: #A80036; stroke-width: 1.5;" width="109" x="147.5" y="332"/><ellipse cx="162.5" cy="348" fill="#ADD1B2" rx="11" ry="11" style="stroke: #A80036; stroke-width: 1.0;"/><path d="M165.4688,353.6406 Q164.8906,353.9375 164.25,354.0781 Q163.6094,354.2344 162.9063,354.2344 Q160.4063,354.2344 159.0781,352.5938 Q157.7656,350.9375 157.7656,347.8125 Q157.7656,344.6875 159.0781,343.0313 Q160.4063,341.375 162.9063,341.375 Q163.6094,341.375 164.25,341.5313 Q164.9063,341.6875 165.4688,341.9844 L165.4688,344.7031 Q164.8438,344.125 164.25,343.8594 Q163.6563,343.5781 163.0313,343.5781 Q161.6875,343.5781 161,344.6563 Q160.3125,345.7188 160.3125,347.8125 Q160.3125,349.9063 161,350.9844 Q161.6875,352.0469 163.0313,352.0469 Q163.6563,352.0469 164.25,351.7813 Q164.8438,351.5 165.4688,350.9219 L165.4688,353.6406 Z "/><text fill="#000000" font-family="sans-serif" font-size="12" lengthAdjust="spacingAndGlyphs" textLength="77" x="176.5" y="352.1543">ExitWorkflow</text><line style="stroke: #A80036; stroke-width: 1.5;" x1="148.5" x2="255.5" y1="364" y2="364"/><line style="stroke: #A80036; stroke-width: 1.5;" x1="148.5" x2="255.5" y1="372" y2="372"/><!--class AudioControlWorkflow--><rect fill="#FEFECE" filter="url(#f1ws59sg62mw4t)" height="48" id="AudioControlWorkflow" style="stroke: #A80036; stroke-width: 1.5;" width="167" x="773.5" y="116"/><ellipse cx="788.5" cy="132" fill="#ADD1B2" rx="11" ry="11" style="stroke: #A80036; stroke-width: 1.0;"/><path d="M791.4688,137.6406 Q790.8906,137.9375 790.25,138.0781 Q789.6094,138.2344 788.9063,138.2344 Q786.4063,138.2344 785.0781,136.5938 Q783.7656,134.9375 783.7656,131.8125 Q783.7656,128.6875 785.0781,127.0313 Q786.4063,125.375 788.9063,125.375 Q789.6094,125.375 790.25,125.5313 Q790.9063,125.6875 791.4688,125.9844 L791.4688,128.7031 Q790.8438,128.125 790.25,127.8594 Q789.6563,127.5781 789.0313,127.5781 Q787.6875,127.5781 787,128.6563 Q786.3125,129.7188 786.3125,131.8125 Q786.3125,133.9063 787,134.9844 Q787.6875,136.0469 789.0313,136.0469 Q789.6563,136.0469 790.25,135.7813 Q790.8438,135.5 791.4688,134.9219 L791.4688,137.6406 Z "/><text fill="#000000" font-family="sans-serif" font-size="12" lengthAdjust="spacingAndGlyphs" textLength="135" x="802.5" y="136.1543">AudioControlWorkflow</text><line style="stroke: #A80036; stroke-width: 1.5;" x1="774.5" x2="939.5" y1="148" y2="148"/><line style="stroke: #A80036; stroke-width: 1.5;" x1="774.5" x2="939.5" y1="156" y2="156"/><!--class LightControlWorkflow--><rect fill="#FEFECE" filter="url(#f1ws59sg62mw4t)" height="48" id="LightControlWorkflow" style="stroke: #A80036; stroke-width: 1.5;" width="162" x="976" y="116"/><ellipse cx="991" cy="132" fill="#ADD1B2" rx="11" ry="11" style="stroke: #A80036; stroke-width: 1.0;"/><path d="M993.9688,137.6406 Q993.3906,137.9375 992.75,138.0781 Q992.1094,138.2344 991.4063,138.2344 Q988.9063,138.2344 987.5781,136.5938 Q986.2656,134.9375 986.2656,131.8125 Q986.2656,128.6875 987.5781,127.0313 Q988.9063,125.375 991.4063,125.375 Q992.1094,125.375 992.75,125.5313 Q993.4063,125.6875 993.9688,125.9844 L993.9688,128.7031 Q993.3438,128.125 992.75,127.8594 Q992.1563,127.5781 991.5313,127.5781 Q990.1875,127.5781 989.5,128.6563 Q988.8125,129.7188 988.8125,131.8125 Q988.8125,133.9063 989.5,134.9844 Q990.1875,136.0469 991.5313,136.0469 Q992.1563,136.0469 992.75,135.7813 Q993.3438,135.5 993.9688,134.9219 L993.9688,137.6406 Z "/><text fill="#000000" font-family="sans-serif" font-size="12" lengthAdjust="spacingAndGlyphs" textLength="130" x="1005" y="136.1543">LightControlWorkflow</text><line style="stroke: #A80036; stroke-width: 1.5;" x1="977" x2="1137" y1="148" y2="148"/><line style="stroke: #A80036; stroke-width: 1.5;" x1="977" x2="1137" y1="156" y2="156"/><!--class LabRoomLightControlWorkflow--><rect fill="#FEFECE" filter="url(#f1ws59sg62mw4t)" height="48" id="LabRoomLightControlWorkflow" style="stroke: #A80036; stroke-width: 1.5;" width="219" x="291.5" y="332"/><ellipse cx="306.5" cy="348" fill="#ADD1B2" rx="11" ry="11" style="stroke: #A80036; stroke-width: 1.0;"/><path d="M309.4688,353.6406 Q308.8906,353.9375 308.25,354.0781 Q307.6094,354.2344 306.9063,354.2344 Q304.4063,354.2344 303.0781,352.5938 Q301.7656,350.9375 301.7656,347.8125 Q301.7656,344.6875 303.0781,343.0313 Q304.4063,341.375 306.9063,341.375 Q307.6094,341.375 308.25,341.5313 Q308.9063,341.6875 309.4688,341.9844 L309.4688,344.7031 Q308.8438,344.125 308.25,343.8594 Q307.6563,343.5781 307.0313,343.5781 Q305.6875,343.5781 305,344.6563 Q304.3125,345.7188 304.3125,347.8125 Q304.3125,349.9063 305,350.9844 Q305.6875,352.0469 307.0313,352.0469 Q307.6563,352.0469 308.25,351.7813 Q308.8438,351.5 309.4688,350.9219 L309.4688,353.6406 Z "/><text fill="#000000" font-family="sans-serif" font-size="12" lengthAdjust="spacingAndGlyphs" textLength="187" x="320.5" y="352.1543">LabRoomLightControlWorkflow</text><line style="stroke: #A80036; stroke-width: 1.5;" x1="292.5" x2="509.5" y1="364" y2="364"/><line style="stroke: #A80036; stroke-width: 1.5;" x1="292.5" x2="509.5" y1="372" y2="372"/><!--class ServerRoomLightControlWorkflow--><rect fill="#FEFECE" filter="url(#f1ws59sg62mw4t)" height="48" id="ServerRoomLightControlWorkflow" style="stroke: #A80036; stroke-width: 1.5;" width="237" x="545.5" y="332"/><ellipse cx="560.5" cy="348" fill="#ADD1B2" rx="11" ry="11" style="stroke: #A80036; stroke-width: 1.0;"/><path d="M563.4688,353.6406 Q562.8906,353.9375 562.25,354.0781 Q561.6094,354.2344 560.9063,354.2344 Q558.4063,354.2344 557.0781,352.5938 Q555.7656,350.9375 555.7656,347.8125 Q555.7656,344.6875 557.0781,343.0313 Q558.4063,341.375 560.9063,341.375 Q561.6094,341.375 562.25,341.5313 Q562.9063,341.6875 563.4688,341.9844 L563.4688,344.7031 Q562.8438,344.125 562.25,343.8594 Q561.6563,343.5781 561.0313,343.5781 Q559.6875,343.5781 559,344.6563 Q558.3125,345.7188 558.3125,347.8125 Q558.3125,349.9063 559,350.9844 Q559.6875,352.0469 561.0313,352.0469 Q561.6563,352.0469 562.25,351.7813 Q562.8438,351.5 563.4688,350.9219 L563.4688,353.6406 Z "/><text fill="#000000" font-family="sans-serif" font-size="12" lengthAdjust="spacingAndGlyphs" textLength="205" x="574.5" y="352.1543">ServerRoomLightControlWorkflow</text><line style="stroke: #A80036; stroke-width: 1.5;" x1="546.5" x2="781.5" y1="364" y2="364"/><line style="stroke: #A80036; stroke-width: 1.5;" x1="546.5" x2="781.5" y1="372" y2="372"/><!--reverse link WorkflowBase to Workflow--><path d="M486.1887,47.5549 C412.7757,62.7109 300.5921,87.578 205,116 C197.7542,118.1544 190.1469,120.6729 182.7781,123.2529 " fill="none" id="WorkflowBase&lt;-Workflow" style="stroke: #A80036; stroke-width: 1.0;"/><polygon fill="none" points="484.8242,40.6891,505.8208,43.5427,487.6275,54.4056,484.8242,40.6891" style="stroke: #A80036; stroke-width: 1.0;"/><!--reverse link WorkflowBase to SequenceWorkflow--><path d="M487.1731,63.3631 C445.6581,80.093 395.3597,100.3625 356.9209,115.8528 " fill="none" id="WorkflowBase&lt;-SequenceWorkflow" style="stroke: #A80036; stroke-width: 1.0;"/><polygon fill="none" points="484.6876,56.8177,505.8545,55.8348,489.9206,69.803,484.6876,56.8177" style="stroke: #A80036; stroke-width: 1.0;"/><!--reverse link WorkflowBase to ParallelWorkflow--><path d="M531.3159,71.9767 C518.9038,86.7075 505.2313,102.9342 494.354,115.8436 " fill="none" id="WorkflowBase&lt;-ParallelWorkflow" style="stroke: #A80036; stroke-width: 1.0;"/><polygon fill="none" points="526.3376,67.0214,544.5778,56.2373,537.0438,76.0424,526.3376,67.0214" style="stroke: #A80036; stroke-width: 1.0;"/><!--reverse link SequenceWorkflow to CombinedWorkflow--><path d="M298.6404,184.2911 C299.1414,197.8171 299.6735,212.1835 300.1053,223.8436 " fill="none" id="SequenceWorkflow&lt;-CombinedWorkflow" style="stroke: #A80036; stroke-width: 1.0;"/><polygon fill="none" points="291.6428,184.4827,297.8977,164.2373,305.6332,183.9645,291.6428,184.4827" style="stroke: #A80036; stroke-width: 1.0;"/><!--reverse link WorkflowBase to SendTriggerWorkflow--><path d="M598.6499,71.5021 C611.3051,86.3582 625.3072,102.7954 636.4223,115.8436 " fill="none" id="WorkflowBase&lt;-SendTriggerWorkflow" style="stroke: #A80036; stroke-width: 1.0;"/><polygon fill="none" points="593.2872,76.0015,585.6466,56.2373,603.9447,66.9229,593.2872,76.0015" style="stroke: #A80036; stroke-width: 1.0;"/><!--reverse link WorkflowBase to AudioControlWorkflow--><path d="M642.9006,60.8126 C689.4276,78.0212 747.8453,99.6277 791.901,115.9223 " fill="none" id="WorkflowBase&lt;-AudioControlWorkflow" style="stroke: #A80036; stroke-width: 1.0;"/><polygon fill="none" points="640.4203,67.3587,624.0906,53.8554,645.2769,54.2281,640.4203,67.3587" style="stroke: #A80036; stroke-width: 1.0;"/><!--reverse link WorkflowBase to LightControlWorkflow--><path d="M643.6752,48.158 C723.1138,64.6274 849.2728,91.2061 958,116 C963.7763,117.3172 969.7361,118.7007 975.7325,120.1105 " fill="none" id="WorkflowBase&lt;-LightControlWorkflow" style="stroke: #A80036; stroke-width: 1.0;"/><polygon fill="none" points="642.2016,55.0015,624.0345,44.0947,645.0379,41.2918,642.2016,55.0015" style="stroke: #A80036; stroke-width: 1.0;"/><!--reverse link Workflow to ScaleWorkflow--><path d="M135.7192,184.2911 C134.7173,197.8171 133.6531,212.1835 132.7894,223.8436 " fill="none" id="Workflow&lt;-ScaleWorkflow" style="stroke: #A80036; stroke-width: 1.0;"/><polygon fill="none" points="128.7462,183.6655,137.2046,164.2373,142.708,184.6998,128.7462,183.6655" style="stroke: #A80036; stroke-width: 1.0;"/><!--reverse link CombinedWorkflow to InitWorkflow--><path d="M228.7185,280.2579 C191.2266,296.9898 146.2436,317.0648 112.0103,332.3425 " fill="none" id="CombinedWorkflow&lt;-InitWorkflow" style="stroke: #A80036; stroke-width: 1.0;"/><polygon fill="none" points="225.8751,273.8614,246.9917,272.1029,231.5807,286.646,225.8751,273.8614" style="stroke: #A80036; stroke-width: 1.0;"/><!--reverse link CombinedWorkflow to ExitWorkflow--><path d="M265.2239,287.0285 C251.4926,302.0081 236.2314,318.6566 224.1434,331.8436 " fill="none" id="CombinedWorkflow&lt;-ExitWorkflow" style="stroke: #A80036; stroke-width: 1.0;"/><polygon fill="none" points="260.1079,282.2503,278.7825,272.2373,270.428,291.7105,260.1079,282.2503" style="stroke: #A80036; stroke-width: 1.0;"/><!--reverse link CombinedWorkflow to LabRoomLightControlWorkflow--><path d="M337.1375,287.0285 C351.0075,302.0081 366.4228,318.6566 378.6329,331.8436 " fill="none" id="CombinedWorkflow&lt;-LabRoomLightControlWorkflow" style="stroke: #A80036; stroke-width: 1.0;"/><polygon fill="none" points="331.8938,291.6684,323.442,272.2373,342.1665,282.1567,331.8938,291.6684" style="stroke: #A80036; stroke-width: 1.0;"/><!--reverse link CombinedWorkflow to ServerRoomLightControlWorkflow--><path d="M395.263,276.0452 C453.4911,293.3692 527.4363,315.3695 583.0149,331.9052 " fill="none" id="CombinedWorkflow&lt;-ServerRoomLightControlWorkflow" style="stroke: #A80036; stroke-width: 1.0;"/><polygon fill="none" points="392.9471,282.6595,375.7737,270.2467,396.9394,269.2408,392.9471,282.6595" style="stroke: #A80036; stroke-width: 1.0;"/><!--
@startuml workflow_engine_model_special_workflows

class WorkflowBase {
}

class Workflow {
}

class SequenceWorkflow {
}

class ParallelWorkflow {
}

class CombinedWorkflow {
}

class SendTriggerWorkflow {
}

class ScaleWorkflow {
}

class InitWorkflow {
}

class ExitWorkflow {
}

class AudioControlWorkflow {
}

class LightControlWorkflow {
}

class LabRoomLightControlWorkflow {
}

class ServerRoomLightControlWorkflow {
}

WorkflowBase <|- - Workflow
WorkflowBase <|- - SequenceWorkflow
WorkflowBase <|- - ParallelWorkflow

SequenceWorkflow <|- - CombinedWorkflow

WorkflowBase <|- - SendTriggerWorkflow
WorkflowBase <|- - AudioControlWorkflow
WorkflowBase <|- - LightControlWorkflow

Workflow <|- - ScaleWorkflow

CombinedWorkflow <|- - InitWorkflow
CombinedWorkflow <|- - ExitWorkflow
CombinedWorkflow <|- - LabRoomLightControlWorkflow
CombinedWorkflow <|- - ServerRoomLightControlWorkflow

@enduml

PlantUML version 1.2019.09(Mon Aug 26 18:19:51 CEST 2019)
(GPL source distribution)
Java Runtime: OpenJDK Runtime Environment
JVM: OpenJDK 64-Bit Server VM
Java Version: 11.0.6+10-post-Ubuntu-1ubuntu118.04.1
Operating System: Linux
OS Version: 5.3.0-28-generic
Default Encoding: UTF-8
Language: en
Country: US
--></g></svg>