<?xml version="1.0" encoding="UTF-8" standalone="no"?><svg xmlns="http://www.w3.org/2000/svg" xmlns:xlink="http://www.w3.org/1999/xlink" contentScriptType="application/ecmascript" contentStyleType="text/css" height="391px" preserveAspectRatio="none" style="width:1053px;height:391px;" version="1.1" viewBox="0 0 1053 391" width="1053px" zoomAndPan="magnify"><defs><filter height="300%" id="f10obsn71k7sz6" width="300%" x="-1" y="-1"><feGaussianBlur result="blurOut" stdDeviation="2.0"/><feColorMatrix in="blurOut" result="blurOut2" type="matrix" values="0 0 0 0 0 0 0 0 0 0 0 0 0 0 0 0 0 0 .4 0"/><feOffset dx="4.0" dy="4.0" in="blurOut2" result="blurOut3"/><feBlend in="SourceGraphic" in2="blurOut3" mode="normal"/></filter></defs><g><!--class WorkflowBase--><rect fill="#FEFECE" filter="url(#f10obsn71k7sz6)" height="48" id="WorkflowBase" style="stroke: #A80036; stroke-width: 1.5;" width="118" x="399.5" y="8"/><ellipse cx="414.5" cy="24" fill="#ADD1B2" rx="11" ry="11" style="stroke: #A80036; stroke-width: 1.0;"/><path d="M417.4688,29.6406 Q416.8906,29.9375 416.25,30.0781 Q415.6094,30.2344 414.9063,30.2344 Q412.4063,30.2344 411.0781,28.5938 Q409.7656,26.9375 409.7656,23.8125 Q409.7656,20.6875 411.0781,19.0313 Q412.4063,17.375 414.9063,17.375 Q415.6094,17.375 416.25,17.5313 Q416.9063,17.6875 417.4688,17.9844 L417.4688,20.7031 Q416.8438,20.125 416.25,19.8594 Q415.6563,19.5781 415.0313,19.5781 Q413.6875,19.5781 413,20.6563 Q412.3125,21.7188 412.3125,23.8125 Q412.3125,25.9063 413,26.9844 Q413.6875,28.0469 415.0313,28.0469 Q415.6563,28.0469 416.25,27.7813 Q416.8438,27.5 417.4688,26.9219 L417.4688,29.6406 Z "/><text fill="#000000" font-family="sans-serif" font-size="12" lengthAdjust="spacingAndGlyphs" textLength="86" x="428.5" y="28.1543">WorkflowBase</text><line style="stroke: #A80036; stroke-width: 1.5;" x1="400.5" x2="516.5" y1="40" y2="40"/><line style="stroke: #A80036; stroke-width: 1.5;" x1="400.5" x2="516.5" y1="48" y2="48"/><!--class Workflow--><rect fill="#FEFECE" filter="url(#f10obsn71k7sz6)" height="48" id="Workflow" style="stroke: #A80036; stroke-width: 1.5;" width="87" x="168" y="116"/><ellipse cx="183" cy="132" fill="#ADD1B2" rx="11" ry="11" style="stroke: #A80036; stroke-width: 1.0;"/><path d="M185.9688,137.6406 Q185.3906,137.9375 184.75,138.0781 Q184.1094,138.2344 183.4063,138.2344 Q180.9063,138.2344 179.5781,136.5938 Q178.2656,134.9375 178.2656,131.8125 Q178.2656,128.6875 179.5781,127.0313 Q180.9063,125.375 183.4063,125.375 Q184.1094,125.375 184.75,125.5313 Q185.4063,125.6875 185.9688,125.9844 L185.9688,128.7031 Q185.3438,128.125 184.75,127.8594 Q184.1563,127.5781 183.5313,127.5781 Q182.1875,127.5781 181.5,128.6563 Q180.8125,129.7188 180.8125,131.8125 Q180.8125,133.9063 181.5,134.9844 Q182.1875,136.0469 183.5313,136.0469 Q184.1563,136.0469 184.75,135.7813 Q185.3438,135.5 185.9688,134.9219 L185.9688,137.6406 Z "/><text fill="#000000" font-family="sans-serif" font-size="12" lengthAdjust="spacingAndGlyphs" textLength="55" x="197" y="136.1543">Workflow</text><line style="stroke: #A80036; stroke-width: 1.5;" x1="169" x2="254" y1="148" y2="148"/><line style="stroke: #A80036; stroke-width: 1.5;" x1="169" x2="254" y1="156" y2="156"/><!--class SequenceWorkflow--><rect fill="#FEFECE" filter="url(#f10obsn71k7sz6)" height="48" id="SequenceWorkflow" style="stroke: #A80036; stroke-width: 1.5;" width="150" x="295.5" y="116"/><ellipse cx="310.5" cy="132" fill="#ADD1B2" rx="11" ry="11" style="stroke: #A80036; stroke-width: 1.0;"/><path d="M313.4688,137.6406 Q312.8906,137.9375 312.25,138.0781 Q311.6094,138.2344 310.9063,138.2344 Q308.4063,138.2344 307.0781,136.5938 Q305.7656,134.9375 305.7656,131.8125 Q305.7656,128.6875 307.0781,127.0313 Q308.4063,125.375 310.9063,125.375 Q311.6094,125.375 312.25,125.5313 Q312.9063,125.6875 313.4688,125.9844 L313.4688,128.7031 Q312.8438,128.125 312.25,127.8594 Q311.6563,127.5781 311.0313,127.5781 Q309.6875,127.5781 309,128.6563 Q308.3125,129.7188 308.3125,131.8125 Q308.3125,133.9063 309,134.9844 Q309.6875,136.0469 311.0313,136.0469 Q311.6563,136.0469 312.25,135.7813 Q312.8438,135.5 313.4688,134.9219 L313.4688,137.6406 Z "/><text fill="#000000" font-family="sans-serif" font-size="12" lengthAdjust="spacingAndGlyphs" textLength="118" x="324.5" y="136.1543">SequenceWorkflow</text><line style="stroke: #A80036; stroke-width: 1.5;" x1="296.5" x2="444.5" y1="148" y2="148"/><line style="stroke: #A80036; stroke-width: 1.5;" x1="296.5" x2="444.5" y1="156" y2="156"/><!--class ParallelWorkflow--><rect fill="#FEFECE" filter="url(#f10obsn71k7sz6)" height="48" id="ParallelWorkflow" style="stroke: #A80036; stroke-width: 1.5;" width="133" x="481" y="116"/><ellipse cx="496" cy="132" fill="#ADD1B2" rx="11" ry="11" style="stroke: #A80036; stroke-width: 1.0;"/><path d="M498.9688,137.6406 Q498.3906,137.9375 497.75,138.0781 Q497.1094,138.2344 496.4063,138.2344 Q493.9063,138.2344 492.5781,136.5938 Q491.2656,134.9375 491.2656,131.8125 Q491.2656,128.6875 492.5781,127.0313 Q493.9063,125.375 496.4063,125.375 Q497.1094,125.375 497.75,125.5313 Q498.4063,125.6875 498.9688,125.9844 L498.9688,128.7031 Q498.3438,128.125 497.75,127.8594 Q497.1563,127.5781 496.5313,127.5781 Q495.1875,127.5781 494.5,128.6563 Q493.8125,129.7188 493.8125,131.8125 Q493.8125,133.9063 494.5,134.9844 Q495.1875,136.0469 496.5313,136.0469 Q497.1563,136.0469 497.75,135.7813 Q498.3438,135.5 498.9688,134.9219 L498.9688,137.6406 Z "/><text fill="#000000" font-family="sans-serif" font-size="12" lengthAdjust="spacingAndGlyphs" textLength="101" x="510" y="136.1543">ParallelWorkflow</text><line style="stroke: #A80036; stroke-width: 1.5;" x1="482" x2="613" y1="148" y2="148"/><line style="stroke: #A80036; stroke-width: 1.5;" x1="482" x2="613" y1="156" y2="156"/><!--class CombinedWorkflow--><rect fill="#FEFECE" filter="url(#f10obsn71k7sz6)" height="48" id="CombinedWorkflow" style="stroke: #A80036; stroke-width: 1.5;" width="149" x="296" y="224"/><ellipse cx="311" cy="240" fill="#ADD1B2" rx="11" ry="11" style="stroke: #A80036; stroke-width: 1.0;"/><path d="M313.9688,245.6406 Q313.3906,245.9375 312.75,246.0781 Q312.1094,246.2344 311.4063,246.2344 Q308.9063,246.2344 307.5781,244.5938 Q306.2656,242.9375 306.2656,239.8125 Q306.2656,236.6875 307.5781,235.0313 Q308.9063,233.375 311.4063,233.375 Q312.1094,233.375 312.75,233.5313 Q313.4063,233.6875 313.9688,233.9844 L313.9688,236.7031 Q313.3438,236.125 312.75,235.8594 Q312.1563,235.5781 311.5313,235.5781 Q310.1875,235.5781 309.5,236.6563 Q308.8125,237.7188 308.8125,239.8125 Q308.8125,241.9063 309.5,242.9844 Q310.1875,244.0469 311.5313,244.0469 Q312.1563,244.0469 312.75,243.7813 Q313.3438,243.5 313.9688,242.9219 L313.9688,245.6406 Z "/><text fill="#000000" font-family="sans-serif" font-size="12" lengthAdjust="spacingAndGlyphs" textLength="117" x="325" y="244.1543">CombinedWorkflow</text><line style="stroke: #A80036; stroke-width: 1.5;" x1="297" x2="444" y1="256" y2="256"/><line style="stroke: #A80036; stroke-width: 1.5;" x1="297" x2="444" y1="264" y2="264"/><!--class InitWorkflow--><rect fill="#FEFECE" filter="url(#f10obsn71k7sz6)" height="48" id="InitWorkflow" style="stroke: #A80036; stroke-width: 1.5;" width="106" x="75.5" y="332"/><ellipse cx="90.5" cy="348" fill="#ADD1B2" rx="11" ry="11" style="stroke: #A80036; stroke-width: 1.0;"/><path d="M93.4688,353.6406 Q92.8906,353.9375 92.25,354.0781 Q91.6094,354.2344 90.9063,354.2344 Q88.4063,354.2344 87.0781,352.5938 Q85.7656,350.9375 85.7656,347.8125 Q85.7656,344.6875 87.0781,343.0313 Q88.4063,341.375 90.9063,341.375 Q91.6094,341.375 92.25,341.5313 Q92.9063,341.6875 93.4688,341.9844 L93.4688,344.7031 Q92.8438,344.125 92.25,343.8594 Q91.6563,343.5781 91.0313,343.5781 Q89.6875,343.5781 89,344.6563 Q88.3125,345.7188 88.3125,347.8125 Q88.3125,349.9063 89,350.9844 Q89.6875,352.0469 91.0313,352.0469 Q91.6563,352.0469 92.25,351.7813 Q92.8438,351.5 93.4688,350.9219 L93.4688,353.6406 Z "/><text fill="#000000" font-family="sans-serif" font-size="12" lengthAdjust="spacingAndGlyphs" textLength="74" x="104.5" y="352.1543">InitWorkflow</text><line style="stroke: #A80036; stroke-width: 1.5;" x1="76.5" x2="180.5" y1="364" y2="364"/><line style="stroke: #A80036; stroke-width: 1.5;" x1="76.5" x2="180.5" y1="372" y2="372"/><!--class ExitWorkflow--><rect fill="#FEFECE" filter="url(#f10obsn71k7sz6)" height="48" id="ExitWorkflow" style="stroke: #A80036; stroke-width: 1.5;" width="109" x="217" y="332"/><ellipse cx="232" cy="348" fill="#ADD1B2" rx="11" ry="11" style="stroke: #A80036; stroke-width: 1.0;"/><path d="M234.9688,353.6406 Q234.3906,353.9375 233.75,354.0781 Q233.1094,354.2344 232.4063,354.2344 Q229.9063,354.2344 228.5781,352.5938 Q227.2656,350.9375 227.2656,347.8125 Q227.2656,344.6875 228.5781,343.0313 Q229.9063,341.375 232.4063,341.375 Q233.1094,341.375 233.75,341.5313 Q234.4063,341.6875 234.9688,341.9844 L234.9688,344.7031 Q234.3438,344.125 233.75,343.8594 Q233.1563,343.5781 232.5313,343.5781 Q231.1875,343.5781 230.5,344.6563 Q229.8125,345.7188 229.8125,347.8125 Q229.8125,349.9063 230.5,350.9844 Q231.1875,352.0469 232.5313,352.0469 Q233.1563,352.0469 233.75,351.7813 Q234.3438,351.5 234.9688,350.9219 L234.9688,353.6406 Z "/><text fill="#000000" font-family="sans-serif" font-size="12" lengthAdjust="spacingAndGlyphs" textLength="77" x="246" y="352.1543">ExitWorkflow</text><line style="stroke: #A80036; stroke-width: 1.5;" x1="218" x2="325" y1="364" y2="364"/><line style="stroke: #A80036; stroke-width: 1.5;" x1="218" x2="325" y1="372" y2="372"/><!--class SingleCommandWorkflow--><rect fill="#FEFECE" filter="url(#f10obsn71k7sz6)" height="48" id="SingleCommandWorkflow" style="stroke: #A80036; stroke-width: 1.5;" width="187" x="658" y="116"/><ellipse cx="673" cy="132" fill="#ADD1B2" rx="11" ry="11" style="stroke: #A80036; stroke-width: 1.0;"/><path d="M675.9688,137.6406 Q675.3906,137.9375 674.75,138.0781 Q674.1094,138.2344 673.4063,138.2344 Q670.9063,138.2344 669.5781,136.5938 Q668.2656,134.9375 668.2656,131.8125 Q668.2656,128.6875 669.5781,127.0313 Q670.9063,125.375 673.4063,125.375 Q674.1094,125.375 674.75,125.5313 Q675.4063,125.6875 675.9688,125.9844 L675.9688,128.7031 Q675.3438,128.125 674.75,127.8594 Q674.1563,127.5781 673.5313,127.5781 Q672.1875,127.5781 671.5,128.6563 Q670.8125,129.7188 670.8125,131.8125 Q670.8125,133.9063 671.5,134.9844 Q672.1875,136.0469 673.5313,136.0469 Q674.1563,136.0469 674.75,135.7813 Q675.3438,135.5 675.9688,134.9219 L675.9688,137.6406 Z "/><text fill="#000000" font-family="sans-serif" font-size="12" lengthAdjust="spacingAndGlyphs" textLength="155" x="687" y="136.1543">SingleCommandWorkflow</text><line style="stroke: #A80036; stroke-width: 1.5;" x1="659" x2="844" y1="148" y2="148"/><line style="stroke: #A80036; stroke-width: 1.5;" x1="659" x2="844" y1="156" y2="156"/><!--class SendTriggerWorkflow--><rect fill="#FEFECE" filter="url(#f10obsn71k7sz6)" height="48" id="SendTriggerWorkflow" style="stroke: #A80036; stroke-width: 1.5;" width="163" x="480" y="224"/><ellipse cx="495" cy="240" fill="#ADD1B2" rx="11" ry="11" style="stroke: #A80036; stroke-width: 1.0;"/><path d="M497.9688,245.6406 Q497.3906,245.9375 496.75,246.0781 Q496.1094,246.2344 495.4063,246.2344 Q492.9063,246.2344 491.5781,244.5938 Q490.2656,242.9375 490.2656,239.8125 Q490.2656,236.6875 491.5781,235.0313 Q492.9063,233.375 495.4063,233.375 Q496.1094,233.375 496.75,233.5313 Q497.4063,233.6875 497.9688,233.9844 L497.9688,236.7031 Q497.3438,236.125 496.75,235.8594 Q496.1563,235.5781 495.5313,235.5781 Q494.1875,235.5781 493.5,236.6563 Q492.8125,237.7188 492.8125,239.8125 Q492.8125,241.9063 493.5,242.9844 Q494.1875,244.0469 495.5313,244.0469 Q496.1563,244.0469 496.75,243.7813 Q497.3438,243.5 497.9688,242.9219 L497.9688,245.6406 Z "/><text fill="#000000" font-family="sans-serif" font-size="12" lengthAdjust="spacingAndGlyphs" textLength="131" x="509" y="244.1543">SendTriggerWorkflow</text><line style="stroke: #A80036; stroke-width: 1.5;" x1="481" x2="642" y1="256" y2="256"/><line style="stroke: #A80036; stroke-width: 1.5;" x1="481" x2="642" y1="264" y2="264"/><!--class ScaleWorkflow--><rect fill="#FEFECE" filter="url(#f10obsn71k7sz6)" height="48" id="ScaleWorkflow" style="stroke: #A80036; stroke-width: 1.5;" width="121" x="6" y="224"/><ellipse cx="21" cy="240" fill="#ADD1B2" rx="11" ry="11" style="stroke: #A80036; stroke-width: 1.0;"/><path d="M23.9688,245.6406 Q23.3906,245.9375 22.75,246.0781 Q22.1094,246.2344 21.4063,246.2344 Q18.9063,246.2344 17.5781,244.5938 Q16.2656,242.9375 16.2656,239.8125 Q16.2656,236.6875 17.5781,235.0313 Q18.9063,233.375 21.4063,233.375 Q22.1094,233.375 22.75,233.5313 Q23.4063,233.6875 23.9688,233.9844 L23.9688,236.7031 Q23.3438,236.125 22.75,235.8594 Q22.1563,235.5781 21.5313,235.5781 Q20.1875,235.5781 19.5,236.6563 Q18.8125,237.7188 18.8125,239.8125 Q18.8125,241.9063 19.5,242.9844 Q20.1875,244.0469 21.5313,244.0469 Q22.1563,244.0469 22.75,243.7813 Q23.3438,243.5 23.9688,242.9219 L23.9688,245.6406 Z "/><text fill="#000000" font-family="sans-serif" font-size="12" lengthAdjust="spacingAndGlyphs" textLength="89" x="35" y="244.1543">ScaleWorkflow</text><line style="stroke: #A80036; stroke-width: 1.5;" x1="7" x2="126" y1="256" y2="256"/><line style="stroke: #A80036; stroke-width: 1.5;" x1="7" x2="126" y1="264" y2="264"/><!--class IPWorkflow--><rect fill="#FEFECE" filter="url(#f10obsn71k7sz6)" height="48" id="IPWorkflow" style="stroke: #A80036; stroke-width: 1.5;" width="98" x="162.5" y="224"/><ellipse cx="177.5" cy="240" fill="#ADD1B2" rx="11" ry="11" style="stroke: #A80036; stroke-width: 1.0;"/><path d="M180.4688,245.6406 Q179.8906,245.9375 179.25,246.0781 Q178.6094,246.2344 177.9063,246.2344 Q175.4063,246.2344 174.0781,244.5938 Q172.7656,242.9375 172.7656,239.8125 Q172.7656,236.6875 174.0781,235.0313 Q175.4063,233.375 177.9063,233.375 Q178.6094,233.375 179.25,233.5313 Q179.9063,233.6875 180.4688,233.9844 L180.4688,236.7031 Q179.8438,236.125 179.25,235.8594 Q178.6563,235.5781 178.0313,235.5781 Q176.6875,235.5781 176,236.6563 Q175.3125,237.7188 175.3125,239.8125 Q175.3125,241.9063 176,242.9844 Q176.6875,244.0469 178.0313,244.0469 Q178.6563,244.0469 179.25,243.7813 Q179.8438,243.5 180.4688,242.9219 L180.4688,245.6406 Z "/><text fill="#000000" font-family="sans-serif" font-size="12" lengthAdjust="spacingAndGlyphs" textLength="66" x="191.5" y="244.1543">IPWorkflow</text><line style="stroke: #A80036; stroke-width: 1.5;" x1="163.5" x2="259.5" y1="256" y2="256"/><line style="stroke: #A80036; stroke-width: 1.5;" x1="163.5" x2="259.5" y1="264" y2="264"/><!--class AudioControlWorkflow--><rect fill="#FEFECE" filter="url(#f10obsn71k7sz6)" height="48" id="AudioControlWorkflow" style="stroke: #A80036; stroke-width: 1.5;" width="167" x="678" y="224"/><ellipse cx="693" cy="240" fill="#ADD1B2" rx="11" ry="11" style="stroke: #A80036; stroke-width: 1.0;"/><path d="M695.9688,245.6406 Q695.3906,245.9375 694.75,246.0781 Q694.1094,246.2344 693.4063,246.2344 Q690.9063,246.2344 689.5781,244.5938 Q688.2656,242.9375 688.2656,239.8125 Q688.2656,236.6875 689.5781,235.0313 Q690.9063,233.375 693.4063,233.375 Q694.1094,233.375 694.75,233.5313 Q695.4063,233.6875 695.9688,233.9844 L695.9688,236.7031 Q695.3438,236.125 694.75,235.8594 Q694.1563,235.5781 693.5313,235.5781 Q692.1875,235.5781 691.5,236.6563 Q690.8125,237.7188 690.8125,239.8125 Q690.8125,241.9063 691.5,242.9844 Q692.1875,244.0469 693.5313,244.0469 Q694.1563,244.0469 694.75,243.7813 Q695.3438,243.5 695.9688,242.9219 L695.9688,245.6406 Z "/><text fill="#000000" font-family="sans-serif" font-size="12" lengthAdjust="spacingAndGlyphs" textLength="135" x="707" y="244.1543">AudioControlWorkflow</text><line style="stroke: #A80036; stroke-width: 1.5;" x1="679" x2="844" y1="256" y2="256"/><line style="stroke: #A80036; stroke-width: 1.5;" x1="679" x2="844" y1="264" y2="264"/><!--class LightControlWorkflow--><rect fill="#FEFECE" filter="url(#f10obsn71k7sz6)" height="48" id="LightControlWorkflow" style="stroke: #A80036; stroke-width: 1.5;" width="162" x="880.5" y="224"/><ellipse cx="895.5" cy="240" fill="#ADD1B2" rx="11" ry="11" style="stroke: #A80036; stroke-width: 1.0;"/><path d="M898.4688,245.6406 Q897.8906,245.9375 897.25,246.0781 Q896.6094,246.2344 895.9063,246.2344 Q893.4063,246.2344 892.0781,244.5938 Q890.7656,242.9375 890.7656,239.8125 Q890.7656,236.6875 892.0781,235.0313 Q893.4063,233.375 895.9063,233.375 Q896.6094,233.375 897.25,233.5313 Q897.9063,233.6875 898.4688,233.9844 L898.4688,236.7031 Q897.8438,236.125 897.25,235.8594 Q896.6563,235.5781 896.0313,235.5781 Q894.6875,235.5781 894,236.6563 Q893.3125,237.7188 893.3125,239.8125 Q893.3125,241.9063 894,242.9844 Q894.6875,244.0469 896.0313,244.0469 Q896.6563,244.0469 897.25,243.7813 Q897.8438,243.5 898.4688,242.9219 L898.4688,245.6406 Z "/><text fill="#000000" font-family="sans-serif" font-size="12" lengthAdjust="spacingAndGlyphs" textLength="130" x="909.5" y="244.1543">LightControlWorkflow</text><line style="stroke: #A80036; stroke-width: 1.5;" x1="881.5" x2="1041.5" y1="256" y2="256"/><line style="stroke: #A80036; stroke-width: 1.5;" x1="881.5" x2="1041.5" y1="264" y2="264"/><!--class LabRoomLightControlWorkflow--><rect fill="#FEFECE" filter="url(#f10obsn71k7sz6)" height="48" id="LabRoomLightControlWorkflow" style="stroke: #A80036; stroke-width: 1.5;" width="219" x="361" y="332"/><ellipse cx="376" cy="348" fill="#ADD1B2" rx="11" ry="11" style="stroke: #A80036; stroke-width: 1.0;"/><path d="M378.9688,353.6406 Q378.3906,353.9375 377.75,354.0781 Q377.1094,354.2344 376.4063,354.2344 Q373.9063,354.2344 372.5781,352.5938 Q371.2656,350.9375 371.2656,347.8125 Q371.2656,344.6875 372.5781,343.0313 Q373.9063,341.375 376.4063,341.375 Q377.1094,341.375 377.75,341.5313 Q378.4063,341.6875 378.9688,341.9844 L378.9688,344.7031 Q378.3438,344.125 377.75,343.8594 Q377.1563,343.5781 376.5313,343.5781 Q375.1875,343.5781 374.5,344.6563 Q373.8125,345.7188 373.8125,347.8125 Q373.8125,349.9063 374.5,350.9844 Q375.1875,352.0469 376.5313,352.0469 Q377.1563,352.0469 377.75,351.7813 Q378.3438,351.5 378.9688,350.9219 L378.9688,353.6406 Z "/><text fill="#000000" font-family="sans-serif" font-size="12" lengthAdjust="spacingAndGlyphs" textLength="187" x="390" y="352.1543">LabRoomLightControlWorkflow</text><line style="stroke: #A80036; stroke-width: 1.5;" x1="362" x2="579" y1="364" y2="364"/><line style="stroke: #A80036; stroke-width: 1.5;" x1="362" x2="579" y1="372" y2="372"/><!--class ServerRoomLightControlWorkflow--><rect fill="#FEFECE" filter="url(#f10obsn71k7sz6)" height="48" id="ServerRoomLightControlWorkflow" style="stroke: #A80036; stroke-width: 1.5;" width="237" x="615" y="332"/><ellipse cx="630" cy="348" fill="#ADD1B2" rx="11" ry="11" style="stroke: #A80036; stroke-width: 1.0;"/><path d="M632.9688,353.6406 Q632.3906,353.9375 631.75,354.0781 Q631.1094,354.2344 630.4063,354.2344 Q627.9063,354.2344 626.5781,352.5938 Q625.2656,350.9375 625.2656,347.8125 Q625.2656,344.6875 626.5781,343.0313 Q627.9063,341.375 630.4063,341.375 Q631.1094,341.375 631.75,341.5313 Q632.4063,341.6875 632.9688,341.9844 L632.9688,344.7031 Q632.3438,344.125 631.75,343.8594 Q631.1563,343.5781 630.5313,343.5781 Q629.1875,343.5781 628.5,344.6563 Q627.8125,345.7188 627.8125,347.8125 Q627.8125,349.9063 628.5,350.9844 Q629.1875,352.0469 630.5313,352.0469 Q631.1563,352.0469 631.75,351.7813 Q632.3438,351.5 632.9688,350.9219 L632.9688,353.6406 Z "/><text fill="#000000" font-family="sans-serif" font-size="12" lengthAdjust="spacingAndGlyphs" textLength="205" x="644" y="352.1543">ServerRoomLightControlWorkflow</text><line style="stroke: #A80036; stroke-width: 1.5;" x1="616" x2="851" y1="364" y2="364"/><line style="stroke: #A80036; stroke-width: 1.5;" x1="616" x2="851" y1="372" y2="372"/><!--reverse link WorkflowBase to Workflow--><path d="M385.0405,64.12 C342.8459,82.5694 291.272,105.1199 255.3618,120.8216 " fill="none" id="WorkflowBase&lt;-Workflow" style="stroke: #A80036; stroke-width: 1.0;"/><polygon fill="none" points="382.2466,57.7017,403.3758,56.1029,387.8553,70.5291,382.2466,57.7017" style="stroke: #A80036; stroke-width: 1.0;"/><!--reverse link WorkflowBase to SequenceWorkflow--><path d="M425.9264,71.9767 C413.9235,86.7075 400.7017,102.9342 390.183,115.8436 " fill="none" id="WorkflowBase&lt;-SequenceWorkflow" style="stroke: #A80036; stroke-width: 1.0;"/><polygon fill="none" points="420.6909,67.3203,438.7511,56.2373,431.5442,76.1638,420.6909,67.3203" style="stroke: #A80036; stroke-width: 1.0;"/><!--reverse link WorkflowBase to ParallelWorkflow--><path d="M491.4438,71.9767 C503.5831,86.7075 516.9551,102.9342 527.5933,115.8436 " fill="none" id="WorkflowBase&lt;-ParallelWorkflow" style="stroke: #A80036; stroke-width: 1.0;"/><polygon fill="none" points="485.7905,76.1235,478.4733,56.2373,496.5946,67.2201,485.7905,76.1235" style="stroke: #A80036; stroke-width: 1.0;"/><!--reverse link SequenceWorkflow to CombinedWorkflow--><path d="M370.5,184.2911 C370.5,197.8171 370.5,212.1835 370.5,223.8436 " fill="none" id="SequenceWorkflow&lt;-CombinedWorkflow" style="stroke: #A80036; stroke-width: 1.0;"/><polygon fill="none" points="363.5001,184.2373,370.5,164.2373,377.5001,184.2373,363.5001,184.2373" style="stroke: #A80036; stroke-width: 1.0;"/><!--reverse link WorkflowBase to SingleCommandWorkflow--><path d="M536.6674,60.8126 C583.3537,78.0212 641.9715,99.6277 686.1781,115.9223 " fill="none" id="WorkflowBase&lt;-SingleCommandWorkflow" style="stroke: #A80036; stroke-width: 1.0;"/><polygon fill="none" points="534.1377,67.3406,517.7929,53.8554,538.9797,54.2045,534.1377,67.3406" style="stroke: #A80036; stroke-width: 1.0;"/><!--reverse link SingleCommandWorkflow to SendTriggerWorkflow--><path d="M691.4571,174.1296 C663.0346,190.2856 629.7608,209.1991 603.9974,223.8436 " fill="none" id="SingleCommandWorkflow&lt;-SendTriggerWorkflow" style="stroke: #A80036; stroke-width: 1.0;"/><polygon fill="none" points="688.0138,168.0351,708.8603,164.2373,694.9321,180.2063,688.0138,168.0351" style="stroke: #A80036; stroke-width: 1.0;"/><!--reverse link SingleCommandWorkflow to AudioControlWorkflow--><path d="M755.601,184.2911 C756.8534,197.8171 758.1837,212.1835 759.2633,223.8436 " fill="none" id="SingleCommandWorkflow&lt;-AudioControlWorkflow" style="stroke: #A80036; stroke-width: 1.0;"/><polygon fill="none" points="748.6181,184.7975,753.7442,164.2373,762.5584,183.5067,748.6181,184.7975" style="stroke: #A80036; stroke-width: 1.0;"/><!--reverse link SingleCommandWorkflow to LightControlWorkflow--><path d="M816.3314,173.3418 C848.167,189.7144 885.8037,209.0705 914.7765,223.9708 " fill="none" id="SingleCommandWorkflow&lt;-LightControlWorkflow" style="stroke: #A80036; stroke-width: 1.0;"/><polygon fill="none" points="812.951,179.4749,798.3667,164.1029,819.3539,167.0249,812.951,179.4749" style="stroke: #A80036; stroke-width: 1.0;"/><!--reverse link Workflow to ScaleWorkflow--><path d="M162.8827,176.2115 C141.8311,191.8913 117.7551,209.8238 98.9322,223.8436 " fill="none" id="Workflow&lt;-ScaleWorkflow" style="stroke: #A80036; stroke-width: 1.0;"/><polygon fill="none" points="158.738,170.5703,178.9592,164.2373,167.1008,181.7981,158.738,170.5703" style="stroke: #A80036; stroke-width: 1.0;"/><!--reverse link Workflow to IPWorkflow--><path d="M211.5,184.2911 C211.5,197.8171 211.5,212.1835 211.5,223.8436 " fill="none" id="Workflow&lt;-IPWorkflow" style="stroke: #A80036; stroke-width: 1.0;"/><polygon fill="none" points="204.5001,184.2373,211.5,164.2373,218.5001,184.2373,204.5001,184.2373" style="stroke: #A80036; stroke-width: 1.0;"/><!--reverse link CombinedWorkflow to InitWorkflow--><path d="M298.2185,280.2579 C260.7266,296.9898 215.7436,317.0648 181.5103,332.3425 " fill="none" id="CombinedWorkflow&lt;-InitWorkflow" style="stroke: #A80036; stroke-width: 1.0;"/><polygon fill="none" points="295.3751,273.8614,316.4917,272.1029,301.0807,286.646,295.3751,273.8614" style="stroke: #A80036; stroke-width: 1.0;"/><!--reverse link CombinedWorkflow to ExitWorkflow--><path d="M334.7239,287.0285 C320.9926,302.0081 305.7314,318.6566 293.6434,331.8436 " fill="none" id="CombinedWorkflow&lt;-ExitWorkflow" style="stroke: #A80036; stroke-width: 1.0;"/><polygon fill="none" points="329.6079,282.2503,348.2825,272.2373,339.928,291.7105,329.6079,282.2503" style="stroke: #A80036; stroke-width: 1.0;"/><!--reverse link CombinedWorkflow to LabRoomLightControlWorkflow--><path d="M406.6375,287.0285 C420.5075,302.0081 435.9228,318.6566 448.1329,331.8436 " fill="none" id="CombinedWorkflow&lt;-LabRoomLightControlWorkflow" style="stroke: #A80036; stroke-width: 1.0;"/><polygon fill="none" points="401.3938,291.6684,392.942,272.2373,411.6665,282.1567,401.3938,291.6684" style="stroke: #A80036; stroke-width: 1.0;"/><!--reverse link CombinedWorkflow to ServerRoomLightControlWorkflow--><path d="M464.763,276.0452 C522.9911,293.3692 596.9363,315.3695 652.5149,331.9052 " fill="none" id="CombinedWorkflow&lt;-ServerRoomLightControlWorkflow" style="stroke: #A80036; stroke-width: 1.0;"/><polygon fill="none" points="462.4471,282.6595,445.2737,270.2467,466.4394,269.2408,462.4471,282.6595" style="stroke: #A80036; stroke-width: 1.0;"/><!--
@startuml workflow_engine_model_special_workflows

class WorkflowBase {
}

class Workflow {
}

class SequenceWorkflow {
}

class ParallelWorkflow {
}

class CombinedWorkflow {
}

class InitWorkflow {
}

class ExitWorkflow {
}

class SingleCommandWorkflow {
}

class SendTriggerWorkflow {
}

class ScaleWorkflow {
}

class IPWorkflow {
}

class AudioControlWorkflow {
}

class LightControlWorkflow {
}

class LabRoomLightControlWorkflow {
}

class ServerRoomLightControlWorkflow {
}

WorkflowBase <|- - Workflow
WorkflowBase <|- - SequenceWorkflow
WorkflowBase <|- - ParallelWorkflow

SequenceWorkflow <|- - CombinedWorkflow

WorkflowBase <|- - SingleCommandWorkflow
SingleCommandWorkflow <|- - SendTriggerWorkflow
SingleCommandWorkflow <|- - AudioControlWorkflow
SingleCommandWorkflow <|- - LightControlWorkflow

Workflow <|- - ScaleWorkflow
Workflow <|- - IPWorkflow

CombinedWorkflow <|- - InitWorkflow
CombinedWorkflow <|- - ExitWorkflow
CombinedWorkflow <|- - LabRoomLightControlWorkflow
CombinedWorkflow <|- - ServerRoomLightControlWorkflow

@enduml

PlantUML version 1.2019.09(Mon Aug 26 18:19:51 CEST 2019)
(GPL source distribution)
Java Runtime: OpenJDK Runtime Environment
JVM: OpenJDK 64-Bit Server VM
Java Version: 11.0.6+10-post-Ubuntu-1ubuntu118.04.1
Operating System: Linux
OS Version: 5.3.0-28-generic
Default Encoding: UTF-8
Language: en
Country: US
--></g></svg>