<?xml version="1.0" encoding="UTF-8" standalone="no"?><svg xmlns="http://www.w3.org/2000/svg" xmlns:xlink="http://www.w3.org/1999/xlink" contentScriptType="application/ecmascript" contentStyleType="text/css" height="785px" preserveAspectRatio="none" style="width:506px;height:785px;" version="1.1" viewBox="0 0 506 785" width="506px" zoomAndPan="magnify"><defs><filter height="300%" id="faqmsyonhe3pw" width="300%" x="-1" y="-1"><feGaussianBlur result="blurOut" stdDeviation="2.0"/><feColorMatrix in="blurOut" result="blurOut2" type="matrix" values="0 0 0 0 0 0 0 0 0 0 0 0 0 0 0 0 0 0 .4 0"/><feOffset dx="4.0" dy="4.0" in="blurOut2" result="blurOut3"/><feBlend in="SourceGraphic" in2="blurOut3" mode="normal"/></filter></defs><g><rect fill="#FFFFFF" filter="url(#faqmsyonhe3pw)" height="59.2656" style="stroke: #000000; stroke-width: 2.0;" width="218" x="266" y="360.3594"/><rect fill="#FFFFFF" filter="url(#faqmsyonhe3pw)" height="59.2656" style="stroke: #000000; stroke-width: 2.0;" width="212" x="266" y="593.2891"/><line style="stroke: #A80036; stroke-width: 1.0; stroke-dasharray: 5.0,5.0;" x1="29" x2="29" y1="86.2969" y2="698.6875"/><line style="stroke: #A80036; stroke-width: 1.0; stroke-dasharray: 5.0,5.0;" x1="125" x2="125" y1="86.2969" y2="698.6875"/><line style="stroke: #A80036; stroke-width: 1.0; stroke-dasharray: 5.0,5.0;" x1="301" x2="301" y1="86.2969" y2="698.6875"/><text fill="#000000" font-family="sans-serif" font-size="14" lengthAdjust="spacingAndGlyphs" textLength="36" x="8" y="82.9951">Actor</text><ellipse cx="29" cy="13" fill="#FEFECE" filter="url(#faqmsyonhe3pw)" rx="8" ry="8" style="stroke: #A80036; stroke-width: 2.0;"/><path d="M29,21 L29,48 M16,29 L42,29 M29,48 L16,63 M29,48 L42,63 " fill="none" filter="url(#faqmsyonhe3pw)" style="stroke: #A80036; stroke-width: 2.0;"/><text fill="#000000" font-family="sans-serif" font-size="14" lengthAdjust="spacingAndGlyphs" textLength="36" x="8" y="710.6826">Actor</text><ellipse cx="29" cy="723.9844" fill="#FEFECE" filter="url(#faqmsyonhe3pw)" rx="8" ry="8" style="stroke: #A80036; stroke-width: 2.0;"/><path d="M29,731.9844 L29,758.9844 M16,739.9844 L42,739.9844 M29,758.9844 L16,773.9844 M29,758.9844 L42,773.9844 " fill="none" filter="url(#faqmsyonhe3pw)" style="stroke: #A80036; stroke-width: 2.0;"/><rect fill="#FEFECE" filter="url(#faqmsyonhe3pw)" height="30.2969" style="stroke: #A80036; stroke-width: 1.5;" width="126" x="60" y="51"/><text fill="#000000" font-family="sans-serif" font-size="14" lengthAdjust="spacingAndGlyphs" textLength="112" x="67" y="70.9951">mqtt_door_topic</text><rect fill="#FEFECE" filter="url(#faqmsyonhe3pw)" height="30.2969" style="stroke: #A80036; stroke-width: 1.5;" width="126" x="60" y="697.6875"/><text fill="#000000" font-family="sans-serif" font-size="14" lengthAdjust="spacingAndGlyphs" textLength="112" x="67" y="717.6826">mqtt_door_topic</text><rect fill="#FEFECE" filter="url(#faqmsyonhe3pw)" height="30.2969" style="stroke: #A80036; stroke-width: 1.5;" width="46" x="276" y="51"/><text fill="#000000" font-family="sans-serif" font-size="14" lengthAdjust="spacingAndGlyphs" textLength="32" x="283" y="70.9951">door</text><rect fill="#FEFECE" filter="url(#faqmsyonhe3pw)" height="30.2969" style="stroke: #A80036; stroke-width: 1.5;" width="46" x="276" y="697.6875"/><text fill="#000000" font-family="sans-serif" font-size="14" lengthAdjust="spacingAndGlyphs" textLength="32" x="283" y="717.6826">door</text><path d="M40,101.2969 L40,141.2969 L381,141.2969 L381,111.2969 L371,101.2969 L40,101.2969 " fill="#FBFB77" filter="url(#faqmsyonhe3pw)" style="stroke: #A80036; stroke-width: 1.0;"/><path d="M371,101.2969 L371,111.2969 L381,111.2969 L371,101.2969 " fill="#FBFB77" style="stroke: #A80036; stroke-width: 1.0;"/><text fill="#000000" font-family="sans-serif" font-size="13" lengthAdjust="spacingAndGlyphs" textLength="320" x="46" y="118.3638">&lt;mqtt_door_topic&gt; and &lt;door&gt; are placeholders</text><text fill="#000000" font-family="sans-serif" font-size="13" lengthAdjust="spacingAndGlyphs" textLength="302" x="46" y="133.4966">for their instances (ex. MQTT_4_door_entrance)</text><rect fill="#EEEEEE" filter="url(#faqmsyonhe3pw)" height="3" style="stroke: #EEEEEE; stroke-width: 1.0;" width="491" x="3" y="171.1289"/><line style="stroke: #000000; stroke-width: 1.0;" x1="3" x2="494" y1="171.1289" y2="171.1289"/><line style="stroke: #000000; stroke-width: 1.0;" x1="3" x2="494" y1="174.1289" y2="174.1289"/><rect fill="#EEEEEE" filter="url(#faqmsyonhe3pw)" height="23.1328" style="stroke: #000000; stroke-width: 2.0;" width="42" x="227.5" y="160.5625"/><text fill="#000000" font-family="sans-serif" font-size="13" font-weight="bold" lengthAdjust="spacingAndGlyphs" textLength="23" x="233.5" y="176.6294">Init</text><polygon fill="#A80036" points="136,210.8281,126,214.8281,136,218.8281,132,214.8281" style="stroke: #A80036; stroke-width: 1.0;"/><line style="stroke: #A80036; stroke-width: 1.0;" x1="130" x2="300" y1="214.8281" y2="214.8281"/><text fill="#000000" font-family="sans-serif" font-size="13" lengthAdjust="spacingAndGlyphs" textLength="49" x="142" y="209.7622">register</text><rect fill="#EEEEEE" filter="url(#faqmsyonhe3pw)" height="3" style="stroke: #EEEEEE; stroke-width: 1.0;" width="491" x="3" y="243.3945"/><line style="stroke: #000000; stroke-width: 1.0;" x1="3" x2="494" y1="243.3945" y2="243.3945"/><line style="stroke: #000000; stroke-width: 1.0;" x1="3" x2="494" y1="246.3945" y2="246.3945"/><rect fill="#EEEEEE" filter="url(#faqmsyonhe3pw)" height="23.1328" style="stroke: #000000; stroke-width: 2.0;" width="97" x="200" y="232.8281"/><text fill="#000000" font-family="sans-serif" font-size="13" font-weight="bold" lengthAdjust="spacingAndGlyphs" textLength="78" x="206" y="248.895">Open door</text><polygon fill="#A80036" points="113,283.0938,123,287.0938,113,291.0938,117,287.0938" style="stroke: #A80036; stroke-width: 1.0;"/><line style="stroke: #A80036; stroke-width: 1.0;" x1="29" x2="119" y1="287.0938" y2="287.0938"/><text fill="#000000" font-family="sans-serif" font-size="13" lengthAdjust="spacingAndGlyphs" textLength="66" x="36" y="282.0278">trigger: on</text><polygon fill="#A80036" points="289,312.2266,299,316.2266,289,320.2266,293,316.2266" style="stroke: #A80036; stroke-width: 1.0;"/><line style="stroke: #A80036; stroke-width: 1.0;" x1="125" x2="295" y1="316.2266" y2="316.2266"/><text fill="#000000" font-family="sans-serif" font-size="13" lengthAdjust="spacingAndGlyphs" textLength="66" x="132" y="311.1606">trigger: on</text><polygon fill="#A80036" points="136,341.3594,126,345.3594,136,349.3594,132,345.3594" style="stroke: #A80036; stroke-width: 1.0;"/><line style="stroke: #A80036; stroke-width: 1.0;" x1="130" x2="300" y1="345.3594" y2="345.3594"/><text fill="#000000" font-family="sans-serif" font-size="13" lengthAdjust="spacingAndGlyphs" textLength="144" x="142" y="340.2935">state: active [opening]</text><path d="M266,360.3594 L343,360.3594 L343,367.3594 L333,377.3594 L266,377.3594 L266,360.3594 " fill="#EEEEEE" style="stroke: #000000; stroke-width: 1.0;"/><rect fill="none" height="59.2656" style="stroke: #000000; stroke-width: 2.0;" width="218" x="266" y="360.3594"/><text fill="#000000" font-family="sans-serif" font-size="13" font-weight="bold" lengthAdjust="spacingAndGlyphs" textLength="32" x="281" y="373.4263">loop</text><a href="on" target="_top" xlink:actuate="onRequest" xlink:show="new" xlink:title="on" xlink:type="simple"><text fill="#0000FF" font-family="sans-serif" font-size="11" font-weight="bold" lengthAdjust="spacingAndGlyphs" text-decoration="underline" textLength="121" x="358" y="372.5698">door is not opened</text></a><line style="stroke: #A80036; stroke-width: 1.0;" x1="301" x2="343" y1="398.625" y2="398.625"/><line style="stroke: #A80036; stroke-width: 1.0;" x1="343" x2="343" y1="398.625" y2="411.625"/><line style="stroke: #A80036; stroke-width: 1.0;" x1="302" x2="343" y1="411.625" y2="411.625"/><polygon fill="#A80036" points="312,407.625,302,411.625,312,415.625,308,411.625" style="stroke: #A80036; stroke-width: 1.0;"/><text fill="#000000" font-family="sans-serif" font-size="13" lengthAdjust="spacingAndGlyphs" textLength="60" x="308" y="393.5591">sliding on</text><polygon fill="#A80036" points="136,443.7578,126,447.7578,136,451.7578,132,447.7578" style="stroke: #A80036; stroke-width: 1.0;"/><line style="stroke: #A80036; stroke-width: 1.0;" x1="130" x2="300" y1="447.7578" y2="447.7578"/><text fill="#000000" font-family="sans-serif" font-size="13" lengthAdjust="spacingAndGlyphs" textLength="152" x="142" y="442.6919">state: inactive [opened]</text><rect fill="#EEEEEE" filter="url(#faqmsyonhe3pw)" height="3" style="stroke: #EEEEEE; stroke-width: 1.0;" width="491" x="3" y="476.3242"/><line style="stroke: #000000; stroke-width: 1.0;" x1="3" x2="494" y1="476.3242" y2="476.3242"/><line style="stroke: #000000; stroke-width: 1.0;" x1="3" x2="494" y1="479.3242" y2="479.3242"/><rect fill="#EEEEEE" filter="url(#faqmsyonhe3pw)" height="23.1328" style="stroke: #000000; stroke-width: 2.0;" width="98" x="199.5" y="465.7578"/><text fill="#000000" font-family="sans-serif" font-size="13" font-weight="bold" lengthAdjust="spacingAndGlyphs" textLength="79" x="205.5" y="481.8247">Close door</text><polygon fill="#A80036" points="113,516.0234,123,520.0234,113,524.0234,117,520.0234" style="stroke: #A80036; stroke-width: 1.0;"/><line style="stroke: #A80036; stroke-width: 1.0;" x1="29" x2="119" y1="520.0234" y2="520.0234"/><text fill="#000000" font-family="sans-serif" font-size="13" lengthAdjust="spacingAndGlyphs" textLength="66" x="36" y="514.9575">trigger: off</text><polygon fill="#A80036" points="289,545.1563,299,549.1563,289,553.1563,293,549.1563" style="stroke: #A80036; stroke-width: 1.0;"/><line style="stroke: #A80036; stroke-width: 1.0;" x1="125" x2="295" y1="549.1563" y2="549.1563"/><text fill="#000000" font-family="sans-serif" font-size="13" lengthAdjust="spacingAndGlyphs" textLength="66" x="132" y="544.0903">trigger: off</text><polygon fill="#A80036" points="136,574.2891,126,578.2891,136,582.2891,132,578.2891" style="stroke: #A80036; stroke-width: 1.0;"/><line style="stroke: #A80036; stroke-width: 1.0;" x1="130" x2="300" y1="578.2891" y2="578.2891"/><text fill="#000000" font-family="sans-serif" font-size="13" lengthAdjust="spacingAndGlyphs" textLength="137" x="142" y="573.2231">state: active [closing]</text><path d="M266,593.2891 L343,593.2891 L343,600.2891 L333,610.2891 L266,610.2891 L266,593.2891 " fill="#EEEEEE" style="stroke: #000000; stroke-width: 1.0;"/><rect fill="none" height="59.2656" style="stroke: #000000; stroke-width: 2.0;" width="212" x="266" y="593.2891"/><text fill="#000000" font-family="sans-serif" font-size="13" font-weight="bold" lengthAdjust="spacingAndGlyphs" textLength="32" x="281" y="606.356">loop</text><a href="on" target="_top" xlink:actuate="onRequest" xlink:show="new" xlink:title="on" xlink:type="simple"><text fill="#0000FF" font-family="sans-serif" font-size="11" font-weight="bold" lengthAdjust="spacingAndGlyphs" text-decoration="underline" textLength="115" x="358" y="605.4995">door is not closed</text></a><line style="stroke: #A80036; stroke-width: 1.0;" x1="301" x2="343" y1="631.5547" y2="631.5547"/><line style="stroke: #A80036; stroke-width: 1.0;" x1="343" x2="343" y1="631.5547" y2="644.5547"/><line style="stroke: #A80036; stroke-width: 1.0;" x1="302" x2="343" y1="644.5547" y2="644.5547"/><polygon fill="#A80036" points="312,640.5547,302,644.5547,312,648.5547,308,644.5547" style="stroke: #A80036; stroke-width: 1.0;"/><text fill="#000000" font-family="sans-serif" font-size="13" lengthAdjust="spacingAndGlyphs" textLength="60" x="308" y="626.4888">sliding off</text><polygon fill="#A80036" points="136,676.6875,126,680.6875,136,684.6875,132,680.6875" style="stroke: #A80036; stroke-width: 1.0;"/><line style="stroke: #A80036; stroke-width: 1.0;" x1="130" x2="300" y1="680.6875" y2="680.6875"/><text fill="#000000" font-family="sans-serif" font-size="13" lengthAdjust="spacingAndGlyphs" textLength="145" x="142" y="675.6216">state: inactive [closed]</text><!--
@startuml group_4_door
actor Actor
participant mqtt_door_topic
participant door
note over mqtt_door_topic, door
    <mqtt_door_topic> and <door> are placeholders
    for their instances (ex. MQTT_4_door_entrance)
end note

== Init ==
door -> mqtt_door_topic: register

== Open door ==
Actor -> mqtt_door_topic: trigger: on
mqtt_door_topic -> door: trigger: on
door -> mqtt_door_topic: state: active [opening]
loop [on door is not opened]
    door -> door: sliding on
end

door -> mqtt_door_topic: state: inactive [opened]

== Close door ==
Actor -> mqtt_door_topic: trigger: off
mqtt_door_topic -> door: trigger: off
door -> mqtt_door_topic: state: active [closing]
loop [on door is not closed]
    door -> door: sliding off
end

door -> mqtt_door_topic: state: inactive [closed]
@enduml

PlantUML version 1.2019.09(Mon Aug 26 18:19:51 CEST 2019)
(GPL source distribution)
Java Runtime: OpenJDK Runtime Environment
JVM: OpenJDK 64-Bit Server VM
Java Version: 11.0.4+11-post-Ubuntu-1ubuntu218.04.3
Operating System: Linux
OS Version: 5.0.0-36-generic
Default Encoding: UTF-8
Language: en
Country: US
--></g></svg>